<mxfile host="app.diagrams.net" agent="Mozilla/5.0 (Macintosh; Intel Mac OS X 10_15_7) AppleWebKit/537.36 (KHTML, like Gecko) Chrome/140.0.0.0 Safari/537.36" version="28.2.5">
  <diagram id="IV3mwV4IS1dcDzZvBTzH" name="Page-1">
    <mxGraphModel dx="-623" dy="1086" grid="1" gridSize="10" guides="1" tooltips="1" connect="1" arrows="1" fold="1" page="1" pageScale="1" pageWidth="50" pageHeight="50" math="0" shadow="1">
      <root>
        <mxCell id="0" />
        <mxCell id="1" parent="0" />
        <mxCell id="rilTDgwJUt0uwkPP9IXT-74" value="Service Cluster&lt;div&gt;enabled with gRPC Communication&lt;/div&gt;" style="rounded=0;whiteSpace=wrap;html=1;fillColor=none;labelPosition=center;verticalLabelPosition=bottom;align=center;verticalAlign=top;fontFamily=Verdana;fontSize=10;fontStyle=0;shadow=1;textShadow=1;strokeWidth=1;" parent="1" vertex="1">
          <mxGeometry x="1695" y="-300" width="825" height="540" as="geometry" />
        </mxCell>
        <mxCell id="rilTDgwJUt0uwkPP9IXT-67" value="" style="group;textShadow=1;shadow=1;fontFamily=Verdana;" parent="1" vertex="1" connectable="0">
          <mxGeometry x="1703.3600000000001" y="-190" width="359.99" height="322" as="geometry" />
        </mxCell>
        <mxCell id="rilTDgwJUt0uwkPP9IXT-68" value="Data Fetch Service" style="shape=image;verticalLabelPosition=bottom;labelBackgroundColor=none;verticalAlign=top;aspect=fixed;imageAspect=0;image=data:image/png,iVBORw0KGgoAAAANSUhEUgAAAgAAAAIACAYAAAD0eNT6AAAAAXNSR0IArs4c6QAAAERlWElmTU0AKgAAAAgAAYdpAAQAAAABAAAAGgAAAAAAA6ABAAMAAAABAAEAAKACAAQAAAABAAACAKADAAQAAAABAAACAAAAAAAL+LWFAABAAElEQVR4AeydB1wU1xPHR4qAgCIWFAuIvffee0vURGPU9GZ6MzHtnxiTmN57773HJJYYe4u9d8VeURRBBAHxP3PxDOId3O17e7d395vPZ+Rud9+8ed9FdvaVeUQQEAABEAABEACBgCNQIuBajAaDgB4CYWwm4axW5Z/lzmr5Ap/lWASrSAyr/H8LZi3NKnKS9RRrHmsGq0g6aw7rYdYjZ38eLPBdPu9kPcoKAQEQAAHDBBAAGEaHggFAQB7WtVkbn9Va/FMe+omslVm9+f9HAoBtBXTr2c/r+OcJVggIgAAIFEnAm3/AinQMJ0HAwwTkjb4FazvWZqyNWBuwhrP6kuSzs1tYl5/VFfxzJav0LEBAAARA4BwBBADnUOBDgBGQN/gOZ1Ue+i1ZJQjwR5GgQHoI5rPOOqv7+ScEBEAggAkgAAjgmx9gTQ/h9sqD/iLWXqzyth/Iv//buf3TWRewzmDdxwoBARAAARAAAb8gUIVbcQfrJNZM1jNQhwxOM5eFrA+wypwHCAiAAAiAAAj4HIFq7PHdrNLdLQ82PPTdZ5DM3F5n7cQayL0k3HwICIAACICAlQlUYOfuYf2HVca78dDXx2AH83yCNYkVAgIgAAIgAAJeJxDEHshY/g+sspYeD33zGSxjzqNZo1khIAACIAACIOBRAjW4tgmse1nx0PcOA0la9Alre1YICIAACIAACJhKQJbpfcGay4oHv3UYSL6Bq1lDWSEgAAIgAAIgoIWAPFQuY5UZ6njoW5uB5BUYzxrLCgEBEAABEAABQwQkf75M6kM3v7Uf+o6CMhkeeJO1OisEBEAABEAABFwiIJn4ZJKZJKVx9HDBMd/hIhsavc9alRUCAiAAAiAAAg4J4MHvOw92d4MwWaEhgYAkZYKAAAiAAAiAgI2ALOW7lhVd/f4bANgDBtn6+BVWydkAAQEQsAABZPmywE0IUBd6cLtfYm3uq+0PDg2jqIrVKSougaIqVKWImDgKL12ONZbCostRGP8Mj46lEkFBFBIeRUEh/06UD4uKsTU5NyuD8k+fptM5WazZlJ+XS7nZmZSbdYJOHjtI2WmHKYv1388p/PMQZRzYTqdOpPkqMvFbnH+KVeYJyIoOCAiAgJcIIADwEvgArrYet/0F1ot9hYE81GOTmlBsYiOKTWhAZarWsT30I2Mrc6Jcz/8Xyk5PpeN7t/yr+7bR8X1b6dieTbafdEZeuH1CNrOXY1gn+4S3cBIE/JCA5/96+SFENMklAjKz/zHW+1ktu2Y8NCKaKtZvS3GsFeu1tT30S8VWcqmB3r4oJzOdDm9dRoc3L6XDW5azLqOTRw96263i6pcAQAIBCQggIAACHiSAAMCDsAO4qn7c9rdZk6zGQLrj45v1oMqNO1Ncg/b8wG/IXfbBVnPTsD+Zh/fSgbVzae+KGbRv5QweUkgxbMvEgjIU8CrreNYsVggIgIAHCCAA8ADkAK5CXp3lD/sIyzDgLvvySU2paqu+VLVlb9ubvj898IvkzMMDqTvW2gKBfRwQHNyw0Db3oMgynj25lau7gXWeZ6tFbSAQmAQQAATmffdEq6/iSt5g/XfGmydqdFJHiRJBFNewAyV1Hko1Og6hiLJxTq4MrMMyCXHXokm0Y97P3EMwnU7nnrICANnN8V3Wh1klqRAEBEDAJAIIAEwCG8Bmy3Pb32Md6lUG/KYfx2P4Nfihn9T5UiolE/YgTgnI/IFdi/6g7RwM7Fs5k1ckSB4fr8ourv1m1r+86gUqBwE/JoAAwI9vrheadhHX+RGr116xI2IqUO2eV1LdvtdSmSq1vYDA96s8lXGMts74mjZN/YTSeHWBl+UDrv9eVskjAAEBENBIAAGARpgBbCqS2/4a643eYCBd/PHNulO9ftdRQruLeL19SW+44Zd1Hlw3nzZO+Zh2LvjNm0ME6xmuzCNZ55eQ0SgQ8BIBBABeAu9H1dbntvzE2sDTbQopGUG1eoykxpfcZVub7+n6A6k+yT2wdfqXtO73d0hWFnhBZHWA9AS874W6USUI+CUBBAB+eVs91qhRXJP8QY7yWI1cUXiZ8lS39zXUcPBtGNv3JHiuS7IVJs/5gVb/+LK3hgd+ZTdkpcAxDzcd1YGA3xFAAOB3t9QjDZLNe6TL/xaP1Ha2EknI03T4WNv4vrz9Q7xH4MyZfNq58HcOBF6iI1tXeNqRnVzhMNblnq4Y9YGAPxFAAOBPd9MzbZHtXX9jbemZ6v5942867D6qf9FowoPfU9Rdr0cSDC374glb5kHXSylfKUMC17N+p2wJBkAgQAkgAAjQG2+w2W24nDz8PbKmrmRkGWoy9F5qOOg2Co3w6CiDQTwBXIyTDG2f/wst+/xxSucNizwksvHBM6zjWCV/AAQEQMANAggA3IAV4Jdexu3/jLWU2RxkVn/N7iOo7Q3P8g572D3WbN467cscgS08WXD5l096Mu2w7Ccg81GO62wLbIGAvxNAAODvd1i9ffI78jirvGWZ/vtSuUlXaj/6RYqt0Ujdc1jwGoHck+m0+qdXaO0vr3tq+aAsERzEusNrjUbFIOBjBEz/g+5jPODu+QRk177PWOXtylSJrFDV9uBP7DDY1Hpg3LME0vZupgVv3W3bkMgDNctORwNYMTnQA7BRhe8TQADg+/fQrBZIV7+s7+9vVgU2u5yyt17f67i7/xkKLVXa1Kpg3HsEdvD8gIXv3svDAofNduIEV3Ap699mVwT7IODrBPxn31NfvxPW8j+G3ZnC2sNMt0rH16Rej3xtm+QXHCorCyH+SqBs9fq8fPM63n0wi45skRd0mb9nikgayOGsm1k3mFIDjIKAnxBAD4Cf3EiNzYhnW3+xmjYIL9vvNr3sfmo+8iHCg1/jnfMRU/tWzaS5r4ymzNT9Znp8mo3LZkIfm1kJbIOALxNAD4Av3z39vieyyTmsdfWb/tdidFwC9R73I9XpfRUFBYeYVQ3sWphA6Uo1qE6vqyjj4A5K223aZkNBjOBi1mzWBRbGAddAwGsEEAB4Db3lKq7OHs1kTTLLsxqdLqU+43+hmKq1zaoCdn2EQEhYBG/TPJTKJtTn7YdnmLVSQHo4e7FKb8BcH0EDN0HAYwQwBOAx1JauKIG9m8VawwwvQyOiqdMdb1DNbpebYR42fZyA9ATMevF6Stm02MyWjGXjL5lZgQHbUVxGhtyiz6p0icnkW/uEGJnQmMuaw5paQOUYBASUCSAAUEbo8wbkzX82qykP/5iqdanXY9/xW79powo+fwPQAE7jdzqPFn/0EK3n3QZNlLvZ9hsm2i9sWnpYa7LKjpnyH8CukkmzEqs87I2IBAM7C6iMo6xmlW2TT7JCQMAlAggAXMLktxdJXv85rKZ0+8ua/q5jPuA0vvKCAwGB4glsnfE15w24i/J4tYAJIksPbmV93wTbYrI8a3vWtmd/tuafnvzll6GOrayLWOezLmSV4MC0JRdsG+LDBBAA+PDNU3S9DJeXcdEminYuKC6z/JuPeIiaj3qYJK0vBATcIZC6fQ1NnzCCMg7tdKeYq9fKw1B2sfzA1QJFXCe/3M1ZZZ6BaDdW6ca3kkjihdmsf57Vo/wTAgI2AggAAvMXIYKbLYlSOupuvmza0+PBL6la6766TcNeABHIPn6EZjx3FR1YIx1U2kXelIeyTjRgWR76nVivYJWEQ/LW7yuSy47OYP2BVTb1OsYKCWACCAAC7+bLG8rPrIN0N71UbGXqy7P8y9Vsqts07AUgAZkXMP+tO2nLtM/NaL2MlXdnXeKi8Tp83fWsI1ll3oyvi0ws/IP1Q9a/WfNZIQFGAMsAA+uGS8An45/yR0yryOY9A5+dSmWqyt9JCAioEygRFEQJbQfSmfx8OrhuvrrB8y3IPhcSBEswnHb+qXPf5G2/P6tMHHyNVd78ZejMH0T+9jdgvZL1GtZIVplEaMrkC7YLsSAB9ABY8KaY6NJjbPtJ3farNO9pS+mLXP66ycKencDGSR/SwvfGcDAgvfdaRSbJdWQtODYext9vYL2HNZCSVmRyez9llWAnmRXi5wQQAPj5DS7QvCH8Wd525K1Gm1Rv0596Pvw1BZcM12YThkDAEYFdi/6kWc9fY8YKgXlcX29W6QaX3rHHWZNYA1WEg/yteIR1W6BCCIR2IwAIhLv870z/BdxUSTyiTWp2uYy63vcRBYVIbyoEBMwncHD9Avpr/FDKPZmuu7KZbLAma4Juwz5sT+YJfMI6nvUQK8TPCMg4EMS/CZTj5snM3zidzazVfSQ//D/Ew18nVNgqlkBUxeoU36QzbZ//K+Xnnir2ejcuqMHXxrhxfSBcKs+HVqySO6Ekq+QXyGOF+AkBBAB+ciOdNEP+005mbebkvKHD9QfcSF3ufpdkvT8EBDxNILJ8VarcqCPtmP8L5efJSyrEZALyd6Qb6wjWjazbWSF+QAB/wf3gJhbRBMl9fnkR590+VbvnFdTprreR4Mdtciigk0BUhWocBHTiIIB7AhAE6ERblK1YPnk1a0PWWaxIO8wQfFkQAPjy3Svad1niJLN5tc3zkN38ut3/Md78i+aOsx4iIEFAXP12Z4MAyXED8RABCQCuYZUVFFs8VCeqMYEAAgAToFrAZHX2YQqr0c1GLmhC9bYDqOdDX1JQsNUynV7gKg4EEIHouASqWLc1Jc/9yYwlggFE0u2myoRiWTFRkVV6AzA3gCH4miAA8LU7Vry/MiV/Equ2jDyVG3emPo/9SMGhsjwaAgLWIhBdqQZFV0qknf/8bi3H/N8b6V2UDY9kifFM1iOsEB8ioK172Ifa7O+uvsANHKurkbKN78Uvz6KwKEyQ1sUUdswhsOr7F2jZF+PNMW6S1YiycVSKNbhkBIWGR1JwWDgH2uG2FQ65p05Szok0ys06QXnZmZTDSx/ls0VF1mVey/qrRf2DWw4IIABwAMWHD3Vl3yUS15LsJyKmAg16ZQ5FxyX6MBK4HkgEZO+ATVM+tlSTQ/jBHpvYkMolNWFtakuXHVm+Com626uWlXaY0vZsouP7trFuoeN7t9DRHevoxOE9VmjzGXbiGdbHWOUzxOIEEABY/Aa54Z6Mya1hreFGGaeXhvAbyYDnptrGV51ehBMgYDECsoHQ308Npz1Lp3rNs5CwUlSpYQeSFNmiZRMbmL5qJv3Adt45cS7tXz2b9vMOilnHvJq353uGfy1rttduAip2iQACAJcw+cRF77GXN2vxtEQJW3rfGh1laA8CAr5FQLrL/xjbk1K3SzzsGSkZWZoS2w+mpK6XkcyZcffNXreXx3ZtsK2O2DrzG8o4uEO3eVfsye5N8gck1ZWLcY13CCAA8A533bX2ZYMy61/L/Ww6fCy1vuYJ3T7CHgh4jIA89H67uyOd4jF0s6REiSCS1TGSG6Naq77W3A/jzBk6uOEf2jbza9o+7xfKyTxuFg5HdtfxQdlj4aCjkzjmfQJaHhjeb0ZAeyCz89ayVtVBoUqLXtTviV+x1l8HTNjwKoHdS6bQ309eRmfO5Gv1Q3a9rNv7amo46FZefVBDq20zjZ3Oyabk2d/T6h9fpuP7PbbHz1ZuUy/W3Wa2DbaNEUAAYIyblUq9w85Irm5lkTXVQ15fQGHRscq2YAAErEBg+VdP0cpvn9XiSlh0WWo67D6SVNi+vPW1bKm8fd7PJKsmZKjAA7KL6+jCiiDAA7DdqQIBgDu0rHetbNSxmFV51r9s53vxSzOpfM1m1mslPAIBgwTk7f+vcUNo74rpBi0QySz+RoPvoCZD76GSkWUM27FcQR4ekC2Wl335hCcCAekJkCAAwwEW+kVAAGChm+GmK/LQl4e/BAHK0v6Wl6nhxVo6EpR9gQEQ0EngVMZR23yAjEPyIuqG8GTYOj2vpNbXPkmyXt9fJT8vl9b//g6t+OZps/MMyJyAbqyYGGiRXyYEABa5EQbcuI3LvG2g3AVFqrXqQ33Hc/4O/oMHAQF/JCBr52VlwKmMYy41r0x8Lep4xxsU37SbS9f7w0WZR/bRog8fsK0eMLE9sjpAJgZiiaCJkF01jb/4rpKy1nXyOrKRtayqW5Ls59K3l1JEjKT0hoCA/xKQiW8zn7uKUpNXO22kDIU1vuRuaj7iQWvO6nfqub4TMlwy77VbKDN1vz6j51v6jr+OYkWyoPO5ePwb9gLwOHItFb7GVjoqW+I3/h4PfoFxf2WQMOALBMJ5cmu9ftdTTLW6JDPis4+n0OncUxQUUpLKVKlNdfpcTd3v+5gSOwwK6E2vSldOoto9RtHRnetIEgyZII3Ypjx7ZplgGybdIIAeADdgWeRS2YpTXmGUg7d6/a6jTndqGUWwCBq4AQLuEZAAIJgDAAx/OeDGkwRX//gSyUoKybCoWeTt/1LW3zTbhTk3CCAAcAOWRS79g/24SNWXUrGVadh7K3lWc2lVUygPAiDgxwQOrl9Is56/2owhgXTG1oZ1sx/js3TTlJePWbp1/udcN26S8sNfsHS47VU8/AUEBARAoEgCsq/BoJdnU0z1+kVeZ+CkvH38xBpuoCyKaCCg3I2swQeYcI2A9NZ8y6qc8a9Gp0uoxchHXKsVV4EACAQ8AekprNntcjq0YSFlHt6rk4fMPpbkCpLKHOJhAggAPAxcobrhXPZehfK2omFRMdTn8V8oNCJK1RTKgwAIBBCBEF4hUZM3O0rdvprS9yfrbLkMAyxllWRBEA8SwBCAB2ErVCVv/48qlD9XtMUVj1Kp2ErnvuMDCIAACLhKQLY67v3oDxwIyPuINpG/bx+zKi9r1uZRgBhCAOAbN3oIu9lY1dWYavU4j/lNqmZQHgRAIIAJBIWEUtcxH1K11rIJqTaRt5IXtVmDIZcIIABwCZPXL3pYhwftbnqe1zyH6jAFGyAAAgFMQP6O9HzkG4pr0F4nhevZmOwcCPEQAQQAHgKtUE1/LttaobytaPU2/alqS8nACQEBEAABdQIhJSOoz7gfObFSPXVj/1qQoYC3WDkxA8QTBBAAeIKyWh3KY/8Srbe98Tk1L1AaBEAABAoRkK3D+z/1O88rqlzojOGvdbnkHYZLo6BbBBAAuIXL4xd34ho7qNZap9eVtlSnqnZQHgRAAAQKE4isUJVTin9OJYK0LSp7nOvATOXCoE34ru2OmeAbTBK9wBAaqYAIDg3jsbqv/WsfcxUgKAsCIKCdQFTF6hwABNGBNXN02A5jIxGsk3UYgw3nBNAD4JyNt8/EswOSK1tJ6nK+/6gK1ZRsoDAIgAAIFEeg2eUPUJUW2ubwyXKlGsXVifNqBBAAqPEzs/TtbFxpyr5sbdr0svvN9BG2QQAEQMBGoESJIOrGuylqmg8gEwG1rH7C7XFOQGZdQqxHQHJj72atoOJaoyF3kiz9g2ggwDujpWxeSimblvCmKPso61gKSVbFiLJxVDahAVVp3oMkSQrENQL5ebl0eMsyOrx1BW85m0w5J47btuZ1rbS+q0JLRVN46XIUU7UOxXHO+zLxtfQZD1BLuxZPor+fvExH63PZSB3WnTqMwcaFBEIuPIQjFiAwgn1QevjLzP/GHABA1AicOpFm2xI1edZ3Re6GJg//aq36ULMRD1G5pCZqlfpx6eP7t9Han1+j7fN+opxM2QzOWhJTtS7V7XsN1R84GgGdwVuT0HYgVW87gHYvVh7Clx5QSX9+t0FXUKwYAugBKAaQl07P43plBYBhqdV9BHW7/xPD5VGQaMOkD2j5l0/QqYxjLuOQbtDavOpCel5KRsoeJxAhkJV2mFZ++wxtmvoJydu/1SWyXDxJ2uw6va/SObvd6s3W5l/GoV30860tKe/USVWbJ9hAdVbX/xOq1hhA5bEKwHo3W/ogJSWmUnAmqTqR89/Yzc0/nUcL3r6LH1jP0umcbDeNnLFtlrJ7yWSq3mYAggCml7JpMU16sA/PEJ9LZ/Lz3eTpnctzszL4DXYSHeZhH3mblfk0ENcJyPAY0Rnav3qO64UcXylzAdJY5zs+jaMqBDAJUIWeOWWvYbNKD//4pt2oXM2m5njn51bl7XTGM6Nsb6oqTT22ayP9PqYbHd8X2BucbZv1LU16qB/3AKSo4PRa2b0rptPEMV11737ntfZ4suLGl96jK//IaPYbzyoTbh6gmgBVwaTcj6sVytuKNr7kLlUTAVn+zJl8mvPqaNq16E8t7T959ABNefRi3funa/HNE0b2LJ1Kc14Z7ZXJfTrbd3zvFpry2CAeCjqq06zf25IcJC2u+J+OdtZgIz11GIKN8wkgADifh7e/9WAHZLzLsEhWLuT8N4Zv8YcPUvLs740VdlLqRMpumvzIAJ99A3bSrGIPp+3dTLNevJa7/E8Xe60vXJBxcAf9/dTlPH8hxxfctYyPSZ2H6uoFuMEyjfIjRxAAWOtmXqXqTr2+12HSkgGISz9/nNZNfNtAyeKLyMz3v8YNseSs9+K9d/8K6UmZ/cJ1ftfeg+sX0Nrf3nQfSACXkPTATYeN0UFgMBvBrFodJAvYQABQAIaXP8qSl4tVfJD/bHV6KccQKi74ZFl58K/+wdytyI8kr6Kp4wZTXnamTzJyx+nk2T+QtNcfZfUPL2EowM0bW6vHKIqOS3Cz1AWXyyzMQRccxQElAggAlPBpLSzd/2VVLFZr3ZdkCADiOoFNUz+lRR8+4HoBhStlNvyM567yiWVwRpspKyiWf/WU0eKWL5eTeZzzQrxseT+t5KAtJwlPCNQgl2uwARMFCCAAKADDyx8vUa2/Xt/rVU0EVPnt8362LfcjzvLnKbFNjHv5Rq7SN5bDuctl34oZJOPl/iybp32OuQBu3uDaPUdRSHikm6UuuLw3H8EwwAVYjB9AAGCcnc6Sch+GqBiUfbkx+c91gnuX/02zX7rBK5PUkuf+SAvf4TciDwYerpNRu3LnPxPVDPhAaVkNcHDdAh/w1DouhkZEU2J7pRFOaYzkBOhlnVb5vicIAKxxDzuyG3EqriR2GETS1QYpnsDB9Qtp+tMjvfoWt3HyRyQTD/1NAuXBeGAd8tK4+7tbm+cCaJB+GmzAxFkCCACs8asgM1yVJKnLMKXygVI4dfsamvbEUB0pSpWRrf7xJVrz0yvKdqxi4HTuKd7YZ7tV3DHVj7TdG02174/G45t117FToAQASonS/JGt0TYhADBKTm85GdsyLOFlylPlxl0Mlw+Ugun7k20z8WUil1VkyWeP0aYpH1vFHSU/JNufv6z7Lw5EZuqB4i7B+UIEZJWS7FGiKDLLWdKlQzQQQACgAaKiCen6b6xio0bHIRQUHKJiwu/LZh7e+29CnmOHrNVWngewgOcDbJ/7k7X8MuBNICxxtGORvQIg7hNI5L9VGkRpozQN9fuNCTw1vH8re7ALSl1aie2xPLao2yg70U1+9CI6cXhPUZd57Zy8Nc9++QYKLVXatqWw1xxRrPhMvtpqioToSHq+XQtFL1wrvv/kSRqzYLlrFzu46owfTuB00Ezth8rXas4bZJVWTRLVgR37VLtzAWgQAYD3b3ovFRdkaU2lRgiInTGUPeenjhtEks9dp4SGlKDcPLUHXkF/7JsQ9XtqIlVqKHNCA09KlwylYTWVMmG7DG1zWjpfazwAcLkiXHgeAemplL9XuxdPPu+4m18kAIBoIIAhAA0QFU1ID4BhiW/SBVuVOqGXl5NF054cRqnJq51cYexwxXIhtPy3WtSvS7QxA05Kyd7pf40fSke2rXRyBQ6DgO8TiG/SVbURddlAhKoRlMcWi97+HajFDiSqOFG1ZR+V4n5bVjZtmcFL/Q5qXq5Vtkww/f1ZDWpcJ5x+fKM6tW1aSivD3JPp9NfjQ7T3WGh1EsZAQIFAfNPuCqVtRYP53waqRlAeAYC3fwfaqzpQrRUCgMIM/x1Tv5H2LJtW+JTS98iIIJr0QSI1qStpyYmiSgXR5I8SqREHAzrF6nMWdLYVtgKPQGxiQwovXU614UoTp1Ur95fyGALw7p1so1J9mfhaFF2phooJ/ysrs+rfvlv7rPqSoSXol7cTqH3z89/4Y7lHYNqnNahmdUlSpk9k1cKU/13E2wgf1mcUlkDACgRKlKCyCcov8PWs0BRf9wEBgHfvoFIPQFyjwJwsVtQts62rn/pJUZe4fS44uAR9+WI16tMpymHZyhVCaOYXSVQ9Xm8mxuP7ttKURwfSqRNpDuvFQRDwVQJlqtRWdT1R1QDKYwjAm78D0m+s1I1VqX47b/pvubplS1/dmfX4ZYXefSKehg8oeg8SefjL3ACZIKhTju5YZ5sTkJt1QqdZ2AIBrxIoU7WOav3o+lQlyOXRA6ABokETzbmcUr9xxQYIAOzsbbn1vxhv/6rt5wsPVKabhse6ZK9OYhj98X4CRUfq/W+VsmkJzXj2Cq/uXeASAFwEAi4SiFEPABJdrAqXFUFA71+qIirCqQsIKI3/yySamCrKUfQFTvnigeQ5P5iyu94jt1Sk+28o7xaSNk1K0W/vJlB4GHcdaBRv7l6osRkwBQI2Ahp6AOQ/pqwGgCgQQACgAE+xqFL3f5x0/0v/dIDLnqVTac4rN/HOuvlaSdw6qhw9PcbYBo092kXR969VpxCeO6BTts/7mSc43uWX2wjr5ARb1icQHZdAsjeAgsizy7WuOYVK/L0oAgDv3WGlabDl67T0nucWqfnQxkU047mruGs8V6tHoy6OobfGxSvZHNSzNH32fFUK0vw/bNPUT+mfD8Yq+YbCIOBtAvLwD4suq+qG8lpCVQd8vbzmP0++jsOj/tdXqS22hlIHgkrVlih7JHkVp/gdQro3oBnYLVrbg/uKQTH0+qNqgYQj2Ot/f4dkwiMEBHyZQHi08vMbPQCKvwAIABQBGiwuT4UYg2VtxWITG6kU9+myaXs309THBpFkzdMpXVpH2rL7SZ5/XXLHleXoybuNDSUU5cPSzx+njZM+LOoSnAMBSxMoGaX0J1DahnTAincYAYAiQIPFGxosZysmu2lFV/TMpikqfppRVhLkTH1sMGUfP6LVfNN64fTbOwkUEa7/v8Rjt1eksTdW0OqvGFvw7j20ZfqX2u3CIAh4gkBwqNIiKHFR2YAn2mnlOvT/tbNya63jm1L3f9kEjh8CcAJgVloKTX5kAJ1I2a31TtZLCrOt4Zc8/2bJ82Mr0fXDlMc8z3ePsx7Of/MO2r1kyvnH8Q0EfIBAcGiYqpfKBlQd8PXyCAC8cweTVKqVXNqBJjmZxzkr3sV0fP82rU2XBD6SyrdCrN4EPoWdlHjtg6eq0NC+RScUKlyuuO8yAXLms1fSgbXzirsU50HAUgRKqM+QNS9itxQp85xBAGAe26IsJxR1srhzpSsrxQ/Fmbfcedkmd9oTw+jojrVafZOH/l+f1KBqlfWm8HXmpKQU/uaVatRf9zbCtm2PL6MjW1c4qxrHQcByBPJOZan6dErVQKCXRwDgnd+AairVRsUlqhT3qbK2bX2fGUUH1y/Q6nfpqCCa+nEiSfe/J0U2FfrpzerUuVWk1mplQuTUcYMpbfdGrXZhDATMIpCbnalqGgGAIkEEAIoADRZXCgAkiUYgiG1b35du0L6tr0z0++P9RGrR0DuTiEvxtsKSMrh5A731Z6en2oZJMg7tDIRfD7TRxwmgB8D7NxABgOfvgbxyKk0JD4gAwDbB7U6S7Hc6RZb4yRu4LPnzppSJDqbJHyZSbd4/QKdkpu6nqY8O4m2EU3SahS0Q0E7gNA/tKQp2yFIEiABAEaCB4vL2b3iheWhENGfQ8v/8F0s+fZQ2T/vMAF7nRWTO0RcvVqUBXaOdX+TBM5V4G+EZn9egBN3bCPNEySn/422EM455sDWoCgTcI5ClvpQXUa57yC+4GgHABUhMP1BZpYaoilVVivtE2VXfP09rfn5Vq68yC/+d8VVoxEDl5CNa/ZIJiFM+rkHly+pdhXB053qeODlUe6ZErY2HsYAlIMNVGrJ4pgYsQE0NRwCgCaQbZpSeQOGl3dudzg2/LHHphj/fp2VfPKHdl2fGVKKbR1iz56R+zTAOAhJJJibqFNkr4e+nR2IbYZ1QYUsLAQ25PKT7X3kZgZbG+LARvX9xfBiEB11XegrJNsD+KttmfUf/vHef9ubdfU15euhmpWkX2n0qbLBVowia8lENiuQJgjpl34rp/26YdDpPp1nYAgElAhoCgD1KDqCwjYDevzaA6goBpUww/jr+v3vxZJr76mjt2/reNDyWXn1EadTFlXuq5ZoOLUrRd7yNsM69CMSxXf/8QfPfuhPbCGu5SzCig0DGoV2qZnaoGkB5IgQAnv8tUOsBKGPtN1kjOFO3r6GZz19N+ZrfUi/pXZrefSLep7ImX9Rd326EBe/Flmmf00qeWwEBASsQSOXdPBUlWbE8ijMBBACe/zUorVKlhj20VarXXjaPs9hNnzCCJNufTunH2fbkbVqy7/majLo4ht4ap38b4RVfTeCESgt9DQf89UMCR7auVG0VegBUCXJ5vVOPNTjk5yZkAmBtlTaWLKUUP6hUbUrZtT+/RmYkrgnm0PbK+/8dJgwrWYLiK4ZSt7aR1KNdFMl3K8mqjdk0ZW4Gbdt1ijIy88+5FsubEx09fvrcd9UPZ87k06IPxtKQ1/VmVVT1C+UDi0BuVgYd37dVtdHrVA2gPAIAs38HpL++K2uXs9qYfyr1ugSFeCZvPftpukia3w2TPjClnkmzMy6w+8KHh215/2VFwJWDlRZjXGDbyIE1m7Pp7gn7afbiTCPFDZU5sm2lrRegUsMOhsqjEAioEjiybZWOuT5rVP1AeQQAun8H5OHeknXAWW3FP5Ue+Fz+PAlS30P7PHve/HJg3XzKOnbIoy7sOZBLV43dQ/+sOmnrZvfWrsq/z0inUWP2UGbWf2/8ngKxY/4vhADAU7RRT2ECGvb1kD8anv3DUbgRfvIdQwDqN1IYdmcdxjqEtSKraaJhD23TfHPX8KEN/7hbRNv173ydSnHlQmjcHabeLof+LluXRSPu3UNZ2Z5/+ItD3uTuEAgOBhSBvcumqbY3mw3I39y5rPrGyFS98sHyWt9OfbD9Rl0Wbj1YP2Q9wCq/0aNZTX+aBIeU5Gr8Q06keHcp71Nvp9DmHZ7dUCyfn/mjH93ntYe//OacOOxd7v7x24tWGCEg6alTNi81UrRgmQT+MpN1L+sbrB1ZrTWxhx3yBUEA4N5dqsGXj2eVJSgzWG9kLc/qMfGnOQC5WSc8xs1RRXmnz9BLHx1xdMq0Y9PmZ9DKDd5NYJaXrXfFhWmwYNjvCOxdOZ1kl09NUontcIILms+6hfUR1iqsEBcJIAAoHlQIXzKUVR748uB/nDWR1StSIijYK/WaUakVVjT8PjPdjKY5tfn7zAsnJzq92KQToRFRJlmGWRAomsC+5dOLvsD42Vpc9GnWXax/sg5kxfONIRQlAOScjszgf5h1O+tPrD1Yvd7NFORHQwAx1eoyUu9KSmoeHdO41K641mze7tkhB0f+WIG7I79wzP8JeGD+ibwhycNfgoDNrPewKmVf5fJ+KwgALry1NfnQe6y7WZ9hrcZqGYmI8Z9MgJUadbIE18PHPJcnPzXNc3U5gxvXoL2zUzgOAqYSOH5AOlE9JtIrINuK7mV9mRXDAwyhoCAA+I9GE/74DatEjTezhrNaSmQjoNLxEp/4h1So05LKVFHKi6QFxJkzWsy4ZMSTdTlzKKnzMGencBwETCMgiai8JDLmNYZVenM/Yq3DCmECCACIGjGHX1lXsY5ktewge1KXYZzX3r9uWdPh9zNyiKcIVG/Tn2JryK88BAQ8S0D+dkXHJXq20vNrkyVUN7BuYP2MNYk1oMW/nibu3Uq5+V+yrmaV9fteH99nH5xKaEQ0NRkmQax/Se0eowhd0p65pzL5r+2Nz3mmMtQCAg4IVG7c2cFRjx+Sl7xrWDexynBvVdaAlEAMAMrxnX6TVW7+layWZyCRc8fbX6eoCpaajsDo1EVWNXR/4DMqFVtZ3RgsOCUgv0Od7nzLEkMuTp3ECb8n0PDiW/lVyzLvWpJXXYZ7ZQnhU6wyVBBQYvmHn8a7Icv57mCVmy0/5eZbXkLCSlGXe9+nWt1HWN5Xow5KYDPw2SkUVbG6URMoVwQBWTnS+e53qGbX4UVchVMgYD6BcjWbUr2+15pfkXs1RPDlj7LKs+F61oB5LgZKQ3vyTZUxfnnzj2W1vASXDKda3D1+yZv/UO2eV1jeX1UHy1StQ5e88Q/V7HKZld4QVJvl9fJlE+rTRc9Pozq9r/a6L3AABIRA2xuft+qwn3RDfsy6mLUVq9+LvBX7s8iaOVn+cZWVGylvaLI2u1xSE4pNbETlazWjCvXaUEhJCUwDR8Kiy1L3Bz+nRpfcSRv+/IB2LfqDcjKPBw4ATS2VbJFxDTpQ3T7X8Fv/ZeRPyaM0IYIZLxKQuSj9n/qdFr47hrbM+Ip4a0AveuOwann4L2KV+QHSM5DG6pfirwGADDLJJI+XWGXM31Iia/nj6renSo062iLhcklNyZ9S/KrCrlCnFXUd08q2ZWj6vm2UmbqfTmUcdWp20YcPUuaRfU7P+9MJmcQXVcHxnKWQ8CiS362Y6vUCLnj0p3scCG0JCY+0DW3WHziatvz9Oe1c+DtlpaVYqekyUfB21qFnf/5iJed0+eKPAYDMlPuEtZcuSKp2pDu/Mie9qdqyt01jqtVTNRkQ5WXimgwNiBYly79+mk8HRgBQtUVvkm59CAj4AwHJBSLa8bbX6eiuDbR/1Uzat2oWHVg7j/KyM63QxErsxM+s37HKvgNHWP1G/C0AkFn9Ms4f4+07JN3Zie0HU2KHwVS5SWeSyXwQEAABEAABBwR4ZUBsYkObNhpyJ53Oyab9q2fbhgF3LZpkhd4BmYXdg/UWVskb4xfiLwGAdPPLeI1XU5yVjCxNiR0voaROl1J8027o1veL/yJoBAiAgKcJSK9ptdb9bNrxjjdJ9hBInv09bZ/3Mw8HHvO0O/b6KvIHGQr4kPVeVkt0UbAfhsUfAoBO3PpvWR0PjBpG42JBjlzjm3TlWdZX8cN/CMZeXcSGy0AABEDAFQIyFFipYUebtr/5JdqzbBptnfE17V4ymfLzcl0xofuam9hgF9ZRrCt0G/ekPV8OAGSi3wOsE1g93g7p4q/X7waq1/96b6e39OTvC+oCARAAAa8RkBVTCe0usunJowdp81+f0ibWzMN7Pe2TbGX6D6ukZ33b05Xrqs/jD05NjkuX/5es/TXZc9lMTNW61HDw7bw2fxTG9V2mhgtBAARAQC+BUrGVqPnIh6nZ5Q/QrsWTaO0vr9uGCvTWUqQ12VvgLdb2rJJR0OeGBHwxAGjIoCey1mT1mMhM1eYjHibZTMVCqSw91n5UBAIgAAJWJCB5LhLbD7LpoY2LaM3Pr9Junjjowd0HJVNbU9ZLWbdakZEzn3wtABjADfmGtYyzBuk+XrFeW2o2fCwe/LrBwh4IgAAIaCYQV78d9X70e0rbs4lW/fCSbeLgmfzTmmtxaK4RH13MehnrDIdXWPCgL6UCfoT5/cHqkYe/LEnp+8RvNOjlWVS9Lccd1tnAwoK/RnAJBEAABKxDQHKtdLvvI1t68YT2F3vq73dZJjCV9VbrkCjaE1/oARAfZYnfDUU3Rc/ZyPJVqOWVj9ny7yOFqh6msAICIAAC3iAQW6ORrUcgZdNikoyhKZuWmO2GPK/eYa3PKksFPdL9wPUYEqsHAFHcqh9YeeDdXJF1p02GjqGml43B5D5zUcM6CIAACHiUgAzlDnppFiXP+4mWfvoYnUjZbXb9kjUwnlWS02WbXZlR+1YeAojjRs1mNf3hX611Xxr69lJ+838UD3+jv0koBwIgAAJWJsDDuLLb6LD3V/LKgQc5UZtM4jdVhrL1v1hlaMCSYtUAQJL6zGFtaSa1UrGVqdej31Hf8b9S6XiPLiows1mwDQIgAAIg4ISA7LLa6urH6dK3FlHlxp2dXKXtsCQMmstaSZtFjYasGADUOAtMEi2YJrV7XkFD311uWzpiWiUwDAIgAAIgYEkCMlFw4LNTqdOdb1NoRLSZPsoKAXmh9U622iJaZrUAQB76Ei1JEGCKyFt/n8d/5u1mP6SwKK/vGWRKG2EUBEAABEDABQI8LFCv33V06dtLeNO2ri4UMHxJHS5p6rPNiGdWCgBqcwNmsZoWJclyPrnRtmQ+RmihDAiAAAiAgN8RiI5LoIHPTCbZa0AmhJsk8mIrPQGmveC667dVAoDq7Pg01sruNsCV64NDw6jd6Bepz2M/UnhpySIMAQEQAAEQAIECBLg3oOGg22jIawuobEKDAie0fqzG1mazJmi1atCYFQKAKuy7vPknGmxDkcVkct+gV+ZQI87fj2Q+RaLCSRAAARAIeAJlE+pzArjZVKuHbPZnisgLr6wOkJVuXhVvBwDlufWSNjHJDApVW/amwa/Oo3JJTcwwD5sgAAIgAAJ+SCA0IsqWSbDjba+btVxQ5rv9zerVJYLeDAAiuPETWfXP9ueunKbD7uPlfb9goh8DhoAACIAACLhPoP7Am3ilwBSKKGvKy3pj9kiegaZNOiiuxd4KAILZsW9ZOxTnoLvnZQJH9wc+o9bXPUVI5esuPVwPAiAAAiBQkEBcg/Y0hHuSy9dsVvCwrs+SiOBLVq88i71SKTf2DdbBrFolLDqW+k/405btSathGAMBEAABEAhYApEVqtLA56eRZI01QYaxzVdNsFusSW8EAPewV7cV65mbF5SunGTbua9SQ+2dCm56gstBAARAAAT8jYDMC+jNK8nq9bvejKbdxUa1PxeLc9TTmwH1ZodeLM4pd8/LJL9+T/1BETEV3C2K60EABFwgkJ+XS2l7t9CpjKOUfzrXYQkPbLDisF5vHMzLzqR9q2Y6rTokrBSViq1E0XGJTq/BCd8jEBQcwpkD36LI8vG0/KsJuhvwGhvcxOr8F0tzjZ4MAGqx79+xaq2zYr021PeJ3zDZT/MvBsyBwJkz+bRzwW+0edrndHDtfMrLyQKUswQk2Jnyv4uK5SGTxxJ5P/r6A26i2Boy5wviDwSaj3yE0weXpkUfPUh05oyuJoWyoR9Z27Ju02W0KDtaH8ZFVFSaz8lsx9girnH7lKRu7DPuR74RsmswBARAQBeBI1tX0Lw3bqPU7Wt0mQxIO1nHDtHGyR/RpimfkOw/IgnJSkbKn0OIrxNoNOQOCgmPpAVv3ckxQL6u5sgz8lfWdqyZuow6s+OpOQCfsANaUyvFN+vOb/6/4OHv7M7iOAgYJLB1xtf0x9ieePgb5OeomDwgtkz/kn67pyOlH9ju6BIc80ECso9Al3vf4xxzWh+lsnnQO57AodVrJw5zCj6SfZG1SaWGHTmt7w8k2zpCQAAE9BHYPvcnmvvqzXQ695Q+o7B0jkD6/mSa/HB/Onn0wLlj+ODbBGr3vJI63sEL2zj/jEa5mm3dpNGeQ1NmBwDNudaXHdZs8GDFuq05wc/Ptq4XgyZQDARAwAGB4/u22rr9NXZnOqgFh04c3kOzXrxeZ7cxoHqZgKwMaM/DO5qFowqSZ6hpYmYAIBssf88apst72aCh31O/U2gpjKHpYgo7IGAnsPjjhyk364T9K36aSODAmjmUPPsHE2uAaU8TkI2EWl75mM5qJUOgJMwrpdNoQVtmBgBvc0Wyxa8WiSxfhfo9OZEn0JTRYg9GQAAE/iNwdOd62r148n8H8Ml0Aqt+0P7GaLrPqKBoAs1HPqw7T0BdrtG0XxSzAoAh7PRVRaNy/aw89OXhL0EABARAQD+B5FmyQte7UoK0jqEW2RjP1eTcjbTdG+nojnXOL8AZnyTQ8fbXKaHtQJ2+38rG+us0aLdlRgAg2Xjes1eg+jMoJJR6P/qdmfszq7qI8iDg8wQOrJvv9TaUD9c2WlhsW8p5sK6inDm4YWFRp3HOBwnIHjTdH/ycytfSNnwv8aqspJPdc7WKGQGALF/QtnVS+5tfJlnvDwEBEDCPQNqejeYZd9FynRiZNuQZieUAwApBQNoeSfwG8TcCkgmyN69U07iLYCVmJJMCtYruAOBy9k42NtAishVj/QE3arEFIyAAAk4IcCaz3JPen/x3UUJVJw7qPyyvVAMTvD+kaAXu+unCohCQIWvpvQ4O1dazNZLNDtBJV2cAILPzJJexFqncuDMvq3hJiy0YAQEQKIIAr18ODvNuTo2m5ctSn2qVi3BS/6kxTetTsN612247GRLuXe5uO4wCbhGoWK8tdbhN60Z/0sOuLfWtzgBgAjsm3RTKIt0mPR76kmT8HwICIGA+gaiK1c2vxEkNYcFB9G6XNhTk4Ydxo9gYur+Z1gSlTlro/HBUec/1ejj3AmfMJFC3z7WcBvpKXVUksCF51moRXQFAK/ZGZioqi20CxdhPeWe/isq2YAAEQMA1ApUatHPtQs1XRYQE05c9O1KbitrnN7nk6VNtmtI1dZNcutaMi+IatDfDLGxajEBH7gUom1Bfl1d3sCEtMwx1BADB7My7rPJTWZqPfIjim3ZTtgMDIAACrhOo0fES1y/WdGX7ShVo3pC+dGmS93ofpNfh4+7tuQeiLVWMkLwrnpNSsZWpYn3vBF6eayVqEgKyaVDPh74imRyoQeRZ+zqr8mrWEA3OXMM2pAdAWWTcv/mIh5TtwAAIgIB7BKo072l7Qzm2S+9qgDIlQ6lVxXLnnInjh2xS6WgakBDvtbf+c84U+HBTg1o0qk4iTd29n+btT6HdJzIpMy/PdkV23mlacPBwgav1fJRJzrK/PCQwCMRUr09trn+aFr57r44Gd2Yjw1m/VzGm+tsXyZU/peKAvayk9+1y7wckQwAQEAABDxPgN2GZdDv50Yt07m9O6Tm5NKp2Da92s7tKMjIkhIZyb4SoXfLyz9DwaXPtX7X9jI5LoMaX3KXNHgz5BoEGA0dzxs1JtHfFdB0Ov8BG/mA9adSY6hDA/VxxvNHKC5Zrd9NzJP8pICAAAt4hIFtsNxv+gNbKz7C10bMX0W879mi16wlj+bw88sbZ/9DvO/dqrS64ZLhtkrOm7mCtvsGYyQQ40O58z3sUFl1WR0USqcoz2LCoBADy4B9ruOYCBau36U8yUxICAiDgXQItr3qManaTdB765DQ/SK+YPp9m7D2oz6gHLI1ZsJy+2rJDa03Sw9ntvo+oQh0to6ZafYMxzxCILBdP7W6Sl3ctch9b+W+MzU2TKgHAeK5LhgCURLr+O97xppINFAYBENBDoESJIOrKQ3ESlOuUU6fzaehfc2hJyhGdZk2zNX7pGnpr3Wa99vntrxP/ravR6VK9dmHN5wjU7jGKpMdNg8jWuIYnzhkNAKSv/hoNzlOrqx8niYggIAAC1iAg+Td6PPwVyaRcnXIiN4/6/zmTVh85ptOsdlvy4J+wfK12u22um0B1+16r3S4M+iABGQq46x3b6gAN3suyQEMJJYwGAP/jCkuqOl6+dguSSREQEAABaxEIKRlBfcb9qHNDE1sDj/OkwIsmz6Lk9BPWavBZbz7dlEz3zl+m3bdmlz9ITYZqmf2t3TcY9A4BmfPWbLiWUXRZv/qokVYYCQASuaJrjVRWsIyMhUl3GGb9F6SCzyBgHQIyPCfbcMdUlS3J9cmBk1ncEzCD9mdm6TOqwdIv23fTLXMWk0xc1CnykiM9nRAQKEyg8aV3U3SlGoUPG/l+HRdye3MLIwHAI1yRco7eOr2v0v52YYQayoAACDgnEF6mPPV/+k/SnSp4O/cA9J80k46eynFeuQfPTN97gK6cvoBkwqJOqdV9BLW/9RWdJmHLjwjIRkFtb3xWR4ukR14mBLol7gYAMlivPPYfGhFNLa8c55ajuBgEQMA7BGRXswFPT9K5tamtIeuPptFADgIycnO907CztcrExGF/zaWc/HytflRvO4C63PM+ycRKCAg4I5DYfhBVadHL2Wl3jst4enl3Crj7m3k7G1ce+282/H4qFVvJHT9xLQiAgBcJlI6vaRsOKBkpm37qk6UpqTR06lw6dfq0PqNuWFqbKkHILJIJijqlcuMu2NBMJ1A/t9Xm2qc4sa9yZl9ZlScTAl0WdwIASWJ8s8uWnVwYVaEaNRpyp5OzOAwCIGBVAuWSmlDf8b/oymd+rpkz9x3kPAELSLLueVK2Hs+wDUMc0zwMIZOb+4z7gWQiJQQEXCFQrmZTStKzPFRe0l3e1MKdAEAmGRhOOGCH0GzEgySZsCAgAAK+R0B2r+vNDzcZu9QpkinwBs66J9n3PCH7Mk/aJiIe5AmJOqVMldq2IEkmUEJAwB0CLa8ap2NvCBkCGOlqva4GANI3oZy4Ojouker0uspV33AdCICABQlUadaDunI2O90reL7mrHv3L1xheouPZJ+ifpyPYGdGpta6ZFnXgGenYCtzrVQDx5gEj7U4QZAGkV4Al8TVAKAHW6vjksUiLpKtfiXJCAQEQMC3CSR1HsoT3N7VMW55Hog31m6iJ5fpT8Jjr0Q2J5Ix/43HjtsPafkZEVPBNkcCSc204AxYI80uf0BHYN2SAbZ3BaKrAcCNrhgr6hpZ66gpuimqGpwDARDwEIHaPa8kyW6nW55cZkIaXnYyi7f1HTJ1Ni0/nKrV5bCoGOo/YRKVqar8jqTVLxjzPQKlKydRjY5DdDh+mytGXAkAZNxf2SNJeIC9r125JbgGBHyHgGS3a6onm9l5jZZsfJ9wVj5dkstL/Eb8PY/m7k/RZdJmR3b06z3uJ4qt0UirXRgLXALSC6BhRcAwJhhTHEVXAgAZtFeatRcWHctj/1cW5wvOgwAI+CCB1lePp/oDlDsJz2u5TAW8be5iLVvxysTC62f9Q5N27TuvDtUvMhGy92PfU6WGHVRNoTwInCMQW6MxyTwbRZFn9vDibLgSANxQnJHizje46GbtS4eKqxPnQQAEPESA1y93uO01qtm12L83bjkkywJH/T2fZu875Fa5whffNX8pfbt1Z+HDSt9lAmT3Bz6jKs17KtlBYRBwRKDhIJd68B0VLXjs2oJfHH0uLgBozIWU+rYkSm5w0S2O6sYxEAABPyFg20Z4zIdUrXVfrS3K5gRBl0ydQ8s4YZAReXTxKnpv/VYjRZ2Xse3k9jYldhjs/BqcAQEFAvL/SMMeATIRsG5RbhQXAIwoqrAr5yTNocyQhYAACPg3AVnh0/ORb7hLvKPWhkqq4IG8g+AGN2fuv7hqAz23cr1WX8RYuxufozq9r9ZuFwZBwE5AAuoGA2+yf1X5eUVRhYsKAGTtv3IAUG+A8ghCUf7jHAiAgIUI2LYRfvxnKl+zmVavUnntfn9eu78jw7VthD/auI0eWbRSqw9irPnIR5DJVDtVGHREoE7va3Qk3JLJgE6lqACgLZdKclrShROyLKZyo84uXIlLQAAE/IVAyUjeRnjCHxRTrZ7WJkn2vn5/zCDZTrgo+ZWzCt4+d4n+bX15LlPLKw1tu16UuzgHAg4JhEWXpeptBzo858bB+nxtQ2fXFxUADHVWyNXj9fpy9mD1DQ5crQ7XgQAIWIRAeOly1P+p30n2/tApybyN8ADeQdBZ/v6pu/fTFTxxUPu2vpyhrcMt2NZX572EreIJaFo95/RZXlQAcFHx7jm/QmbJ1uymd1aw89pwBgRAwGoEIitUpf5P/6l9DpDs4HcxzwnIzDt/B78FBw/T8GnztG/rm9DuIs56+B5eZqz2CxYA/sg2wRp2znU7AKjFbJX67+KbdGXHKwfALUITQQAEnBGQ/Ob9nvydZFhApyw6dMS2jXAOJ/gRWXXkGA3ioOBkoaBAtc74pt2ox4NfIImZKkiUN0RAkucldbnMUNkChZrw5+oFvp/76KwH4OJzVxj8ULP75QZLohgIgIA/EZCtTiUICAmP1Nqs6XsP0Eju7pe8/gN5WOA45/nXKRXqtLIl+sHupTqpwpa7BDSlBu7nqF5nAcAARxe7ekz+w9TAGllXceE6ZgsK0gAAP3pJREFUEPB7AhXrtaGeD3/Nm4GV1NrWiTzhr+WPk+lQVrZWu2UTGnDQ8huFRkRrtQtjIOAugYr12+roTXcYAIQ4cCaCjylN3ZduM+yH7YAsDlmSwD8rT9KeA3rfHp019MTJf7usnZ335+PVWvWhbryN8KwXrqUzZ/RxsA8D6GInCVj68yoGSWEOAQFvE5CcAIkdB9OGP3geinGRlJWyFe95f+gcBQCSPSjMeD1ECepLF1SqR9kAI1BCcaXJdQ/t9RliJYIkPYfvSlKXYZRzMp3mv3UncRRguYbIvKUBPHER85csd2sC2iGZiKoYAMgkHHm2zy0I0tEQQLeCF7j9mf8YV2vT3+1iKAACRgnIjmyBIv7QJV2v3/XU7qYXLHfLSkaWob5P/KojBavl2gaHfJtA5UadeDgqSrURXQobcBQAdC18kTvfK9RuQZHl4t0pgmtBQIlAqXKBsdpEZgT7S1rtRoNvp6bD7lO67zoLyx/Xfpy3oFySTJiGgIC1CMjcmcqNlUbmpUEXGCgcAMj4v2QANCxVmvcyXBYFQcAIgbLV6xsp5nNloisnaZ9E500Ira99kur1936q8H+39f2BKtZt7U0cqBsEiiRQtWWfIs+7cFKGAM4b9i8cALTkC5TG/+ObKnUguNAGXAIC5xOoxN1jgSDSDehXwsOFHW9/ndc5F5mu3NQmS6+KrPOXicsQELAygSrNuqu6J0tamhY0UjgAaFXwpLufZfmfLFmAgIAnCciDMSwqxpNVeqWuBN5Z099EZjjLygBZIeBx4QCk893vUkL7iz1eNSoEAXcJSFItDUOAHQrWWzgAkB4Aw1KxXluS3cAgIOBJAhJ41u55pSer9Hhd0XGJVKV5D4/X64kKZXzz322Ez/vbZHrV7Ue/yL83Re6WaroPqAAEXCbAAWtcA+X/Iy0K1lc4AFDqAdC9D3hBR/EZBIoi0HT4WL9O2tLq6sf9Oh2trOTo8/gvJFkDPSGyq1/DQbd5oirUAQLaCFRqaF4AIOsE66h4WrGuUvygUjXKBjgB6RprMvQev6RQvmYzSuqqnA/c8mxs2whzymDp6jRTGg2+g5qPfMTMKmAbBEwhULF+O1W7MmM63G6kYA9AYz5Y8Lv9Gpd/lq+tNILgcj24EAQcEWgybAzFqf8HcWTaa8dk3X/X+z7mXbWV/mt6zX93K5ZATnYQlJ0EzZA6va7iHATPm2EaNkHAdAKxNRqp9gRKNkB51tuk4F8Vpd3/oipW1zFBwe4XfoKA2wRkOVevR7/Tvge9245oKmCbIDf2EyqbEBjLHO3YoipUowET9G8jnMj7k3S++x1s62sHjZ8+R0Dm2JWpqtRRL21uZG94wQBA6a+MJACCgIC3CUTEVLRt4iKT5nxZZGKcPKwCNa22/JHr++REzsdfVsttrMr7qnd/4DMqERSsxR6MgIC3CJTjIUFFqWsvXzAAUOoBKJvQ0G4TP0HAqwRiODHQ4Nfmka/mB5Bu8AHPTKY6va/2KkdvVy5zHwa9NEs5Na+sEOnz+M8kPUQQEPB1AhqyVZ7rQtAWAMRUV4offP2ewH+LEQgvXY43dZlE7W95mcLLlLeYd47dkaQ0kif/0reWkIbZvo4r8bGj0hMw+JU5/yYL4mVQ7ohMKpQ9B7re+z5nUJShTwgI+D6BGPUhgHMBgP1/lKQHlA21DfePXfr2UopNRC+A7/96+V8Lcnn3uXUT36Ytf39BGYd2Wa6Bkoc+scMQanrZGIqphkDa2Q1K2bSEVn77DO1bNZvy83KcXUYS/NXsdjk1H/GQzwR/ThuDEyBQiMDx/dvox5uU9qw4xSYjWU/bA4Dq/MXwX0Z5c7nm58PoYit0o/DVYgR4+9mjuzbQofUL6fi+LXTy6EHKzT5B+bnnbZFtutMlOWthWFQZktz+FXjljKxckGRGENcI5GSm055lUyltzxbKTN1HEuBFlI2jUmUrcaKUdtx70hFj/a6hxFU+SCD/dB59dmk5DoKV/m5V46bvtW8MoLTmJrJ8FTz8ffAXKeBc5i5k6aVCT5Vv33np2q/ZdbhvNwLeg4BBAvLCLZOcj+/batCCrVgV/nevfQ6A9AAYFlkCCAEBEAABEAABEDCfgCyVVRTbS789AFDsAVAqrtgOFAcBEAABEACBwCFQqly8amOlB+Bc5r9KKtbMytql4hPKggAIgAAIgIA/EpBhd0U5LwCIVTEWqR6NqFSPsiAAAiAAAiAQMAQ0PHNta6PtQwBKAYAsu4GAAAiAAAiAAAiYT0BDbpMY8dIeACjl29SVrtN8bKgBBEAABEAABHybQEleRqwotme+PQBQ6gEIi1YqrtgOFAcBEAABEACBwCEQFqX0zi6gzusBKK2CLowTm0BAAARAAARAAATMJ1AyUrkH4LwAoKSKyyHhUSrFURYEQAAEQAAEQMBFAqER0S5e6fQyW+pR+xCAUgAQHKpU3KmHOAECIAACIAACIHA+AQ3PXNvuWFoCAOy0df7NwTcQAAEQAAEQMIuApANWFNtbu92K/achm0HBgbvVZnZ6qm0zkpyTGXQm/7QhfigEAiAAAiDgGoESQcFUslQ0hZYqbdv50bVS/nVVUIhyr7vOAEApfvCZOyPbMB5YM5cOrptPabs3URpvxpCXnekz/sNREAABEPAnArKVdpn4WhRTvT5VatSJ4pt0odLxNf2piQ7boqEHwPbQtm8HLE+xUg5rcuHg9RPTSENE4kJNnr/kRMpu2jrzG9o281vV3Zc87zxqBAEQAIEAI1Cmah2q3WMk1eo+kvx1o7r8vBz6ZLDS6ruT/GsRaQ8AjvIXwwsLr/kphSQS8yc5unM9rfn5VUqe/T269v3pxqItIAACAUGgRIkgqta6L7UY9T8qX7uFX7U592Q6fX6Z0hY+qQykvL3vPou/GA4ATuee8psAIDN1Py3+8EHaPv8XojNn/OqXBo0BARAAgUAhcOZMPu1eMoV2L51KNTsPo7Y3PUelYiv7RfNP5+aotiNbDNhXAdi+GLV4OkepuNFq9Zbjh/36P96ln25uTtvn/YyHv166sAYCIAAC3iHAf9uT5/5IP/Lf9g1/vu8Xf9s1PHP1BQAyHuHLkpOZTjOeu5L+ee8+ys3K8OWmwHcQAAEQAAEHBKTbfOG799LfTw2nUxnHHFzhO4fycpVfuqXX/1wPgO2L0ebnZvnuTHiZ2f/rXe1px/xfjTYf5UAABEAABHyEwK7Fk2jivZ0p/cB2H/H4QjfzsmUOn5KcFwAohRPZxw8reeKtwke2raQ/x/akjIM7vOUC6gUBEAABEPAwAXn4/3F/DzqSvMrDNeupTsMz97whgDQVt7LSUlSKe6WszPKf8r+BlJXmm8GLV6ChUhAAARDwEwLy3JJnwLFdG32uRRqeubZnvn0S4AEVAr72EM04tJOmPjaITp1QintUkKEsCIAACICAlwnIXICp4wbRicN7vOyJe9VreObanvl6AgAfGgKQJYsznh5FJ48qxTzu3S1cDQIgAAIgYEkCmUf20fQJI0ieDb4iGnoA9ktbtQQA2T7Ujb7og7E+O+7jK7+c8BMEQAAEfImAzAdb8vEjPuOyhmeuvh4AX+k+2btiOm2c/JHP3GQ4CgIgAAIg4BkCkgdm/6pZnqlMsZYTR/YqWqCDYkBLD0A6L6Wzukj3zj/v3291N+EfCIAACICAlwgsePtunxgKOM4b0SmKviGAEyl7SENmIsX2FF183cS36PjeLUVfhLMgAAIgAAIBS0Dywmz44z1Ltz8vJ4tOHrE9v1X8tPUA2PcCkC+ymX2wEYuSczn9wA4qm1DfSHHTy+SdOknrfn3DtHrCwiOodNlYKhkWblodMAwCIAACIECUcyqbjh9LpZxspfQ1TlGu+eU1qn/RaAopGeH0Gm+eSN+/nbepyVdxIY8LnxcASC5fSYtU26hVGQawagCw+a/PtK/3r92wKTVu05HqNWtN0WVijGJDORAAARAAAQMEMo6n0caVS2jNkgWUvGGNAQuOi2QdO0Rb/vqcGlx8i+MLvHxUw5C7jNlLEED2HgD5vIHVcACgYUxCfDBFNk75WJvdqjVq0cCR11FinQbabMIQCIAACICAewTkxatNtz423b5pHU369lPav0tPet9NUz+2bACgYSj7XOYj+yRAIS8BgGFJTV5tuKyZBQ9vWU5pu8+1V6mq1l170y3/exYPfyWKKAwCIAACegkk1WtEtz32PLXq3FOLYckUm7pdX6+CFqfOGtGQvni93R9tAcDhbSvsNi31c/u8n7T402PQcLr0utsoOKRgp4kW0zACAiAAAiCgSED+Ng+94Q7q0n+IoqV/i2+f86MWO7qNHNm6UtXkuTfiggHAuYNGrMvmCqcyjhopamoZHes6G7XuQL0uGWGqnzAOAiAAAiCgTqDf8KupfvM2yob2rbZeToDs9FSSVPaKcq63v3AAYHxq4ZkzJNmUrCSS5/nojnVKLkVGl6ah199OJUqUULKDwiAAAiAAAuYTkL/V8jc7PKKUUmUyrG21/WKObFXuaZdn/GY7mIIBwEk+uMt+wshPDc4ZqdZpmSM8LKG4XIKk61/1F8mpgzgBAiAAAiCgnYC8uHUZcImS3TP5pynVYi+18kxTFJklmWW3UTAAkGNL7CeM/Dy0abGRYqaVOb5XLVtSaMmS1KqLnkklpjUShkEABEAABC4g0LZHPwoKNpTa5pytNPWMe+ds6fhwaOMiVTNLCxooHAAsLHjS3c8H1s6n/NO25YXuFjXletWlibUaNkNyH1PuDIyCAAiAgLkESkVGKa/YSrdQAJCfl0sH1y1QhXaegcIBwHkn3a0p92Q6Hd6yzN1ipl0vEyZUJKluQ5XiKAsCIAACIOBFAjXqquVrUX2G6Gx6yuallJt1QtXkec/4wgHAKraeoVKDjln3KvUXLJubpdQUW3rfgvbwGQRAAARAwHcIlClbTsnZ3JNqzxClygsV1vBsTWeTawuaLRwAyH4ASvMA9lloO8XcbJnXaFyikOLXODyUBAEQAAEvE4guU1bJgxz1N26l+gsW3rdqZsGvRj7LJD15xp+TwgGAnDivi+DclS5+SNm0REc3hYu1FXOZ2oYJFBSkNoGkGO9wGgRAAARAwEQCqpMASfEZoqtpmobXL3i2aw8A8vNyaM+yv3S1G3ZAAARAAARAIKAJ7F4yhWQSoKLML1zeUQAgF51bJ1i4gCvfdy74zZXLcA0IgAAIgAAIgEAxBHaoP1Plmf5P4WocBQAycD678IXufJdoJe+U2vi7O/XhWhAAARAAARDwRwLyLN27Yrpq02awgQseyo4CAKnoT5XaxOF9K6Q+CAiAAAiAAAiAgFECe5ZNo7zsTKPF7eX+sH8o+NNZACAXnyl4obufNXRZuFslrgcBEAABEAABvyKgYUhdnuWTHUFxFgDs4YvPWy/oqHBRx3Yt+oNXA2QUdQnOgQAIgAAIgAAIOCEgiX9kSF1RZJe+vY5sOAsA5FqlYQBxfMe8XxzViWMgAAIgAAIgAALFEEie84OOF2mH3f9StWkBgBjfPO1z+QEBARAAARAAARBwk8Dmvz5zs4TDy52+zBcVAEjWIBkKMCyyc1Ha7o2Gy6MgCIAACIAACAQigaM71+vYW2cns1vujF9RAUA+F/rKWUFXj2/++wtXL8V1IAACIAACIAACTGDLtM90cPiSjTid0F9UACCVKz+9t07/ivJylPIK6YAAGyAAAiAAAiDgEwRk2d/Wmd+o+ioPfgkAnEpxAcAmLqm0OZBsp7j1b+WOBKcNwAkQAAEQAAEQ8CcC0nN+KuOYapMk89/WoowUFwBI2SIjiKKM28+t+eU13lPhvE2I7KfwEwRAAARAAARA4CwBeVaun/i2Dh7F9uC7EgBIP8QpFW8yDu6gXYucTkRUMY2yIAACIAACIOA3BHYunEjpB7artieHDfxUnBFXAoCjbMRhFqHijBc8v/rHlwt+xWcQAAEQAAEQAIFCBNb++kahI4a+TuRSqcWVdCUAEBvvFWeouPOHtyyjg+tko0EICIAACIAACIBAYQIH1s6jlE1K0+7sJt+3fyjqp6sBwDQ2sqYoQ66cW/r5465chmtAAARAAARAIOAIrPh6go42Sxr/ma4YcjUAEFtvumKwqGsObfiH9i7/u6hLcA4EQAAEQAAEAo7AnqVTSXoANIiMtztd+1/QvjsBgKwGOFSwsJHPy74Yz6655JsR8ygDAiAAAiAAAr5FgJ+Jy758QofPKWzke1cNhbh6IV8nKwFkXGGcG2UuuPTItpUkWwXX6HTJBedwoGgCe5K30IYVi2nbhjV0/FgqnTieRiXDI6hM2ViKr55E9Vu0oXpNWvKx8KINeehsyv69tH75ItqydiUdO3LI5m9QcAiViS1HFeOrUv3mbagBa6moaA95VHQ16cx0/YoltGnVUjp8cD9lpPH8V45Vo8rEUIVK8VS3aStq2LItxZSrULQhnAUBEAABNwhsn/czpSavdqOE00tl/WC207OFTrgTAEjRd1kfZA2TL0ZFIp2EdgMpKKSkURMBVW43P/in/vAF7di8/oJ2n8o6SSmi/LBdtWguRUaXph6Dh1Pbbn0pOMTd23uBeUMHjvDD86+fvrI9/M8U6u05ffo0yXnRDfyw/SMsnDr3G0Sd+w+hMA5mvCGZGek0Y+L3tGT2NDqdl3eBC2mph0l06/rVNPn7z6h1l17Uc8gIiubAAAICIAACKgTy83Jo+ZdPqpiwl5UHvzyjXRZ3hgDE6EFW5fyEx/duoXV6Eh243FBfvFAenjMm/kDvTXjI4cPfUZvkYfbHVx/R+8/+j99glTNJOaqiyGMrF86h1x+7h9Yt+4dHeoof6sk5lW1r45vjxtChfbuLtG3GyZ1bNtJr/7uL/pk+2eHDv3Cd+RzALJ71l63M9o0y1wYCAiAAAsYJyLK/4/u3GTfwX0kZpj/839fiPxl5RXyazV7JGlq8eedXrPz2OarZ7XKKLBfv/KIAPiMPz58+epNWLJhliIIMF7z1xFga/fAEKlexkiEb7haaPekX+utHY4kjU1MO0rsTHqbrxjxGCbXruVu1oetleOLbd1926cFfuIKTJzLok5eeoMtG30NN23YqfBrfHRA4kX6cUlMOUO4ppbxiDizjkCcJhJeKpPI8JBYeUcqT1fplXZlH9tHK757X0TZJ/POMu4aMBADJXMmnrKPdrazg9blZGbTk40eo+wOfFTyMz2cJSJe00Ye/HaKMaX/x2jN022PPUZjJ/1nXLl1I07jbX0VkOOOrN5+j28a9QGXLV1QxVWzZfTuT6fv3XzP08Lcbl+GMnz56w+Zr9Zp17IfxswABCWTXLJ5P8//6nYS5K71CBYrjo0UJBAUHU1K9RtT9oqGUVL+xRb20vluLP3qIZOMfDfIR29jprh13hwDs9p/iDy5PNLAXKvwzee6PupY9FDbt0993bd1EM7nrX4ek7N9Df37ziQ5TTm3IUMNPH7+p5Y+7vCX+8MFrTuvScULG+b95+0XKzVF/E83LzaVv33mJ5CfkfAJZmSfoU+4l+e69V2jvjm1afj/OrwHfvEVAhsK28ZyYD58fR79+9q5SIO2tNni73v2rZ5NM/tMgWWxDeubdFqMBwF6u6T23aytcgN8OFrxzD53OUY4lClv26e9Tvv9c6x9L6Uk4uHeXaUyktyInW989lHF5mSBoliyaOZWOHlZe0XrOPZkguHD6pHPf8YE4uMqxDZHIxEmIfxOQybM/fPi61r9Z/k2MKC8nixa+c6+uZr7DhvYbMWY0AJC6nmVV7rtI272Rln8lHQoQISBv/7u2bdIKIz8/n+ZP/V2rTbsxectbNne6/au2n3On/KrNVkFD0gU9b+rEgoe0fJ7PNtG9/R/KKbxaQt76IYFBQIZ5JBCAuEZg+RdPUNreza5dXPRVGXza8CQClQBAEg68XrRvrp2VWZApmxa7drGfX7We1/mbIRt5bbt02+mWTauXk4yF65bd2zbTifQ03WZt49DHjx7RbjeDczLsTtbyH1q7b542eIx7V/Aw8DR179c3/dfvKC8PQ2HF3YmD6xfSut/eKu4yV8/LeKlbM/8LGlYJAMTOi6wSCCiJ7H8859Wbbd0iSob8oHAyJ/kxQ2TW+v7dO7SbNstfeZtO3qB/mZ0kUTJLtq03z7ZZPpthdy0vATUjKDTDV9jUR0ACdjP+z+rz0PuWZMLf3Ndu5t7CfB3OyDimpP01LKoBgLyiPWS49gIFJTfAss/HFzgSmB/NeDu1kzTDtmQkNEtkbF23pJvw9m/30Qy+dtu+9FN6byCBSQD3vuj7vvSzcZS+XxbSaZEH2MpxFUuqAYDU/RnrQvmgKusmvkV7lv6lasZny0sXvbypmyVmJAaSdMRmiXSr6xYzbNp9tKUOtn8J4J9m/k4EMFafaHrGcc8nH/MJMOzk7sWTaf2f7+lydx4bMpZ0pYAHOgIASfd2C2teAbvGPnK37+yXrqOMQ+bNWDfmmGdKydra0JJKWZaLdFQSeOgWM/cdCC9VSre7puZDCI/Qz1c7AA8YDIuI8EAtqMKKBJAcyPFdyTy8l4e5OXUOP+M0iDxr72RVNqYjAJD2yGDt+/JBVU6dSKNZL1xD+QE6mcTM/PLRMWVVb88F5UvHxF5wTNeB6DJm+Kvfpr290bwpE4SofByyewbq74FkCIScT0By/U9/ZhSdyuDNxfTIm2xmtQ5TugIA8eVRVuUJgWIoZdMSWvKpmAs8iU9IMqXR0rtQuVqidttm+SuOVkms6Vv+mnTvtEMw2WC95q1NrgHmrUigRIkSVK9pSyu65lWflnzyPzq8ZZkuHw6wofG6jOkMAGTA9n5djsl8AE1ZknS55BE7DVq0NaUeya9vxra7sp2vGSJbBpsRANRp1JxCQpW2sXDY3GAOsOo2aeHwXKAdrNWgiSn3LtA4+lp7m3foRqXLlvM1t031V7Ldrvtd8vRok3vZUrouazoDAPFJJiX8psU5HiuZ+8ponZGTFrfMNlK/WStTHtQtO/UwxfW4qtVN+WPfomN3kjcK3SJzFhq1aq/bLEngZsYcC+2OesCg3LdLrr2V57OU9EBtqMIKBOTB32/41VZwxTI+SE/2vFd5epyecX9p14+s3+tsoO4AQHy7mVXLUICkS5z25GV04vAenW22tC3ZtKf7RcO0+igPaYnOzZK+l12l1bT0VHQZcIlWmwWN9b50FAWHGNkHq6CV/z7L23+foVf8dwCfbEHhyFvvo5Jh4aDh5wRkbtE19zxCZs5f8jWEJ1J2099PDdeZ20a6/m/VzcGMAEAe/jzdUY9kHTtE054YSrJ7YKBIu179qWqNWlqaKw+nIVffTEFBZtzqf12s3bApNW3XWYu/YuSiUdebutVobIU46jFouDZ/uw4catseVZtBPzFUn4eHbn30WapRt6GftAjNKEhAenqatOlIdzz+Ipk5F6hgnb7wOfdkOv01/lLKStPyHixNltn+N7BqT7qi7zVI3PxPJvLHT1mv+++Q8U9Hd6yjmc9fQ70f+4GCgs1y2bh/ukuGhITSVXc9RG8/8QClp6nNHB101WhKrNNAt4sX2Bt6/R105OB+W6rdC066caBz/yGm9lbYXel+8TA6xBskrVmywH7I0E/p+u91yQhDZQOhUCWeeDr64Qm2fQE2c9ro1JSDthTP2DfBN+++vFBElY4h6VWUAK98XGXfbIhJXsvqtRnPXUXHdm3QWcMHbGyKToN2W2Y+Te/iSrqwapnKvWfpVJrL6YK73vchjw2b9zZrB+PtnzKmNvqRp+mL154h2dLXXZFZ/wNHXkdtuvVxt6ih62W89/qx4+mbt16g5I1r3bYhbxPS7d932JVulzVSQOobPvoeWxf1snkzjJigJm070bAb7jRlroIhhyxcSHq0dPVqWbiZcC2ACUh63zmv3ER7l/+tk8J2NjZWp8GCtoILftH8OYftrWKVmSFanthHd64jGRKo3ro/8V/dYt3dOv0rkrEYo9Kqc0+KKVfBaHHlcqUio/htuCu/MR2ng3t2umyvUtUEGnX7WGrcuoPLZXRcKEFA0/ZdKJ/3dti3M9nlzYeE8bAb7qAOvQZ69GEqwyINWrThscuytGf7Ft7C9pRLGOS+9L/8GpvKGxEEBEDAmgSkx2nVP3MMOxcdl0B1erkwx4kn+i14607aOuNrw3U5KCg7Kw1mTXZwTsshs/967WIvs1l7a/GWjRzZtpJys09S1RY9izXp6wGANFCWrMlDSmau5+bmUjrn3nf0oJI3/qR6jWzd0UOuuYXKlvdO4CIPVVkGJrP4pZtX0g9nZ5284F7JG3i1pNrUpf8ldNlNd5EELd4SeTNt070v9waEUWZGOmVywOVIKlSuQu179qcRt4yhGvUwru2IEY6BgJUIeCoAWPTRQ7ThTy258Ariu4+//FTwgO7PZg4B2H19kT+0YR1qP6D6c+0vr1Eop11tMep/qqZ8pryMuclbcn5+vq03QDaekZ4BSR0sa+bj+AEqb6ZWkTKx5Xky3w02PbRvNx07nGIb+5VApQwPb1SMr0ZmZCY02n5JYSoTA0WPHUmhwwf2keS0l269KO4hkIe/TB6EgAAIgEBBAsu/msDb+75Z8JCOz9+ykdd1GCrKhicCAJnBeC1rfVZts9FWfP00nT6VTa2ve4rNBo7IG7bMuPWlWbdxVaqTqK9I2fIVuQeloq+4Cz9BAAS8RECeQyu/fUZ37TKJ6ibdRh3Z0zI278hwoWMn+PslrI77Vgtd7OrX1T+9TAveudv2luZqGVwHAiAAAiAAAkoEeHhz0QdjacU3TyuZcVBYMupeyprp4Jz2Q54KAMTxLazXsEqPgDbZOOlD3kHwBp5wlqfNJgyBAAiAAAiAgCMCZ3iS89zXb6V1E992dFrlmDwbr2fdpmLEnbKeDADEr4ms2kOm5Nnf00xee3k6R+YbQkAABEAABEBAPwHJTjv96ZG05e8v9BsnGsdGfzXDsDObng4AxA9p5KfOHDJ6fOfCiTTpob62ZYJGbaAcCIAACIAACDgikJ2eSlMfvZh2LfrT0WnVYx+ygQmqRtwt740AQLo5ZL+Aqe46W9z1KZuX0m93d6QjyZJ+AAICIAACIAAC6gSO7lxve7YcXL9Q3diFFiSiuO3Cw+Yf8UYAIK2SBAeyLHCRfNEpman7adKDfWjX4kk6zcIWCIAACIBAABLYu2I6/flAT6WkckVgW8LnJJe4VyaxeWIZoLO2S3aYIawLWGs6u8jI8dysEzR9wghbrgAj5VEGBEAABEAABFK3r6a/Hr+EZOKfCbKZbQ5k9ciMf0f+e6sHwO7LIf7AeX3psP2Arp9yw3Iy03WZgx0QAAEQAIEAIyDPEJMe/rK9rzz7jngTqbcDAGn7VtaurAflCwQEQAAEQAAE/JiAvPjKLm07vN1GKwQAwmAja3dWiYogIAACIAACIOCPBORFtwfrOis0zioBgLDYxCpBwH75AgEBEAABEAABPyJgf/hvsEqbrBQACBOZFCFBwD75AgEBEAABEAABPyCwh9vQmVV6uy0jVgsABIykDEYQYJlfETgCAiAAAiCgQGA3l5VnmsdS/LrqqxUDAPFdJgZ2YZVhAQgIgAAIgAAI+CIB2dmvE2uyFZ23agAgrLazdmCdI18gIAACIAACIOBDBGawr9LtL93/lhQrBwAC7BirLJf4Sr5AQAAEQAAEQMAHCHzGPso6/+NW9tXqAYCwy2G9mvUJ+QIBARAAARAAAYsSkL1u5Fl1HaukvLe0+EIAIAAF6njW61ktD5V9hIAACIAACAQWAXlZvYZ1vK8021cCADvPT/lDL1YkDLITwU8QAAEQAAFvE5Bx/q6sX3rbEXfq97UAQNo2l7Up69/yxUzJOnnCTPOwDQIgAAIgYCKBkycyTLR+zvRM/tSaVfvutudqMOmDLwYAgkI2D5IJFjLWks9qiqQfO2qKXRgFARAAARAwn0B6mql/w2Vo+nnW3qyS39/nxFcDAAF9mnU868WsqazaJWWfZVdvaG8rDIIACICAvxEw8W+4PPBlOPohVtNeQs2+H74cANjZTOYPLVjn2w/o+rlh5RI6c0aCPAgIgAAIgIAvEcjPz6dNq5eZ4bKs75dnjnT9+7T4QwAgN2A3q0zAuJf1JKsWSUs9TLu3yfYEEBAAARAAAV8isG39asrMSNfpskwouJVVuvz9YtM6fwkA5CZLN8xrrI1ZZ7Nqkak/+tSkTi1thhEQAAEQ8GUC0nM77eevdTZhHhuTt/73WP2mW9ifAgD7zd7OH3qyjmHNsh80+nPnlg20atFco8VRDgRAAARAwMMEls75m/btTNZRqywFu41Vepgtt5mPagODVQ1YtLxEaLIk4wdWuXFxrIZly5qVVKdxcyodE2vYBgqCAAiAAAiYT0CGbb9952WSOQCKspTL92CdrmjHssX9NQCwA5c1IGmsw+wHjPzMP32aNvKEwIQ6DahMbDkjJlAGBEAABEDAZAI7t2ykL994lk5lK3f+iqe3sC4x2WWvmi/h1do9U3kkVyNLNuSnkoSEhtLAkddTm259KCjIH0dPlPCgMAiAAAh4hYC87S+aOYUmf/cZnc7L0+GDvDxWZpX0vn4r/t4DIDdO9g6oztpKvqiI/JJtXr2c1i9fRFGlY6hs+TgKDg4EhCrUUBYEQAAEzCGQm5NDG1cspm/eeYlWLphNZ9S7/e2OvsMfpti/+OvPQOgBkHvXgHUdq9b2lgwLp1oNm1L5SvG2+QGhJUtKXRAQAAEQAAGTCMhDP/1YKh05tJ+2rltNuTmndNckSeZqse7Ubdhq9rQ+EK3WuEL+fMffLy90DF9BAARAAARAoCCBj/nLjQUP+OvnQAoAavNNXM8a6q83E+0CARAAARBQIiCzB+uy7lGy4iOFA2kAWyZ1hLF28ZF7AzdBAARAAAQ8S+Bxrm6SZ6v0Xm2B1AMglMNZV7DWly8QEAABEAABEDhLYDX/lG19ZeJ4QEigrWXL5rs6nFXbfgEB8VuCRoIACICAfxOQjH8jWf/f3p1ASVWdCRz/mqW7WbobehFsFhtQWQVZRHFXXBJxMCoxLpGTxCXm6InGOCdGnTM5cRK3kDg6k8TJRJOj45rExLgkEUHccAVElGYR2WTppummAdl6me/rpCNid3V13fuq6r33v57v0PWq7n33/m5Z76tXb4nNxt+mM24JgI3Zzga4UsOuFkhBAAEEEIi3gF0y8OsaS+PGEKdjAPaf2/f0gWV6U/dfyN8IIIAAArETuEFHbEf+x67ENQGwiX5Zw07cP8EeUBBAAAEEYidgB/3dHrtR/2PAcU4AjGCOhl1FwvYExO2ASB0yBQEEEIilgO32t2/+sd3426yz0TMFkbM17ObRhfaAggACCCAQWQE74G+mxpORHWGSA4vjQYBt0TytC8drvNrWkyxDAAEEEIiEgN3db5JG7Df+Nptx/wnADFpLrf7xoIZlh1M0uLC/IlAQQACBCAjU6xhu1rAzwKojMB4vQyAB+Cyj/S5kewF+q9FTY6xGNw0KAggggED4BOzaL/dp2H1g/qZhn/GUfwhwDEDit0K5Pn2Vxtc1BiZ+Kc8igAACCGSJwDrtx/0atvHfmCV9yrpukAAkNyW2p8ROF5ymcYbGaA32nigCBQEEEMgCgUbtwxIN+5Zv1/J/WYNv+4qQqJAAJNJp/7ne+tQ4jaEaQzQKNNJ1BoEdn3CERkpl6PDRUj6oIqW6VEIAgegKbFi3WlYtsxumplzsAmvzU67duYr2m77Fao0PNew6/js1KJ0Q4PftTmDt91I7UNCOFcjEWQOzdL0pJwATjz1JTjnrvP2Gwp8IIICAyNxn/+CaADyvjt/FMjwCnAYYnrmipwgggAACCHgTIAHwRklDCCCAAAIIhEeABCA8c0VPEUAAAQQQ8CZAAuCNkoYQQAABBBAIjwAJQHjmip4igAACCCDgTYAEwBslDSGAAAIIIBAeARKA8MwVPUUAAQQQQMCbAAmAN0oaQgABBBBAIDwCJADhmSt6igACCCCAgDcBEgBvlDSEAAIIIIBAeARIAMIzV/QUAQQQQAABbwIkAN4oaQgBBBBAAIHwCJAAhGeu6CkCCCCAAALeBEgAvFHSEAIIIIAAAuERIAEIz1zRUwQQQAABBLwJkAB4o6QhBBBAAAEEwiNAAhCeuaKnCCCAAAIIeBMgAfBGSUMIIIAAAgiER4AEIDxzRU8RQAABBBDwJkAC4I2ShhBAAAEEEAiPAAlAeOaKniKAAAIIIOBNgATAGyUNIYAAAgggEB4BEoDwzBU9RQABBBBAwJsACYA3ShpCAAEEEEAgPAIkAOGZK3qKAAIIIICANwESAG+UNIQAAggggEB4BEgAwjNX9BQBBBBAAAFvAiQA3ihpCAEEEEAAgfAIkACEZ67oKQIIIIAAAt4ESAC8UdIQAggggAAC4REgAQjPXNFTBBBAAAEEvAnkeGspPg310qFO0RilMVxjiIYts+irEXQp0RUUpbqSXgWF0qOndZWCAAIIfCqw65OdsnN7/acLOv/XNq1S0/lqna5RqzV2auzQWK1RqfGBxusatpySpAAJQHJQg/Vll2hM05is0V2DggACCCCQPQL7tCtvaDyj8X8a6zQoCQRIANrHMZsvalyvcYoGP5coAgUBBBAIgUCT9nGuxiyN50LQ34x0kQSgbXbb8P9IY3zbT7MUAQQQQCAkAgu0nzdp/DUk/U1bN0kAPks9SB/+p8a5n13MIwQQQACBkAv8Xvt/ncb6kI/DW/dJAD6lPEf/fECj76eL+AsBBBBAIEICdpTj5RpPRGhMKQ+la8o1o1PRDH6mcbdGj+gMi5EggAACCBwgkKePZ2gUaszWaNaIbYn7HoBcnfkHNS6I7TuAgSOAAALxFHhSh32xxu54Dl8kzgmAZYJ/1jg9rpPPuBFAAIGYC9iBgdM19sbRIa6nttm47Zs/G/84vusZMwIIIPB3gTP1n8c0YvlzeCwHrZNt54ZepkFBAAEEEIi3wAgdfr6GHRMQqxLHnwDO1hl+SiOOY4/Vm5vBIoAAAkkK2MGAdvr3n5J8fSReFreNYLnO2hINTvWLxNuXQSCAAALeBOw+BmM0NnlrMcsbitsxAD/V+WDjn+VvSrqHAAIIZEDAbrR2VwbWm7FVxmkPwFRVjt1vPBl7Z7FiBBBAIHwC9lPAKRrzwtf1zvc4TgnAK8pzXOeJqIEAAgggECOB13SssdhWxCUBsIxujs83cE5OjgweNlxGHDlJyg4eIAVFfaVXYZHYcgoCCCCAgH+B5uZm2VFfJzu21UnVhvVS+e7bsu7D5WLLPZeTtL2XPLeZdc3FZWtlR3baxR6cS5cuXWTCcafIaedeKEXFpc7t0QACCCCAQOoCdTXVMvvJR2XBq3N9JgJ/1B6dm3qvwlEzDgnAQToVdven7q5T0qekTC799o1SfshQ16aojwACCCDgUWDdqhXy0L13SH2tHczvXOzKgHbWmJfGnHsTUANxuBDQN9TOzv13KgOHHCpX3HirlPQ72KkdKiOAAAII+Bco6lsiRx5zgqz8YHHLTwSOa7Bt4xqNtxzbyerqcTgN8IuuM1DYp7jlm3/vwj6uTVEfAQQQQCAggYI+feVr198ihZoMeChf8NBGVjcR9QTAdvsf7zIDdlDfpdd+39cbyqUr1EUAAQQQ6EDAvrBd+M3vdPCqpJ62AwG7JfXKkL4o6gnAOJ2XApe5OXLKiWK7/ykIIIAAAuEQGDJitIyeeIxrZwu1gbGujWRz/agnACNd8aee8xXXJqiPAAIIIJBmgalf8vLZ7bwNSfOwO7W6qCcAdpenlIsd7c9BfynzUREBBBDImMDBgyqk1P2g7eEZG0AaVhz1BGCgi+HwsRNcqlMXAQQQQCCDAoe7f4YPymD3A1911BMAp9//+fYf+PuPFSCAAAKBCRSX9Xdt22kb4rryoOtHPQHo7QJol/elIIAAAgiEU6Cob7Frx+1AwMiWqCcAuS4zl5uX71KduggggAACGRTIze/hunanbYjryoOuH/UEIGg/2kcAAQQQQCCUAiQAoZw2Oo0AAggggICbAAmAmx+1EUAAAQQQCKUACUAop41OI4AAAggg4CZAAuDmR20EEEAAAQRCKUACEMppo9MIIIAAAgi4CZAAuPlRGwEEEEAAgVAKkACEctroNAIIIIAAAm4CJABuftRGAAEEEEAglAIkAKGcNjqNAAIIIICAmwAJgJsftRFAAAEEEAilAAlAKKeNTiOAAAIIIOAmQALg5kdtBBBAAAEEQilAAhDKaaPTCCCAAAIIuAmQALj5URsBBBBAAIFQCpAAhHLa6DQCCCCAAAJuAiQAbn7URgABBBBAIJQCJAChnDY6jQACCCCAgJsACYCbH7URQAABBBAIpUC3UPY6xp3esmmDrHz/XdlWWyPbt9VJXn6+FPYplvKKYTJ0+Gjp2i27prRe+7n8vYVSu6Va7O/ueXnSu7CP9B94iBw2Zpx0z83Lqtn8ZOd2qVzxmlRXr1XfrdLc1CQFfYulrGyAjDj8BOnVsyir+ktnEEAAgVQFsmtrkeooIl6vSTdCC16dKy8/90ep2rC+3dHm9+gpR045UU6dfoEU9Onb7uvS8UTlordlzp+fkPWrVkhzc3Obq+yemyujxk+W0869SEr7l7f5mnQtXLeuUv729AOy6p2V0tTQ1OZqc7rcLxWThsgZ0y+RioET2nwNCxFAAIGwCJAAZPlMbf54rTzyi1myef3aDnu6e9cn8vqcv2iy8KKcOeOrcuzp0zqs4/sFtlfisV/+VD5c+l6HTe/bu1fefeMVWfL2fDnuzOktfe7SJb2/Su3bu0d+/8QseXf2WyJt5yn/HEdzU7N89OYque+tW2XMaUfIjAtulLzuPf/5PH8ggAACYRLoGqbOptDXr2mdihTqtVSZdMJU6VNSlmp153rLFr8jD8y6VbZtrelUW42NDbrbfYFsq9kiI8ZNlJw0bVQ3rVstv7r932Sj/tuZYnsI1qyobNlbMGr8UdKte/fOVE/5tdvra+RX93xPVr65rNNtVK2qkg+WvSQjxk+QHrmFna5PBQQQCF6gpmqTLJo/z2VFa7Tyb1wayOa67AHI0tlZ++FyeejeO6Rh376Ue/j2yy/ob+y5Mv3SK1NuI9mKlqTcP+uHsr2uNtkqn3udHStgeztmXnezBL0nYM+eXXL/f90im5Zv+lw/kl1QtXyLPHD3D+RbN86SHt04NqA9tz26Z2rha/Ok8t139FiQzbJD9xJ1sLOlvaZYnmEB+/+yd1Ef6Vc+SEZOmCxHHHWcdO0a9e+RGUYPcPUkAAHiptr0zu318tA9tzlt/FvXPf+F52TAkENl4vGnti7y/q8do/DQvbc7bfxbO7Vs8QKZ/eQjcsb5l7QuCuTf3z16l9PGv7VT1Str5PGHb5OZM2+THP2P8lmBRfNfkqcf/rXYe5oSDQGbS/tJcvGbr+r/q4/K+d+4WoboAciU8Amk9wfX8PlkpMdznnq85Qh/Xyv/y+MPyp7du3w197l2FrwyR9Z/tPJzy1Nd8JIe7FhbvTnV6h3W++ijxbJk7sIOX5fsCyrnLJPlH7+U7Mtj87o5Tz0hj933Mzb+EZ7xms0b5dd3/ntLMhDhYUZ2aCQAWTa1dqrcG3P/6rVXO+rr5LXnn/HaZmtj9u1/9h8fbX3o5d/GhgZ54U+Pe2mrrUb++tRv2lrstOz5xx8TdgB8Srjkrdda9uR8uoS/oirQ2Ngov/vfe2Tj2o+iOsTIjosEIMumdsk7r4ttAH0X210XRFmzYmmnD1JMph/vB+RQX18ra99dnUwXOvWajxdvlJpdH3aqTlRfbGd3PP3I/e2e/hnVccd5XC1z/vD9cSYI5dhJALJs2ioX6uloARQ7Qr92S5X3lpfq+f5BFDulcdWy9703vbRynl7cJ4BD0LTJ9z942Xt/w9jg0oVvBpIUhtEiTn1eVblE7LRlSngESACybK6q9Up/QZXqjR97b3pLAG22djKItjdX2Vk9wZQgfIPpabCt2tkclHgKMPfhmncSgCyaLzsffnvd1sB6VB9A20G02Qpgx0P4Ltu3pn6aYkd9qa+p6+glsXg+iD1NsYCLwCCZ+3BNIglAFs2XJQDtXTbXRzeb9GAd38UOAgyqNAbQdlNzcP1tbgyu7aCMg2g3yPdwEP2lTX8CQXzG+OsdLR0oQAJwoEgGH7dcZENvlBNUsZsG+S6FAd5zIIi2C/oE59u7hIsB2furUG+eRImnQFFxaTwHHtJRkwBk2cQVH9QvsB4VH9Tfe9vFZcH1tySQ/vo3aEUt7pe5y0a39iEb/h028ohs6AZ9yIDAsFFjM7BWVpmqAAlAqnIB1Rs+dmIgLduG+qDygd7bHq73Ggii2P0Aho30/2EyavgJQXS3pc2RY44JrO0wNTx60hTJ79krTF2mrx4E+g0cLIOGHuahJZpIlwAJQLqkk1zP6EnHSE6O/0vKjtEP5SCKZfxBfNgffsQEyc3P997l0pJB0u/wg7y3W3JoXykvHOO93TA22LNXbzntSxeGsev0OUUB+8yadtE3AvnsSrFLVEtCgAQgCaR0vqSs/wAZe/TxXldpG9Ljv3CO1zZbG+vWrbucNO281ode/rUPk6nnXOClrbYaOfW8GW0tdlp20kVfkJzG7k5tRKmy3Yp6/LEnRWlIjCWBwBl6+/HDRo9L8AqeykYBEoAsnBW7EU5unr9vvydPO18K9A5eQZXjTj9b+pb6+1Y9/riTpfyQoUF1V8aOOF0GTxjsrf3yI/vJxMOCSbC8dTLNDVkS9+UrrpVTp3+Zu8Wl2T6dq8vL7yEzLrtGTvb8JSCdY4jzukgAsnD27ff6L1/xbS+700bob/Qnn31+oKO0Ww5f+u0bvSQtBw+qkHPScPviiy+7SQr693Z26VXWUy665nrp0pTn3FbUGrAk4PTzLpbrfnSPTDntLLH3tS2jhFvAbv9rv/dbcnfDnb+QiSdMDfeAYtx7bgecpZNvv9mffcll8oxeXzvVc+3tFp0XXnV9Wj50Dx48RC6++gZ5+Oc/kb27d6ekagcpzrzuJi+JREcdKOrVT2Z+93vy27tulx1VOzt6eZvP9yrtIZfc8i0p7XZ4m8+z8O8Cpf3LZfpXrxDRsPPEg7wzJebBC9gxPyRywTunYw0kAOlQTnEdx542TexUuMfvu1s+2bkj6Vbsf87JJ58h/3LJ5dK1W/qm2M5guOrm2+TBe27v9O18Rx55lFzwzeskv0fPpMfp+sKBZWPk6h/cKQ/+8j9kg97MpzOl/+gyufja70pZ7vDOVIv9a7vot8ceepAgBQEEMi/QNfNdCLQHX9PWK1JdwyTdtdWnJLPndpf2K5ejdGNuV1ez2212dKWtoXoO9kX6rf/oU84Uu7BQuosda2Drzu/ZUzasWSV2l7BExXb5z7j8Gj3o7ytip/6lu+R3L5CjpnxRig7NVd/Vsqd+T8IuFJb3ltOvPkvOO/9fpXdOcNcUSNgJnkQAgaQEaqo2yaL585J6bTsvWqPLf9POc6FfHPUf5F7UGUr5UORv3vRjqTh8ZNZM8r69e2TFkkWy8oPFUlezRXbU10m+HoRToFf4G1AxTEZNmJzxhGV/LLtP+Gq9o9+yxQtka/Vm2bGtrmWPRFFxiZQdPLClv/0G+DsYb/91p/J3U06DrK1eIO8vfk22btos9dX10ixNUlBaJMX9S2XkuMkypP/R0rWB3/tT8aUOAukWsJsTPTDrhy6rtezhZJcGsrlu+vYPZ7NCSPrWPTdPN5pHt0QYumwHC9l1AsJydbAuzd2konSyVJw6uX3ehvaf4hkEEEAgTALp30ccJh36igACCCCAQEQFSAAiOrEMCwEEEEAAgUQCJACJdHgOAQQQQACBiAqQAER0YhkWAggggAACiQRIABLp8BwCCCCAAAIRFSABiOjEMiwEEEAAAQQSCZAAJNLhOQQQQAABBCIqQAIQ0YllWAgggAACCCQSIAFIpMNzCCCAAAIIRFSABCCiE8uwEEAAAQQQSCRAApBIh+cQQAABBBCIqAAJQEQnlmEhgAACCCCQSIAEIJEOzyGAAAIIIBBRARKAiE4sw0IAAQQQQCCRAAlAIh2eQwABBBBAIKICJAARnViGhQACCCCAQCIBEoBEOjyHAAIIIIBARAVIACI6sQwLAQQQQACBRAIkAIl0eA4BBBBAAIGICkQ9AWhwmbeGfXtdqlMXAQQQQCCDAh4+w522IRkcelKrjnoCsCMphXZetH1bbTvPsBgBBBBAINsFttVude1ivWsD2Vw/6gnAdhf82i3VLtWpiwACCCCQQYG6GufPcKcvkRkcelKrjnoCsCkphXZetGLJonaeYTECCCCAQLYLLH9voWsXN7g2kM31o54AVLrgr11ZKTvq61yaoC4CCCCAQAYEaqs3y6Z1q13XvMy1gWyuH/UEwGnympqaZN6zT2bz/NE3BBBAAIE2BF585g9tLO30IqdtSKfXluYKUU8A3lHPPS6mr89+TrZqJklBAAEEEAiHQNWGdfL2yy+4dna3NrDAtZFsrh/1BGCX4r/uMgENDfvkoXvvkL177L1AQQABBBDIZoE9u3fJwz//iTQ1Nrp281VtINIf/FFPAOwN8DfXd8HGtR/JY/fdLQ379rk2RX0EEEAAgYAE9u3dK4/8fJZsXr/Wxxqctx0+OhFkGzlBNp4lbR+i/Vil4ZzslB8yVGZe+30pKi7NkqHRDQQQQAABE6iv2yoP3XO7rFu1wgdIkzZSobHOR2PZ2kbXbO2Yx35t07ZO1ahwbdMuDPTOK3NbmhlQMUy6do0Dn6sa9RFAAIHgBBobGmT+7Gfl4f++S7ZWOZ35vX8n7YP+3v0XRPHvOOwBsHmbofGEzwnsVVAooyYcLSPGTZLS/uW6V6BE8vJ7+FwFbSGAAAIIHCBgv/Fv21ojWzZtkKWL3pKlC9+Undu9X7DvPF1t5E8Bi0sCYLv/F2uMPuC9xEMEEEAAAQT2F/hAHxyhYT8DRLrEZR92s86iXRTa9gRQEEAAAQQQaE/gW/qEJQGRL3HZA9A6kXZiqB0PQEEAAQQQQOBAged1wRkHLozq47glACN1Iu3i0HlRnVDGhQACCCCQkoCd8z9OY3lKtUNYKS4/AbROzRb9wy7uf1brAv5FAAEEEEBABa7RiPy5//vPdNz2ALSO3c4I4HiAVg3+RQABBOIt8IgO/+K4EcQ1AbDz9SzTOz5uE854EUAAAQQ+I/CGPpqqsfMzS2PwIK4JgE1ticY8DU4NNA0KAgggED+B93XIJ2rYWWKxK86Xxw2xWI323SZ+fojHQNcRQAABBFITeEurnaIRy42/kcU5AbDx28TbKR/P2gMKAggggEAsBJ7WUdrGvzoWo21nkHE7C6Athr260A4AqdWw34EwUQQKAgggEEGBBh3TrRp2sR/77I91ifMxAG1N/DG68Jcadi4oBQEEEEAgOgKLdChXadhBfxQViPtPAAe+CV7XBZM0rtWI9a6hA2F4jAACCIRUwD7L7TPdPtvZ+O83iewB2A/jgD976eMrNb6jMeiA53iIAAIIIJDdAmu1ez/T+B+NT7K7q5npHQlAx+62l8QOFrlUw64gWKZBQQABBBDIPoEq7ZId1P2gxosakb+jn44x5UIC0Dk68xqjcZLGKI3hGoM1+mgUaORpUBBAAAEEghPYo01v17DLuq/RWK5h5/O/pLFEw+7+SkEAAQQQQAABBBBoS+D/AZKYA+HhmE9ZAAAAAElFTkSuQmCC;fontFamily=Verdana;fontSize=16;textShadow=1;fontStyle=1;shadow=1;" parent="rilTDgwJUt0uwkPP9IXT-67" vertex="1">
          <mxGeometry width="293.8599066044029" height="293.8599066044029" as="geometry" />
        </mxCell>
        <mxCell id="rilTDgwJUt0uwkPP9IXT-69" value="" style="group;textShadow=1;shadow=1;fontFamily=Verdana;" parent="rilTDgwJUt0uwkPP9IXT-67" vertex="1" connectable="0">
          <mxGeometry x="284.21264788371883" y="250.89793195463642" width="75.77735211628122" height="71.10206804536358" as="geometry" />
        </mxCell>
        <mxCell id="rilTDgwJUt0uwkPP9IXT-70" value="" style="shape=image;verticalLabelPosition=bottom;labelBackgroundColor=default;verticalAlign=top;aspect=fixed;imageAspect=0;image=data:image/png,iVBORw0KGgoAAAANSUhEUgAAAgAAAAIACAYAAAD0eNT6AAAAAXNSR0IArs4c6QAAAERlWElmTU0AKgAAAAgAAYdpAAQAAAABAAAAGgAAAAAAA6ABAAMAAAABAAEAAKACAAQAAAABAAACAKADAAQAAAABAAACAAAAAAAL+LWFAAA5kUlEQVR4Ae3dCdh113wo8MgokyQyIoTIKJEQRGJqGipcXNUWLZWo0onn6nBLrrqkhlJtH1e1KvcqbuqWqFZrHmqKICpExZBBKvNIyDyn9//X743TN2fY0zl7+u3n+X/fefdea+21fvvsvdfZ40YbGQgQIECAAAECBAgQIECAAAECBAgQIECAAAECBAgQIECAAAECBAgQIECAAAECBAgQIECAAAECBAgQIECAAAECBAgQIECAAAECBAgQIECAAAECBAgQIECAAAECBAgQIECAAAECBAgQIECAAAECBAgQIECAAAECBAgQIECAAAECBAgQIECAAAECBAgQIECAAAECBAgQIECAAAECBAgQIECAAAECBAgQIECAAAECBAgQIECAAAECBAgQIECAAAECBAgQIECAAAECBAgQIECAAAECBAgQIECAAAECBAgQIECAAAECBAgQIECAAAECBAgQIECAAAECBAgQIECAAAECBAgQIECAAAECBAgQIECAAAECBAgQIECAAAECBAgQIECAAAECBAgQIECAAAECBAgQIECAAAECBAgQIECAAAECBAgQIECAAAECBAgQIECAAAECBAgQIECAAAECBAgQIECAAAECBAgQIECAAAECBAgQIECAAAECBAgQIECAAAECBAgQIECAAAECBAgQIECAAAECBAgQIECAAAECBAgQIECAAAECBAgQIECAAAECBAgQIECAAAECBAgQIECAAAECBAgQIECAAAECBAgQIECAAAECBAgQIECAAAECBAgQIECAAAECBAgQIECAAAECBAgQIECAAAECBAgQIECAAAECBAgQIECAAAECBAgQIECAAAECBAgQIECAAAECBAgQIECAAAECBAgQIECAAAECBAgQIECAAAECBAgQIECAAAECBAgQIECAAAECBAgQIECAAAECBAgQIFBU4C5FE0pHgMBgBDaJljwkYv+I3SK2jvj3iKsjLo44I+LbETdFGAgQIECAAIGeCxwQ9X9rxJURucOfF9fH9I9H/FbEDhEGAgQGJuAIwMAWqOaMTmCLaPHOG2LX+H/HDXH3+D8jf+HfY0PsGf9XWefzSMA7I14fcW6EgQCBAQhU2RgMoNmaQKA3Anm4/r4R+0TsveFz/r0Wq/x1nh2BP454XcSNEQYCBHosoAPQ44Wn6oMTuFe06GEbYr/4P2OviM0jujScHpV5esSZXaqUuhAgUE5AB6Ccl9QEmhLYMgo6LOLwiEMjcsd/z4i+DNdERZ8W8am+VFg9CRAgQIBAGwK5wz8y4lURJ0XkIfR5F+H1YVq24ckRBgIECBAgQGBCIA/f/17EZyKGsMOf1im5LtqWRzIMBAgQIEBgtAIbR8sfHpEXyX0rYtoOc4jjLoq27hxhIECAAAECoxHYKlr6XyOOj8iH6AxxB1+kTf8UbTcQIECAAIFBC+wSrTs64r0ReTFckR3kGNI8JSwMBAgQIEBgUAL7RmteGXFaxBh25lXaeEbY5GkQAwECBAgQ6LXA7lH7F0ecHFFlhzjGPD/f6yWu8gQIECAwWoE8vP/CiNzp3x4xxp14nTZ/MswMBAgQIECgFwJ52PrxEe+LuDmizg5w7HlvDb97RBgIECBAgEBnBXaLmr004pyIse+4m2z/MZ1d4ipGgAABAqMVyF/7R0X8fYRf+8vp+Lx9tN8uDSdAgACBzgnkC3Xy1r0xPaCnyV/1Zco6tXNLX4UIECBAYHQC20SL80r+8yPK7MSkre511ei+ZRpMgAABAp0RyEfTHhfxgwg789Ub5MuPDAQIECBAYGUCeQX6WyJuiLDjb89gx5UtcTMiQKCSwKaVcslEoHsC+YvzdyOOjcjD/gYCBAgQIEBgwAJ5Vf+zIs6L8Iu/Gwb5ACU/LgLBQIAAAQLLEXhiFOvZ/N3Y6U92vi5bzuJWKgECTQropTepqaxVCTwiZvS6iMesaobmU0rgO6VSS0yAQCsCefjUQKAvAg+Min4g4gsRdv7dXWqeA9DdZaNmBAgQ6JXAfaK2x0fkc+YnDzX73E2PPDVjIECAAAEClQW2j5x/GnFThJ19Pwx+GMsq78gwECBAgACB0gKbRI7fiLg8wo6/XwZvLb20ZSBAgAABAiHw0Ih/jbDj75/BbbHc9oswECBAgACBwgJbRMrXRtwSYeffT4N3F17aEhIgQIAAgRDIX/2nR9jx99fgmlh+944wECBAgACBhQJ+9fd3h7++s/abC5e2BAQIECBAIAT86h/Ozv89vtEECBAgQGCRwOaR4NURzvUPowPwuViWbvtb9K03nQABAiMXyCf5eXb/MHb8eQrgsxF3izAQIECAAIGpAnlff76m98aI9eeO/d1Pk3fFssxrOAwECBAgQGCqwM4x9p8j7OiHYfCjWJa/MnVJG0mAAAECBDYIPCz+Pz/Czr//BnnNxjsidoswECBAgACBmQIviCkO+fd/x39pLMc3Rtxv5pI2gQCBXgrcpZe1VukuC2walftfES/sciXVbarA7TE2j9icHfHFiLzC/6SIfMSvgQCBgQnoAAxsgbbcnO1i/idGHNVyPYY6++ujYedGnLchror/6w7nRAGfjcidvqG8wA6RJZdDdp4MBHoloAPQq8XV6cruGbX7YMQDOl3LblYuT5Xk7ZG5M86dfMZ1EZdE5C/yCyIujPh+hKFbAhtHdV4S8ZWIT3WrampDgACB5QscEbPw6t5i5/tz556H1t8aka88zgsl3U4XCD0eto+6Z0ft4xEP7nE7VJ0AAQKlBF4cqT3Vb/rO/+KwyZ3Cn0QcE3FIxOYRhuEJHB1Nyrtd8nqJ90c8IsJAgACBQQrk41//JsItfv9hkOeA/zXiTRE/G5HPPzCMRyAfdnVGxOT68Jn4+/DxEGgpAQJjELh3NPKrEZMbuzF+znP2b474uYidIgzjFsjrYLIDuP721zwisP+4abSeAIEhCDwoGpHnO8e4w8/Du6dGHBfxkAgDgWkC94uRn46YXEfyNNnxEfeIMBAgQKB3As+IGudFbJMbtqF/vjna+5GI50fsGmEgUEQg7w74vYj1RwOujXHHRWwVYSBAgEAvBP4gapnnuYe+w8/23RrxqYh8muGOEQYCVQUOiIwnRaxfb86NcXnqyECAAIFOC7wuard+AzbEv0+Jdr4owi/9Tn8de1e5fN7KcyOm3Sr7iRi/b4SBAAECnRN4TdRoiDv7tTblef0PRjyuc/IqNDSBvFA0TyetfffW/r8hxuURts0iDAQIEOiEwBuiFmsbqaH9/8No2xsj9umEtEqMRSCPBrw0Ik8zrV+nvhHjHh5hIECAQKsC+fCa9RuoIfydV/H/aoSLsFr9eo1+5o8NgXzT4vp1KjsG2fH2wKhAMBAgsHqBP4pZrt8w9fnvvBL7vREO86/+u2SOswXyEcJ5a+C0i2uzo7rX7KymECBAoHmBIe38zw6ePNzqIT3Nf0+U2JzA06KoPCW1vpN9VYz7xeZmoyQCBAjMFhjKYf8vRROPisjzrQYCfRDIhwflNQDrOwH599sito4wECBAYCkCQ/jlf0bIPD3Cjn8pXxGFLllg2yg/bwuc1gnI7/aDlzx/xRMgMEKBvu/8L49l9uKITUe47DR5WAJbRHPeEzGtE5DXsuQprXzKoIEAAQK1Bfp82P9H0fqXRbiiv/bXQAEdEsg3C/5lxLROQI77UIS3TQaCgQCB6gKvjayzNjJdHp+3Tx0bkVdRGwgMVSCPak27QyDXzVwH3NUy1CWvXQSWLPCsKL/LO/lpdbsp6vzHEXdbso3iCXRF4OioyM0R09aHfGbAcRFOCQSCgQCBYgJ5MdF1EdM2Kl0d9/mo7wHFmicVgUEJ/Ey05uqIWetmvrjKa4YHtcg1hsByBHaNYs+PmLUx6dr4vD86D4X6lRMIhtEK5COCr4iYtX5eHNMeM1odDSdAYKHA5pHi5IhZG5Gujf/HqGt2WAwECGy00X6BkDv6WevpLTEt7xIwECBA4E4C+djRWRuPLo3Pq/t/7U61N4IAgf2D4JKIeevr22O6Nwv6rhAgcIfAC+PTvI1GV6Z9LOq5+x219oEAgfUC+8SICyPmrbP/HNO3WZ/R3wQIjE/gUdHkvIJ+3gaj7Wn53PP81e8pfoFgILBAYO+YfkHEvPU2T/ftsKAckwkQGLDAHtG2fFLevA1F29PyKuasp4EAgeICe0bSfOHVvPX3tJjuoUHFTaUkMBiBLaMl+VrReRuINqflRUvHReSTzwwECJQXyItkvxoxbz3+Tky/Z/mi5SBAoK8CeSj9xIh5G4Y2p50XdctTEwYCBOoJ5IOx8g2Y89bnM2P6HvVmIzcBAn0ReFVUdN4Goc1p/xB1u3tfINWTQA8Etos6/kvEvPU6byE8uAdtUUUCBGoIPD3yznqG+LwNxLKnXR/1+vUa7ZKVAIHZAjvGpNMj5q3HV8b0R8wuwhQCBPossG9U/pqIeRuBNqZ9O+p0YJ9h1Z1ADwTyXP+iJ31eG2ke3YO2qCIBAiUE7hpp86rfNnbw8+b5maiTN/eVWJCSEqghkB3tH0bMWyfzYVuH1piHrAQIdEwgnwA2b6VvY9o7o05bdMxJdQgMXeCno4GLnv2RnYSHDh1C+wiMQeC50cg2dvCz5pmvMH3RGOC1kUBHBZ4V9Vp0LVBeE3BIR+uvWgQIFBDI8/55Xm/WznjV4y+NujjHWGDBSUJgyQKviPIXrf+XRZp8x4CBAIGeCWwa9T0lYtFKvqrp34267NUzQ9UlMFSBfB7IeyIWrf8XRZr7RhgIEOiRQJfu988nku3UIztVJTAGgXwi6FciFnUC8rHCu4wBRBsJDEEg7+e9NWLRir2K6Xn3Qd6HbCBAoHsC94kq5aH+RduCL0earbtXfTUiQGBSIFfSPNy+aIVexfT85e/JfpNLx2cC3RPIR28vujMgtxd/H5GnDgwECHRU4M+jXqvYuS+ah1/+Hf2CqBaBKQJ5Z86idTqnv2RKXqMIEOiAwOFRh9siiqzIy0xj59+BL4MqECgpUOR5IXlq8aiS5UpOgMCSBfKhOvlY3WXu2IuUbee/5AWteAJLEsgnhn4tYtF6ns8I2HtJdVAsAQIVBN4QeRatuMue7px/hQUnC4EOCeStuldFLNpWnBFpPMa7QwtOVcYrcHA0/ZaIRSvtMqfn7UQ7jHcRaDmBwQg8I1pSZFvxsUi3yWBarSEEeiiQV+V+NqLICrusNKfG/F3tHwgGAgMR+ItoR5HtxesH0l7NINBLgWOi1kVW1GWlyacNbtdLOZUmQGCWQF5TVOQhQblded6sQownQGB5AneLoi+OWNbOfVG534x5++W/vOWrZAJtCtwvZv7DiEXbgRsizaFtVtS8CYxRoM17/s8P8HyKmIEAgeEKPDuatqgDkNPznQG7DJdBywh0S+DAqE5bF/5dEfPer1scakOAwJIE/jbKLdIJ+Gik86TAJS0ExRJYE8iV7OSIIitl02muj/k63Le2JPxPYPgCebvfeRFFtiW/PXwOLSTQrsAxMfsiK2PTaW6P+f5Su003dwIEWhB4dMyzyFNGb4x0D26hfmZJYBQCbV7497JRCGskAQLTBP40Rhb5UZGvD952WgHGESBQT+CNkb3ISth0mhPqVVtuAgR6LpC3Bn49osi25W09b6vqE+icQN6Wk4fYiqyATabJlX6rzmmoEAECqxZ4SMwwXwhUZPvyjFVXzvwIDFng3dG4Iitek2l+EPPcc8io2kaAQCmBorcf5zME7lWqZIkJEJgq8KAYW+QinCZ3/jm/J0ytjZEECIxVIK9Dyvv+i2xrPjRWJO0m0KTAJ6OwIitck2le0WQDlEWAwGAE8m6gotuanx9MqzWEQAsCR8U8i65sTaU7KebpTV8tLGyzJNATgY9EPYtsby6JdN4U2pOFqprdEtg4qvPViCIrWlNproz5ecxvt74HakOgawJ7R4XyPQBFtjvHd63y6kOgDwLPiUoWWcGaTPPUPsCoIwECrQu8KmpQZNuTDxE7svXaqgCBHglsHnU9J6LICtZUmjf3yEdVCRBoV+CuMfvzI4psf86MdJneQIBAAYHfjTRFVqym0pwe89uyQL0kIUCAwJrAC+JD0W3Qa9Yy+Z8AgdkC+dStvHim6IpVN911Ma/9Z1fHFAIECEwVyIuFvx1RZBt0U6Tba2opRhIgcIfAr8SnIitUU2mef8ecfSBAgEA5gbzVr+i26MRyRUtNYHwCRZ+5XXSlm5fuA+Pj1WICBBoW+GKUN287MzntUQ3PW3EEBiPw+GjJ5MqyzM/fj3ntNhg5DSFAoC2Bx8SMi26rvhxp79JWRc2XQJcFPhqVK7oi1U3nhR1d/iaoG4F+CXwsqlt0m5RPEzQQIDAhsG98XtUz/989MV8fCRAgUFfgkCigaAfg3EjrtsC64vIPSuB/R2uKrkB10l0W89llUHIaQ4BAFwQ+HpUoum06tgsVVgcCXRDYOSpxfUTRladOuqd1ocHqQIDA4AQeGy0qum26KtL6ITK4r4AGVRHIt+8VXXHqpHt7lcrJQ4AAgYICp0S6otuovyhYpmQEBiuwqgf/XBCC2w1WUcMIEOiCQF5cXLQDcEuk9RCyLiw1dWhN4JdjzkVXmDrpnttaC82YAIGxCOTTAc+KKLqt+oexwGgngWkCX4iRRVeWqunyWf+5YhoIECCwbIHfiBmU2VY9ctkVUj6BLgocFJUqs6JUTfvkLjZenQgQGKRA3uJX5n0mnx+kgkYRWCDwlphedadeNJ+Va8FCMJkAgcYFXhklFt1GZbojG6+BAgl0WGCbqFveClNmJamS1uG1Dn8JVI3AQAV2j3bdGlF0m5WnQg0ERiOQb+ErunJUTedlP6P5Omkogc4JfChqVGbble9CMRAYhcDJ0coyK0fZtPlY4YNHIamRBAh0UeCpUaky263PdbER6kSgaYG9o8DbI8qsHGXTvqPpSiuPAAECJQQ2jbQXRZTZdj28RPmSEuilwGui1mVWirJpb4ry9+iljEoTIDAkgddGY8psv94zpMZrC4H1AhvHiPMiyqwUZdPmi4UMBAgQaFvgflGBMm85zQsH92y70uZPYFkCebtL2R16mfQ3R/m50hkIECDQBYFPRCXKbMPe2IVKqwOBZQjkr/MyK0PZtG9bRqWVSYAAgYoCZd4PkNu7qyO2rzgv2Qh0ViAvirk8ouxOvWj6PHyWFxgaCBAg0BWBraIi10QU3Y5lupd2pfLqQaApgSdEQWVWgrJpve63qSWlHAIEmhR4dxRWZnuWdw9s3mQFlEWgbYF3RAXKrARl0uav/33abqD5EyBAYIrAz8W4MtuzTHv0lHKMItBLgezNXhlRdiUomv7/9lJFpQkQGINAviCo7KPP82FpBgKDEHhctKLozrxsuvz1v+8glDSCAIGhCvxtNKzstm2/oWJ0sV15j7phOQJPWk6xPy71ffHvmUssX9EECBCoK/B3FQo4pkIeWQh0TuCsqFHZ3m/R9B6f2bnFrUIECKwTqHIaIC8G3GRdOf4k0CuBPIxVdGdeNt1JvZJQWQIExizwrmh82W3cE8cMtsq2OwWwHO1lHv7/s+VUWakECBBoXOAfK5T4vAp5ZCHQGYGPRU3K9nqLpD87ytVp68xiVhECBBYI3C2m5+PKi2zf1tLky812WlCuyQ0I2Jk0gLiuiHz63yPWjWvqz7+KgvK1wgYCBAj0QSAf8/vlkhXNW6h/qWQeyQl0QuDwqMVaT7bJ/6+PcnfsRAtVggABAsUFXh5Jy24Lv1a8eCmrCjgCUFVudr4jZk+qNeXEyP2DWiXITIAAgdUL5CnRssODI4NnApRVk751gWWd/3frX+uLVgUIEKggkD80L4soexTg2ArzkoVAawJ5/2rZt2AVWSlOb61FZkyAAIH6AlVuBzyl/myVME/AKYB5OuWn5SGrbcpnW5jjhIUpJCBAgEB3BT5eoWqHRp7dK+SThUArAvk2qyK/6MukuS3KtBK0sjjNlACBhgR2jnJyW1Zm25dpf7Oh+StmioAjAFNQaow6pEbeWVk/GRMunDXReAIECPRA4Iqo47cq1POpFfLIUlBAB6AgVMFky+gA5LkzAwECBPoucHKFBhwZebavkE8WAisVyM5UPvSi7CGueenzCVo7rLQVZkaAAIHlCDw7ip23vZs1zUOBlrM8lNqgwL4Vv9yzvvQ5/qMN1k9RBAgQaFPgvjHzedu7WdPyGSiGJQg4BdAcaj64ounh/U0XqDwCBAi0JHBuzDdf91t2eGJk2KJsJukXC+gALDYqmqLpDkA+8/+DRWcuHQECBHogUOU6gG2jXUf0oG29q6IOQHOL7EHNFfXjkv4l/r2k4TIVR4AAgTYFvlBx5k+pmE82AisRuDzmMuscVpXxf7CSWpsJAQIEVieQd0pV2R6eF/nusrpqmhOB4gK7RtIqX+p5eQ4uPnspCRAg0AuBfFx61bulbBMbXsROATQDev9mirmjlAvi0zfu+MsHAgQIDEMgnwZ4WsWm5MWAhgYFdACawWy6A/CRqFYeHTAQIEBgaALfrtigR1bMJ9sMAR2AGTAlRzfdAfh0yflLToAAgb4IVHkkcLbt8AjXATS4lHUAmsFsugNQ5VaZZlqiFAIECCxXoOoRgB2jWnsvt2rjKl0HoJnlvWczxfy4lO/Gvxc3WJ6iCBAg0CWBqkcAsg15FMDQkIAOQDOQezRTzI9L+VyDZSmKAAECXRO4LCr0/YqVOrRiPtmmCOgATEEpOWqzSH+PknnmJa/6oIx5ZZpGgACBLglUPQ1wUJca0fe66ADUX4K7RxFNOn6pfpWUQIAAgU4LVD0NcGC0yoWADS3aJndcDVWpd8Xcp8Ea/yjKOqvB8hRFgACBLgpUPQKwfTRmry42qI910gGov9SaPP//5ahOvgTIQIAAgSELfKdG41wIWANvMqsOwKRGtc9NHgE4pVoV5CJAgECvBM6uUVsdgBp4k1l1ACY1qn2+d7VsU3PlEQADAQIEhi5wYTTwhoqN1AGoCLc+mw7AepHyfzd1BCAf/ZuvADYQIEBg6AJ5qvOcio3MCwG3qZhXtgkBHYAJjIofm+oA5MV/P6hYB9kIECDQN4F86FmVYZPI5M2AVeTW5dEBWAdS4c+mTgE4/18BXxYCBHor8L0aNfc8gBp4a1l1ANYkqv1/98i2bbWsd8rl/P+dSIwgQGDAApfWaNsDa+SVdYOADkC9r8I962X/T7k9AfA/cfiDAIGBC+QjgasO+1TNKN9PBHQAfmJR5dNOVTJNyZPn/r85ZbxRBAgQGKrANTUa5mFANfDWsuoArElU+7+pDsAXY/Z5VayBAAECYxG4vkZD89qru9bIL2sI6ADU+xrsUi/7HbnPvOOTDwQIEBiHwLU1mpn7rj1r5Jc1BHQA6n0NdqyX/Y7cVW+HuaMAHwgQINAzgTqnALKpTgPUXOA6APUAm+oAnFevGnITIECgdwJX16zx3jXzjz67DkC9r8AW9bLfkfuCOz75QIAAgXEIOALQ8nLWAai3APKJVE0MFzVRiDIIECDQIwFHAFpeWDoA9RZAEx2A66IKP6pXDbkJECDQO4Gbo8Y31ai1awBq4GVWHYB6gE10APKtWAYCBAiMUaDOaQC3Atb8xugA1ANswu/ielWQmwABAr0VuKpGzXP7u0eN/KPP2sQObMyId2mg8c7/N4CoCAIEeilQ5whANrjJx7H3ErBOpXUA6ug1k9cRgGYclUKAQP8E6nYA7tG/JnenxjoA7S+LS9qvghoQIECgFYFbas7VEYAagDoANfAayuoIQEOQiiFAYHQCjgDUWOQ6ADXwGsrqCEBDkIohQGB0AjuPrsUNNlgHoEHMikU5AlARTjYCBEYv0MSF2KNF1AFof9E7AtD+MlADAgQIjE5AB6DdRZ5PAKzzTux2a2/uBAgQINBbAR2Adhedw//t+ps7AQIERiugA9Duor+i3dmbOwECBAiMVUAHoN0lf1u7szd3AgQIEBirgA7AWJe8dhMgQKB9gW3br8J4a6ADMN5lr+UECBBoW8CT/FpcAjoALeKbNQECBEYskPufXUfc/tabrgPQ+iJQAQIECIxSYJdo9aajbHlHGq0DUG9B/Hu97HITIEBgtAIO/7e86HUA6i0At/HV85ObAIHxCniRT8vLXgeg3gLwGN96fnITIDBeAUcAWl72OgD1FkDdJ/l5kUU9f7kJEOivgA5Ay8tOB6DeAqh7BGCrerOXmwABAr0VcAqg5UWnA1BvAdQ9AnC3erOXmwABAr0VaKID4ELsGotfB6AGXmQ9N+L2GkV4ClYNPFkJEOi1QBOnADxOvcZXQAegBl5kvSniwhpF6ADUwJOVAIFeC+zeQO1vbaCM0RahA1B/0Z9do4jsALgQsAagrAQI9FJgs6h1Pgio7uAIQA1BHYAaeBuyfrdGEem/dY38shIgQKCPAveKSjex/9EBqLH0m1gANWY/iKx1OgAJ4ELAQXwNNIIAgRIC2QFoYri5iULGWoYOQP0lX+cUQM7ddQD1l4ESCBDol0AT5/+zxT/oV7O7VVsdgPrLwxGA+oZKIEBgXAJ7NdRcj2OvAakDUANvQ9Zz4v86twI6BVB/GSiBAIF+CTTVAfh+v5rdrdrqANRfHjdGEXVuBdy+fhWUQIAAgV4JHNxQbXUAakDqANTAm8ha5zqAHSbK8ZEAAQJDF8gfPQc11EinAGpA6gDUwJvIetbE57IfdQDKiklPgECfBR4dld+koQZc2lA5oyxGB6CZxX5ajWKcAqiBJysBAr0TOLyhGl8b5VzZUFmjLEYHoJnF/tUaxTTxNKwas5eVAAECKxU4rKG5nddQOaMtRgegmUV/ehSTFwNWGZq6GrbKvOUhQIDAKgXy0P9DGpqhDkBNSB2AmoAbst8S/3+zYlF7V8wnGwECBPomcGBUuKlbn8/vW+O7Vl8dgOaWSNXTAPlKTO8DaG45KIkAge4KNHX4P1t4QXeb2Y+a6QA0t5yqdgDybYBOAzS3HJREgEB3BR7eYNWcAqiJqQNQE3Ai+6kTn8t+3LdsBukJECDQQ4EmjwA4BVDzC6ADUBNwInteA1D1QsAHTJTjIwECBIYokLc8N/ljRweg5rdEB6Am4ET2vBAw7waoMhxQJZM8BAgQ6JFAHv5vap9zW5R1cY/a3smqNrUwOtm4FipV9ToAHYAWFpZZEiCwUoEmD//nzj9/dBlqCOgA1MCbkvWUKeOKjMqLADcvklAaAgQI9FTgMQ3W2wWADWDqADSAOFHElyY+l/m4WST2PIAyYtISINAngdzGNXkEIF/DbqgpoANQE3Bd9nwrYNXXUzoNsA7TnwQIDEbgYdGSrRpsjQ5AA5g6AA0gThTx7/H5yxN/l/noToAyWtISINAngSYP/2e7dQAaWPo6AA0griviC+v+LvqnIwBFpaQjQKBvAkc1XGEdgIZBFdeMwIOimDwSUDbObGb2SiFAgECnBLaL2twcUXabOC/9Tp1qocoQmBD4Xnye9+WdNu32yLPzRBk+EiBAYAgCz4xGTNvmVR132RBQutAGpwCWsxQ+XKHYfCfA4RXyyUKAAIEuCzyp4cp9reHyRlucDsByFv0HKxb7yIr5ZCNAgEAXBTaJSj2h4Yp9veHyFEegUYEtorSrI8oe4jq50VoojAABAu0KHBGzL7sdXJT+Ge02aThzdwRgOcvypij2kxWKfmjkuWuFfLIQIECgiwJPW0KlTltCmYok0KjA86K0RT3ZadOdBmh0MSiMAIGWBPK6pnxk77TtXNVxeWTVD9eGFijIhiCnFPOhGJdX9pcddADKiklPgEAXBfLpf/dpuGJ5AWCV7WrD1RhGcToAy1uOl0fRVd4OqAOwvGWiZAIEViewjHP1Vbapq2txz+akA7DcBVblboDsAFguy10uSidAYLkCefX/s5YwCx2AJaAqcjkC+0axVc515aEzAwECBPoq8MSoeJVt36I8uU01NCTgl2ZDkDOKycf7fnPGtHmjm75vdt68TCNAgEDTAs9pusAoLy8APHsJ5Y62SB2A5S/6v68wi6ZfnFGhCrIQIECgksD2ketnK+Wcnymfk+ICwPlGpnZMIN/yt+iw1vrpt0aeHTrWDtUhQIBAEYEXR6L127Qm/v79IjOXhkDXBPLBFWVXgKd3rRHqQ4AAgQICedqz7PauSHrXRhXAl6R7AlV6xG/rXjPUiAABAnMFjoypRXbmZdPk+f9N587ZRAIdFdgx6nVjRJkv/cWRPp+kZSBAgEBfBN4bFS2znSua9sN9AVBPAtME3hcji37Z19I9cFpBxhEgQKCDAveOOt0csbb9avL/PIpqaFjAXQANg84p7u1zps2a1PR7tGfNx3gCBAjUFcid9GZ1C5mR3xGAGTBG90Mgz19dFFGmV+ypV/1YtmpJYOwC2wbAjyLKbN+Kpv3W2HGX1X5HAJYle+dy89a+v7nz6LljDompe89NYSIBAgTaF3hBVGG7JVUjX6xmINB7gX2iBfkgi6I930z3st63WgMIEBiyQB72PzeizHatTNqfGjKeto1L4IslV5TTxsWjtQQI9Ezg+VHfMjv0MmmviLLd/tezL4TqzhY4JiaVWQEybR45MBAgQKBrAvnr/5yIstu0oumP71qD1YdAHYEtIvOlEUVXgEz3B3VmKC8BAgSWJPC8KLfMtqxs2scuqd6KJdCawKtizmVWhK+3VlMzJkCAwHSBTWL0WRFltmVl0l4eZTv8P93e2B4L3DPqflNEmZXBe7B7vMBVncAABZ4bbSqzDSub9i0DNNMkAj8WeFf8W2aFeC03AgQIdEQgf5kv89d/bhuP6EhbVYNA4wIHRYllbgm8JNLnBTcGAgQItC1wdFSgzA+YsmnPjfI9p6btpWz+SxX4SJReZsV46lJro3ACBAgsFshz/2dElNl2lU173OJqSEGg3wKPieqXWTE8Eavfy1vtCQxBYNm//vPI6J5DgNIGAosETo4ERTsBt0XaPRYVaDoBAgSWJLB5lLvM+/5zW/jZJdVdsQQ6J/CEqFHRDkCme2XnWqBCBAiMRSDf+Fdme1Ul7XPHgqmdBFLgpIiiK8oFkTbPwRkIECCwSoFtYmaXRRTdVlVJl28U3HqVjTIvAm0LPC4qUGZl+S9tV9j8CRAYncAfRovLbKeqpH3T6FQ1mEAIfC6i6ArzYWIECBBYocDOMa+rI4puo6qmO3CFbTIrAp0ReFTUpOhKk1fJPrAzNVcRAgSGLvDn0cCi26eq6T47dETtIzBP4P0xsejKc8K8gkwjQIBAQwL3i3LKPrq86HZsMt0vNVRfxRDopUC+9vfmiMmVYtbnTLdHL1up0gQI9Engb6Kys7ZDTY2/KOaRtxgaCIxa4C+j9UVXqjeOWkrjCRBYtsDPxAzylGPRbVLVdP9j2Q1RPoE+COwSlbwqosiKdE2ku3sfGqWOBAj0TmD7qPH5EUW2RXXSXBfz2LF3OipMYEkCx0a5RVeoly+pDoolQGDcAmXfWFp0m7U+ndf+jvt7pvXrBO4af38vYv2KMu3vfDDHluvy+5MAAQJ1BPLFY9O2N02Py9ML+9epqLwEhiiQV8QWXdl+Z4gA2kSAQCsCec//pRFFtz910n2wlRaaKYGOC9wl6lf0RUFXRNrtOt4e1SNAoB8C74tq1tmpl8l7ZD9I1JLA6gUOi1kWvQL31auvnjkSIDAwgaOjPWV24HXSnh7zyh86BgIEZgi8N8YXWcmujXS7zSjDaAIECCwS2D0S/DCiyPamiTS/sqhCphMYu0A+hevGiCIrXD5DwECAAIGyAhtHhk9FFNnONJEmL17Oi50NBAgsEHhtTC+y0uXTAe+/oCyTCRAgsF7gFTGiyDamqTS/vb4C/iZAYLrAFjH62xFFVr53Ty/CWAIECEwVyBeR3RJRZPvSRJrvxbxym2YgQKCgwBGRrsgFgbdFuocWLFMyAgTGLZBP+8sdchM79qJlPGvc5FpPoJrA/4lsRVayUyPdJtVmIRcBAiMSeE+0tcg2pak0X4/55fUGBgIESgrkvf4XRhRZGX+rZNmSEyAwLoHfiOYW2ZY0mSZfLmQgQKCiwNMjX5EVMl8odM+K85CNAIFhCxwQzcuX8BTZljSV5mPDJtU6AqsReH/MpshKmS/zMBAgQGBSYJv445sRRbYhTaXJa5MeNFkJnwkQqCZQ5oEdHrVZzVguAkMUyCfvnRjR1I69aDknDBFTmwi0JfALMeMiK99Zkc4tN20tJfMl0C2Bl0R1imw3mkxzU8xzz24xqA2B/gv8dTShyIp6XP+bqgUECNQUeGzkvzWiyDajyTR/WrPeshMgMEVg6xj3nYhFK2s+5OPhU/IbRYDAOATyF/jlEYu2FU1Pz9cKe1PpOL5jWtmCwANjnjdELFpxvxtptm2hfmZJgEC7AjvE7M+IWLSNWMb0Z7fbdHMnMHyB340mFll53zp8Ci0kQGBCYLP4/M8RRbYPTaf5fMzX634nFoaPBJYhkCvZByOKrMBPWUYFlEmAQOcEcrtQ9DqhItuOMmnytOOBnRNRIQIDFdg12nVRxKKVNM/J7TJQA80iQOAnAq+Pj4u2B8ua/mc/qYZPBAisQuDQmEmR6wE+EOkcmlvFEjEPAu0IvChmu6yd+6JyXfjXzjI3VwIb/XLBFf/FrAgQGKTAMdGqIm8OXbQjrzrdhX+D/FppVF8E3hAVXbTy3hxpHtGXBqknAQKFBJ4ZqfL8+6L1f1nTXfhXaDFJRGB5AhtH0UUuCjw/0u20vGoomQCBFQo8J+bVxoN+1joT2fHI25INBAi0LJD3/Bd54ceHI53rAVpeWGZPoKbA0ZG/zZ1/dgL+qGYbZCdAoEGB+0VZV0Ss9dBn/f/SBuepKAIEVivwizG7tnf+34k63HW1zTY3AgQWCRwVCRZtHPLQ3aMXFWQ6AQKdE+jCzv+2UHlk52RUiACBHwsUeQNY3rqzOy8CBHoj0IWdfx5V9LKf3nxlVHSMAnmO/z0Rs04BrI3/cqRxGG+M3xBt7pvAMVHh/OW9tu629X++bnyrvuGpL4GxCWwZDc5bdBZtKE4YG4z2EuiZQFd++eepw4f3zE51CYxWYMdoeV6ss6gT4CFBo/2KaHjHBbqy889tyP/suJXqESCwTuC+8feidwZkz/6x6/L5kwCBdgVeGLPvwmH/3Pl/MWLTdjnMnQCBKgL7R6bLIuYdCfh+TN+zSuHyECDQqEA+2Ov1EfPW11VOuybqcv9GW6gwAgRWKpBP7Fr0jIDvRpqdV1orMyNAYFJg+/gjH9a1yh38onk9e7KCPhMg0E+Bg6Pa+Ut/3gqfdwa4yrefy1et+y2wX1T/2xHz1s9VTzu+36RqT4DApMCD448rI+ZtSP4ppm8ymclnAgSWKvDkKD0Ptc9bL1c97bSoj9uEl7rYFU5g9QKHxSyvjpi3Qfmz1VfLHAmMUuBXo9V5Ie689XHV066K+uw9yqWh0QRGIJCvBl50JMDtgSP4ImhiawLbxJzfGbHqnfui+d0edXpahIEAgQELPCDalq8InrVByA3BCwbcfk0j0JbAATHj0yNmrXttjn9FWyjmS4DAagX2iNmdETFrg5MvFsqHkRgIEKgvkI/p/rWI6yNmrXNtjv+HqJfXhQeCgcBYBHaLhs77NZLnJ581FgztJLAkgZ2i3A9EtLmDnzfvr0fdtl5S2xVLgECHBXaIuuUtgLM2EHk64L93uP6qRqDLAkdE5S6MmLV+tT3+8qjbHhEGAgRGKpAPIfl8xLyN0atGaqPZBKoI5G10+VS/rjzSd9q6fXPU74gIAwECIxfIhwAtehLZn4zcSPMJFBHIN+cVeRnXtJ3yKsf9ZpHGSEOAwDgENotm/nXEvI2QTsA4vgtaWV4g15/jIvIC2nnrUBemvSPqaCBAgMCdBPJq5ZsiZm2o/iqmuWL4TmxGjFjgoGh7PkFv1jrTpfFfiHpuMeJlpekECCwQeExMvzhi1obrzTEt315mIDBmgTzXn9fH5Pn0WetKl8afH/XcNcJAgACBuQL5hsCPRMzagL0vpnlm+FxCEwcskJ3krr3EZ9a6muNviHjYgJeHphEg0LBAHurPRwPP+oXz6Zi2XcPzVByBLgvkL+gTIvIW2Xk73K5N80yPLn+r1I1AhwXy186s+5nzYUK7d7juqkagCYF8WM5LIvKFOV3buS+qz2ubAFAGAQLjFchTAh+KmLax+bcYv+94abR8wALbRtteEXFFxLTvftfHuXNnwF9OTSOwSoF5zzT/QVTkEausjHkRWKJA3taXd8RcEtH1nfys+nm99xK/IIomMFaBA6Lh34hYv+G5NsY9aawo2j0IgezkPj3i7Ij13+8+/W3nP4ivo0YQ6KbA1lGtaQ8OygsGj+lmldWKwFyBx8XUr0b0aUc/ra52/nMXs4kECDQl8PNR0JURkxuivEL6TRGbRxgIdFkgH4qTV8ifHDH5He7rZ+f8u/xtUzcCAxS4f7TpXyLWbzTzTYP7DbC9mtR/gXtFE46LuCxi/fe2r3/75R8L00CAwOoF8tf+GyLWPws9H0BybIQnBwaCoVWBTWLuT474cESX39RXpQPil3+rXy0zJ0AgBR4cMe086qdj/G6ZwEBgxQL58J6XRuTtqlV2rl3PY+e/4i+U2REgMFtg05iUG9z89T+58bww/n5khIHAKgQeFDP5fxHzXm41+f3s4+c/WgWkeRAgQKCsQD4c6BMRkxvWvEvg5REuEAwEQ+MCearpZyI+HjH5vRvi51c3rqdAAgQINCzwlChv/eHXs2Lc4xuej+LGKZD37ueRpT+PuDhiiDv7yTbl9Qv5WGIDAQIEeiGwZdTylRH5sKC1jVneLvjOCC8UCgRDaYFDI0de+Z6vuV37Tg39/1x/fi7CQIAAgd4J7BQ1zmcE3BKxtrE+Lz4fEWEgME8gry15VER+f8a0019bT/LoxkMjDAQIEOi1wP5R+/dHrG3c8rDmWyLyim0DgTWB7DA+J+LvIq6OWPu+jO3/r0Tb89kFBgIECAxG4PBoyWci1jboeefAHw6mdRpSVmDbyPC4iNdHnBoxtPv1177nZf5/VzhsFWEgQIDAIAUeEa3KIwK5wc94SIRh2ALbRPMOi/i1iL+M+NcIO/yfdIbzjpkXRRgIVBbIK2QNBPoikA8Sel3EjhF5vjfv4Tb0XyAPXx+yIQ6O/w+K2DPC9ikQpgyXx7hfiPj8lGlGESgsYAUrTCVhhwSOjLrsE3F8RB4uNXRbYLOoXv6iz+HuEblzz9M7PxWRO/7tIwzFBL4ZyfLW2XOLJZeKwGwBHYDZNqZ0W2DjqF7uVPLiL0O7AjvH7O8bsceG/++94XP+st89wmOeA6GB4WNRxjMjfOcbwFSEQ2y+AwSGLJC/vPNX9hER+Yt7r4jcIWfnydAvgbwO4rcjbu1XtdWWAAECBFYpkK9gfnPEFRF5ikT01yDvfHl+hIEAAQIECMwUyEPuJ0Tkr0Q7/f4bnBfL0cN9AsFAgAABArMFfj0mXRNhxz8Mg0/EsswHHRkIECBAgMBUgXyPwokRdvzDMLgxluXvR7hOIxAMBAgQIDBdIG+fOznCzn8YBl+LZXng9EVtLAECBAgQ+A+BfPyrnf8wdvy3xLJ8dUTetWEgQIAAAQIzBfL5HfkCHL/8+2/wjViOHm0986tuAgECBAhMCvy3+MPOv98G+Sz//NW/+eSC9ZkAAQIECMwSuG9MuC5CB6C/Bvmr/5AIAwECBAgQKCzwvkhp599Pg7Vz/X71F/66S0iAAAECKfDAiNsjdAD6Z5CvM3auPxAMBAgQIFBe4K8ji51/vwwui2WWD2napPziloMAAQIECGy0Ud72l2+B0wHoh0E+0OePI7aLMBAgQIAAgcoC+Q54O//uG9wWy+m9EflCJgOBTgt43GSnF4/KEbhD4HF3fPKhqwL/GBU7KOIZEed0tZLqRYAAAQL9EvDUv+7++v90fJUO69fXSW0JECBAoC8C34+KOgXQLYNTY5k8vi9fIPUkQIAAgf4J5H3jdv7dMTg3lsczI/KRzAYCBAgQILA0gZ2jZB2A9g2uieXwsoi7Lm1JK5gAAQIECEwI7BSfdQDaM7g+/N8ScY+JZeIjAQIECBBYukA+A0AHYPUGV4X7myLuufQlbAYECBAgQGCGQO6MdAJWY3BJWB8XsX2EgQABAgQItCpwWsxdB2C5BmeH8YsjnONv9atu5gQIECAwKfDO+EMHoHmDm8L1xIjHRriqPxAMBAgQINAtgedFdXQAmjP4bni+NGKXbi1mtSFAgAABAv9ZIC9EuzVCJ6C6wc3h93cR+Vhlv/YDwUCAAAEC/RD4VFRTB6CcQb6c56SI34rI5ykYCBAgQIBA7wR+IWqsA1DM4FthdVzEnhEGAgQIECDQa4F8e+eZEToBdza4PVzy2fwvj9grwkCAAAECBAYl8NRojQ7AfxjcEBafjMhb93aPMBAgQIAAgUELfCBaN9ZOwEXR9uMjnhKRT0g0ECBAgACB0QjkxWwXR4ylE/CNaOtrIh4W4er9QDAQIECAwHgFDoumXxcxxE7AjdGuz0T8ToSL+ALBQIAAAQIEJgWeFH/kzrLvnYBsQ96q96qIIyO2jDAQILBkAYfTlgyseAJLFsgd5vsj7rbk+TRZfJ7H/8qG+FL8f0pEXtBnIEBghQI6ACvENisCSxLYJ8rNJ9wdtKTyqxabz9nPF+zkrYvficjb9HLHn9cvGAgQaFlAB6DlBWD2BBoSyDfYHRuRz7df5dvsvh/zO29DnLvh/7Wdfo7PJ/EZCBDooIAOQAcXiioRqCGwR+R9ScTzIqp0BPJ6gn+LyF/pF0ZcHnHlRPwgPl8acUVE7vzz+foGAgQIECBAoCMC20c9fj3ioxHXRiy6UDB35m+JeECEgQCBEQg4AjCChayJoxfYLARyx75fRL5VMC8YzHU/L7zLX/P53PzTIhyuDwQDAQIECBAgQIAAAQIECBAgQIAAAQIECBAgQIAAAQIECBAgQIAAAQIECBAgQIAAAQIECBAgQIAAAQIECBAgQIAAAQIECBAgQIAAAQIECBAgQIAAAQIECBAgQIAAAQIECBAgQIAAAQIECBAgQIAAAQIECBAgQIAAAQIECBAgQIAAAQIECBAgQIAAAQIECBAgQIAAAQIECBAgQIAAAQIECBAgQIAAAQIECBAgQIAAAQIECBAgQIAAAQIECBAgQIAAAQIECBAgQIAAAQIECBAgQIAAAQIECBAgQIAAAQIECBAgQIAAAQIECBAgQIAAAQIECBAgQIAAAQIECBAgQIAAAQIECBAgQIAAAQIECBAgQIAAAQIECBAgQIAAAQIECBAgQIAAAQIECBAgQIAAAQIECBAgQIAAAQIECBAgQIAAAQIECBAgQIAAAQIECBAgQIAAAQIECBAgQIAAAQIECBAgQIAAAQIECBAgQIAAAQIECBAgQIAAAQIECBAgQIAAAQIECBAgQIAAAQIECBAgQIAAAQIECBAgQIAAAQIECBAgQIAAAQIECBAgQIAAAQIECBAgQIAAAQIECBAgQIAAAQIECBAgQIAAAQIECBAgQIAAAQIECBAgQIAAAQIECBAgQIAAAQIECBAgQIAAAQIECBAgQIAAAQIECBAgQIAAAQIECBAgQIAAAQIECBAgQIAAAQIECBAgQIAAAQIECBAgQIAAAQIECBAgQIAAAQIECBAgQIAAAQIECBAgQIAAAQIECBAgQIAAAQIECBAgQIAAAQIECBAgsF7g/wMv3Z8o2j0WUgAAAABJRU5ErkJggg==;imageBackground=default;clipPath=inset(11.67% 14.67% 12.67% 15.33% round 49%);shadow=1;textShadow=1;fontFamily=Verdana;" parent="rilTDgwJUt0uwkPP9IXT-69" vertex="1">
          <mxGeometry x="1.1917520673112385" y="19.547698465643766" width="47.69346965524741" height="51.55436957971982" as="geometry" />
        </mxCell>
        <mxCell id="rilTDgwJUt0uwkPP9IXT-71" value="Proto Buffers" style="shape=image;verticalLabelPosition=bottom;labelBackgroundColor=none;verticalAlign=top;aspect=fixed;imageAspect=0;image=data:image/png,iVBORw0KGgoAAAANSUhEUgAAAgAAAAIACAYAAAD0eNT6AAAAAXNSR0IArs4c6QAAAERlWElmTU0AKgAAAAgAAYdpAAQAAAABAAAAGgAAAAAAA6ABAAMAAAABAAEAAKACAAQAAAABAAACAKADAAQAAAABAAACAAAAAAAL+LWFAABAAElEQVR4Ae2dB7gdRfnGAwmEDqG3kELvvUhNQkfpvQUBBRSpIoiIBFHpAoIU+dNROkrvSUgQkAjSCTWFXgKEllD9vy/c9Z577jm707a/3/O8956zO/PNzG/2nP12ZnZPjx4yERABERABERABERABERABERABERABERABERABERABERABERABERABERABERABERABERABERABERABERABERABERABERABERABERABERABERABERABERABERABERCBohCYpigVaarH/Hh/ILQ51A+aG5KJgAiIQCOBqXjzJvQgdAl0HyQTAREwJFDEAGBP1P1caBbDNiiZCIiACJDA36G9oI/5RiYCIhBPoGgBwD6o7kXxVdZeERABEWhL4DHs2Rh6v20K7RABEfiWQJECgAGo0XNQb/WNCIiACHgQUBDgAU9Z60Ng2gI19UjURSf/AnWIqiICJSWwCup9DzRnSeuvaotAJgSKNALwOlq8YCatViEiIAJ1IKCRgDr0stroTKAoAcBMaMGnzq1QRhEQARFoTeBxbN4ImtR6t7aKQH0JFGUKYLb6doFaLgIikCKBleD7bkjTASlClutyEihKAFBOeqq1CIhAGQhwTQCfETBXGSqrOopAVgQUAGRFWuWIgAjkSYAjAfdCCgLy7AWVXSgCCgAK1R2qjAiIQIoEFASkCFeuy0dAAUD5+kw1FgERcCegIMCdnXJWjIACgIp1qJojAiKQSEBBQCIiJagDAQUAdehltVEERKCZgIKAZiJ6XzsCRXkOAH/9j7/qZWtTkGEh20xKLwIiUBoCx6Gmh6RYWz0sKEW4cl1sAr2KXb3E2v0XKT5ITKUEIiACZSXAn/xN06JbBPWwoDQpy3chCWgKoJDdokqJgAhkSEDTARnCVlHFIaAAoDh9oZqIgAjkR0BBQH7sVXJOBBQA5ARexYqACBSOgIKAwnWJKpQmAQUAadKVbxEQgbIRUBBQth5TfZ0JKABwRqeMIiACFSWgIKCiHatmdSWgAKArD70TAREQARJQEKDjoPIEFABUvovVQBEQAUcCCgIcwSlbOQgoAChHP6mWIiAC+RBQEJAPd5WaAQEFABlAVhEiIAKZE7gCJb4SqFQFAYFAyk2xCCgAKFZ/qDYiIAJhCEyEm8GQgoAwPOWlggQUAFSwU9UkERCBbwkoCNCBIAIxBBQAxMDRLhEQgdITUBBQ+i5UA9IioAAgLbLyKwIiUBQCCgKK0hOqR6EIKAAoVHeoMiIgAikRUBCQEli5LS8BBQDl7TvVXAREwI6AggA7XkpdcQIKACrewWqeCIhAFwIKArrg0Js6E1AAUOfeV9tFoJ4EFATUs9/V6iYCCgCagOitCIhALQgoCKhFN6uRcQQUAMTR0T4REIEqE1AQUOXeVdsSCSgASESkBCIgAhUmoCCgwp2rpsUTUAAQz0d7RUAEqk9AQUD1+1gtbEFAAUALKNokAiJQOwIKAmrX5WqwAgAdAyIgAiLwHQEFAToSakVAAUCtuluNFQERSCCgICABkHZXh4ACgOr0pVoiAiIQhoCCgDAc5aXgBBQAFLyDVD0REIFcCCgIyAW7Cs2SgAKALGmrLBEQgTIRUBBQpt5SXa0JKACwRqYMIiACNSKgIKBGnV23pioAqFuPq70iIAK2BBQE2BJT+lIQUABQim5SJUVABHImoCAg5w5Q8eEJKAAIz1QeRUAEqklAQUA1+7W2rVIAUNuuV8NFQAQcCCgIcICmLMUkoACgmP2iWomACBSXgIKA4vaNamZBQAGABSwlFQEREIEOAgoCdCiUnoACgNJ3oRogAiKQEwEFATmBV7FhCCgACMNRXkRABOpJQEFAPfu9Eq1WAFCJblQjREAEciSgICBH+CranUAv96zKmQOBniizH7QktBQ0EJoNmqXjP19PB30NfQh9DH0KfQS9Aj3foXH4/xUkEwERCEOAQcCG0EiIn1FfWwkO7oY2ht73dab8ItCKgAKAVlSKs20uVGUQNBhaD+KJvzfka1/AwYvQA9CIDr2D/zIREAF3AuORdRA0EgoRBKwCP/dACgIAQVZdAvOjaf91EK9uq2bLo0EnQ/+BeCXvwsU2zzco5ynodGhVSCYCRSFwEipiezwz/e9ybEB/lD0ecql3qzyPwteckEwEKkmg7gEAP9z7Qbwib/UFkPW2Z1GPYdAASCYCeRIoYwBAXotAL0OhPru8IOCIoEwEKkegrgEAr/b/Bn0JhfqiCOmHIxB/h1aDZCKQB4GyBgBk1R8aD4X6TGokADBl1SNQtwCAC3wuh7Ia4g/xBcTRiS2rd+ipRQUnUOYAgGg1ElDwA0zVy59AXQKARYH6VijECTkvH/eh/svkf8ioBjUhUPYAgN3UHxoPhfrMciSgDyQTAS8C03rlVmZTAtMj4VHQ09D3TTMVNN0Q1OsJ6Cxo1oLWUdUSgSIRGI/KrA+9EqhSvDtgOKQ1AYGAyk2+BKo8ArAJ0PKWu1DRf5H8TES7tsn30FHpFSdQhRGAqIv648V4KNRnWCMBgClzJ6ARAHd2STl7IcEw6A5oMaiK1heN4iLBy6GZqthAtUkEAhIYD18aCQgIVK78CCgA8OPXLjdPjCOh46A6MN4T7RwDLQvJREAE2hOYiF18sFeo6QAuKL4X0nQAIMjsCNTh5GRHxD/15nDxOLSOv6tSeeDCwIegHUtVa1VWBLInwCCAjw2eEKhoBgF8bLAWBgYCWhc3CgDC9jSvhG+C6vrULi4KvAY6ApKJgAi0JzAeuzQd0J6P9mRAQAFAOMiHwNWlEH+Mp842DRp/KsS7BPhaJgIi0JoARwI0HdCajbZmQIAL1WR+BKIT3s/93Fjlfhepn4P4634vQPwhH/4uwmToM4gL8vjLgDND80BLdGhp/OcdF1nYwSiE5e8PfZ1FgSpDBEpIIJoOGIm69wtQ/2g6YCP4+iCAP7moMAEFAP6dy9uU0j75T0IZ/FWwERDv/30JcrX+yMirjiEQf2VsPigt2xeOv4EYBPDWJ5kIZEXgQBS0a1aFBSiHP+kdyvicAC4MVBAQiqj8pEqgrM8B+Bmo8MSWhj6H31sgLqrjg4TSME4B8UvicugTKI120OfvIJkIuBBwfQ5AWsdymfz+B8B1d4DLUac8mRIoYwAwFIR4dRv6C+FD+Pw9xKH7LI0riI+F3oNCt4n+DoJkImBLQAGA3+fxQQDvbQtd6UUgSwJlCwB41fwFFPJE+TH88QQ8O5SncSiSq/g5fxiyfVwHsC0kEwEbAgoA/D+Hp9oAV1oRyJpAmQKABQDnbSjkyfEG+OubNfSE8rg2gFMDIUc5OLoxMKFc7RaBRgIKAPy/a6YA6NyNUPVaBIpEoCwBQE9AGw6FOvm/BV/fL1JHtKjLIGybCIVq8xj4SmtNA1zLKkZAAUCYzx6nLGUi0IXAtF3e6U0Sgd8gAVfQh7CRcMLVureFcJaij5HwvTx0faAyVoOfUwL5khsREAEzAkuZJVMqEcieQBlGANYGFs5jh7gS5iI/jiaUyfi8g19CIaYE6GOzMjVedc2NwHEoOcRnru4+zs2tB1WwCCQQKHoA0Av1fxzy/RJhAMH7k8tse6DyIRZA8lkGM5QZhOqeCYEfohTfz53y9+ihACCTw1WFuBAoegBwaIAvIZ40d3aBU8A8/MGjTyHfL9ZhBWybqlQsAguiOqFG3nyP1zLnVwBQrONatWkgUOQAgHXj6nWfDz+HvPdqaG8VXvJWSD6syIfLVORfsgow1IZUCVwJ7z7HmfJqBCDVA1TO/QgUOQDgrXC+XyB8Ln4VbSga5bsm4OYqglGbghLgLakTIN/PYZ3zawQg6CFZDWec25a1J7AYdu3WfrfRnj8i1Z+MUpYvEYOjRaATPKr+A+Tl3RCPefhwycpbEXlHx9oQTzBc5CgLS4DB4VvQaOh+iEP5LsbnbnDE6SaIP2glEwERqBCBoo4A/B8Y+1w18DGcVf95YN5KeocnJz4IKUvbGoWNg3z6Vnnt+I0Fb57EfYyLRvmUyqch8bdjoBEAnyOvonmLctXDAOBNB8afIc/MDvlMsvRFIq5Ud31ozfvIuzI0Eaq68XcL+MMjCzk2lFeKfNbAs475bbIdhsSnQ0U59m3qXva0HAHYD7o4QEP4yOp5A/gpmwv+suaRDpU+D3l+6pBPWUQgdQJFHAHgsL3PVUaZfoo0RAdv6snrihCVSPCxCfZrRbnfce3zmWBe3g2zRkI/aXd7Akdhl0sfnNvepfaIQL4EihYAzAgcPiv/780XZ26lX4eSXb6cmId3FMyZcs2f9Kifa7uUr/sxwfUAMjcCCgDcuClXCwKcv5V1J7ANNrn+Kh+vcH7W3WUttnB4/RPHlnKqZWfHvCbZOB3DaQZZ/gTWRxUG5F8N1UAE6k1AAUDr/t+z9Wajrecj1VijlMVKxPlUXl3wtwn+DfEq7QzIZrj2NaTn/Lqr+XBPKpN3GsiKQ0D9UZy+UE1EIFcCRZoCYF2+hFyGbjmMvXCuJN0K54gFr9zbtflq7JvV0DWH8T+K8dWuDG7nYsDFoTSMq8fjyta+bPn8OI1OroFPTQHUoJOzaqJGALqT3hGbenXfbLTlMqTiVXBZbBpU9BzobCjubgoOzY9MSIPd3xrvfjiv47XtP9ZnF9tMhunfMUynZNkQ4L39MhEQgRwJKADoDn/j7puMt/gMfxsXEighf43wIsj0x4k4ZMspARM7E4m+MknYIo0P/xbu/rfpgf+90ou8CfBOjAfzroTKF4G6E1AA0PUI4EmRC5Rc7GFket4lYw55pkOZV0J7W5a9D9IvapCHz3S42yBdqyRrYmPcaESrPCbbXkGi+0wSKk3qBP6OEt5LvRQVIAIiEEtAAUBXPLzKdV39f3lXV4V91xs1uxZyGWpngMQ7JEzsCpNELdLwboB1W2wPsYl3KXwWwpF8OBP4ADk5jy0TARHImYACgK4dMKTrW+N3XDR4jXHq/BLy+Qb/gExP4q1qulyrjS223YRtH7fYbrJpsEkihzRPIc9OEH/KWJY9AZ78t4U4GiMTARHImYACgK4dwB+GcTHeNsfFb0W2WVC526HNPCvJIMLEpiDRKJOELdKs02JbqE28zZG3Nt4BceW/LH0CvLvjRmg16P70i1MJIiACJgRcV7ub+C5jmqUcKz3cMR+z9Yc4HL8qNAfEudHR0FUQr5hCGP3y5P+9AM4mWPgYgbTft0gfJXXthyh/0v9nkWALiL9dwKBvQWgGSBaWAINA3hXDBZi6CyMsW3kTgcoQ4L33LvdhhxzK5cK4LxzrsaFDTzD4OjWmzMnYd4CD3+Ysc2PDo5AL31Z5NmouIOb9yh7lzhXjV7tEoK4EuH6i1ecyadu5dQWmdhefQBECAF51Jn2IWu3n8KbpQ3KinuBiOs6Rt/LXvI0fXNepGnLlvHezT9f3j1vWhfXmVaBLea7TMShOJgKVJaAAoLJdm33DXE8s2dc0/RKXdCziDeT72DLvr5B+K8M8P0G6yyGOGNhYXyTmfKvpor0k3zyR/xhiwGNqTPuiaeKmdK790eRGb0VABERABFoRUADQSaVf50urV7b3/vNRuUdaldCjx+5Ifz3EW/hMbCAS8eS/hEligzR8xDHXKYwxSNucxJZPlN+1P6L8+i8CIiACIhBDQAFAJ5zZOl9avbK9wuWiOK7It7WtkYEr2JPy8sqZJ/8BUAjjlT9vG7zZ0Zktn6gY1/6I8uu/CIiACIhADAEFAJ1wkk6snSm7vprU9W3iu5USU7RPwMWGd0N92iRZHtt58g/1g0SfwBdXy98JuZotn6gc23UVUT79FwEREAERMCCgAKATkusJx3b+3/Q++s6adX3FW/lGQPN13fztPdattjclM377IVJuAo00ztE64UetNydude2PRMdKIAIiIAIi4L66vIrsXE84vEq2sddtErdJuyK280qfC/1oXDF/LxTq1rlJ8MXRhocgX7MNkKLyXPsjyq//IiACIiACMQQ0AtAJx/VBMFM7XRi9CvWDNJzrHw3tA90FzQ6FsLfgZBD0WAhn8GHLJyrWtT+i/PovAiIgAiIQQ0ABQCcc14cKzdzpwujVv5DKZTV9K+dcKX8R5Lp+odnna9iwAfR08w6P9651c+0Pj6oqqwiIgAjUh4ACgM6+zmqo+r8o8gDos86iC/FqHGqxPvRC4Nq4DuW79kfg6sudCIiACFSTgAKAzn51PeG4XOFyeH1niPfXF8F4rz5P/gwCQpsCgNBE5U8EREAEAhBQANAJ0TUAmL/ThdWrW5H6B1DeQ91PoQ4c9ufwfxq2gKNT1/5wLE7ZREAERKBeBBQAdPY3b3tzMS7GczWu3N8Yci3btdwo36N4MRh6O9qQwn/XpxGG+iXEFJoklyIgAiJQfgIKADr78OXOl1avfAIAFsRb7daF3uCbDI0LEXmf/6SUy1zK0f9LjvmUTQREQAREwICAAoBOSJwHdzE+la/5oTy2fp5BhiHQq7YZHdOP6Cjvfcf8ptn40KN+pomb0oVejNjkXm9FQAREoN4EFAB09j9Pvq7z8byC9zUGIPTj+ux80/LvQEL+HoHtA4xM/Tem+x7e9GzcYPj6v0inAMAQlpKJgAiIgAsB25+YdSmjLHl40uHJ1+VZ/bx6vyFAQyfCB1fj3w0tH8Bfs4u/Y8Mu0BfNO1J6z/UFLsZgLO3bJHn3Bhdhrg1xBGcaSCYCPgQ+R2Yeu3dBoyB+p8hEQAQSCHAlPT8stnK9Ym9XnSsd6sA6P9vOoeN2/mQwHxhkyyMu/d/gL+uA75+Obbgd+dK0veCcCx/jeGmf+PgcA4/g+FohhYP4KMfj9twU6iKXJSegKYCuHcio3cWWRqbFXDK2ycO5+Y2gEW32226+GBn2hL6yzeiRnlfVazjmd+0Hk+KGIdGl0LyQTATSIrA6HDMADjE9mFYd5bfmBBQAdD0AfE64PMGGNN4Hz7l6Pi/Ax85B5h9BX/s4cci7K/K4jjgMdyjPJMs2SHScSUKlEYEABDjNdCM0VwBfciECwQkoAOiKlGsAOIfnYnsgU+h55CnwuR10tUuFkOdU6CCIQ5lZm2tANBkVfTSFyrJvTk7Br1yKQByBebDzl3EJtE8E8iKgAKA7eddRgIFwNai7O+8tX8IDg4sLLT0dj/RHWuYJlZwLKVdxdHY/8qUxWrEa/Lo+lMixKcomAt8S4MLb0BcHQisC3gQUAHRHeEf3TcZb0or0eULcHzrFoCbfIM0R0DCDtGkl8eHgwz+uPS53d8T50z4RMCWwMBJyJEAmAoUioACge3fcjE0fdd9stIVP1uPinzSMw/hHQTtDE9sUMBbbN4dOb7M/i818MuIOjgXx9sTrHPMmZZs9KYH2i0CKBOZI0bdci4ATAddFWk6FlSTTZ6jnDdDejvU9Fvm2csxrku1aJPoHNBhaE5oTehfiiuPRUBrD53BrbMcgZU/j1F0T3o63k7puCvburWCe5EgE7AgweH/TLotSi0B9CMyPpvJDYqtPU0LEk6ttXRrTc/V+HY2jHwxAGlnYvN42RWgLwTenR2zqo7TiFeIYGBPwuOYooEudzg1YB7mqCAFNAbTuyPuxeULrXUZbz0SqGYxSVicRr/r/ArkeU3z2AUcA0rLX4ThN/2nVW37LT+D88jdBLagiAdcv6yqyaGwTrxTPbtxg+XoxpP+VZZ6yJz8YDfBZaMcvST5KNU07HM55m6FMBLIiMAoFXZpVYSpHBMpIoGhTAGTIh3i8B7kMtzHPV9AGUB1sFTRyKuTK6hPkzWqVNPuE6wxc66p8Ymd6DDycwnGtKQBAlYUhoBGA9hx5Ujqr/e7EPRwS5/P3501MWe4Es6H610C9PZpxAfJyIWMWxukdBizsG951IBOB0AR44cDFsIOgrI5rFCUTATsCugsgnhenAXhPPU9yLrYgMvFEswVUxZMNg5xLIU55uBpHDrK+bZHrO3aHfgpx4SL7qW5rNtBkWWACH8Ifj61/Q3nfjRO4aXInAukRKOIUQNTa3+CF6ZBfu3QMAqo42sKVxe3abLr9jxFo/RcBEUgkoCmARERKUDYCRQ4AeGX4ImR6QmuXzmc6oYj9GSIwegMNcx1dKSIT1UkE0iagACBtwvKfOYEiBwCEsQnU7sRus/0c+KnCSIDrl1Azq10IVyYCImBMwPWzx9E6mQgUkkDRAwBC49MBm09gLu9vhJ+yzjdzzv/8QBxGws80kEwERMCcgAIAc1ZKWRICZQgA+oLl+5DLSb85zwj4YZvLZHzk8K1Qc1tc3vMOC/5mgEwERMCOgAIAO15KHUOgCsPRMc0LuutVeBsK8YTna4Pg4EloU19HGeXnSnmubA71iOOfwdfzGdVdxYiACIiACBSYQBlGACJ8XMznctXbKg9vFeJP/M4cOS/Yf97bz8V+vIWxVf1dtl1WsDaqOiJQJgIaAShTb6muRgTKFABMhxY9BLmc/NrleQ3+OLpQJBuCyjwLtauzy3Ze9c9apEaqLiJQMgIKAErWYapuMoEyBQBsTX/oTcjlJBiX5z74HATlad9D4bdBcfV02cf1E8vk2TCVLQIVIKAAoAKdqCZ0JVC2AIC15w/f8MlfLifDpDwPwO9WUFZPauRaEN7qeC+UVDeX/Z/B7zqQTAREwI+AAgA/fspdQAJlDACIcRA0BXI5KZrkeQu+z4D47Po0bDk4PRniAkeT+rik+RK+GczIREAE/AkoAPBnKA8FI1DWAIAYt4P4y38uJ0ebPHxq3l+hfaGlIa5FsDGOJiwB7QVxIV6aJ/2oXd+gnH0gmQiIQBgCCgDCcJQXEMhqiLnKsG9E43aAroLSfMDPAvC/W4fw79ugYxz+vwBxPQLvrY/Euwpm6dB8+M8T/6KQbdCALM7GoOhHkFb9OyNURhEQARFIj4ACgDBs/wE3m0I3Q7OHcZnohX23eIcSE2ecgHP+O0FcTCgTAREQAREoIAEu/pKFITAKbrjQ7bUw7krr5QPUnAsKdfIvbReq4iIgAnUgoAAgbC8/A3cMAh4K67Y03h5HTdeE/lmaGquiIiACIlBTAgoAwnf8RLhcHzoe4iK4utgVaCiDnxfr0mC1UwREQATKTEABQDq9xwVwwyCuC3gbqrJ9jMZxcSKfZMi5f5kIiIAIiEAJCCgASLeT+GCdZaG/QLw1rmp2Kxq0PHRV1Rqm9oiACIhA1QkoAEi/hyehiP2hQdDTUBXsZTSCvwy4JTShCg1SG0RABESgbgQUAGTX46NQFJ/odwT0bnbFBi2JK/yPhfgEwduDepYzERABERCBTAkoAMgUd48vUdzpUF+IowJluWXwPdSVixoHQr+DpkIyERABERCBEhNQAJBP532OYrkuYDHoAKioUwN8yuBhUD9oGMQfP5KJgAiIgAhUgIACgHw7kYHABRAX0kU/zMMfAMrTeJLnLX0bQ0tBZ0Ja3Q8IMhEQAREQgfAEyvxjQKFp9ILDzSD+CuATEJ8lEP24Tlr/+QCjsyEu6psekomACBSTgH4MqJj9Uspa8WQjKxYBPkPgzg6xZvNAgyA+XIi/Asgf9uEaAld7Axmfh8ZCD0DDobxHHVAFmQiIgAiIQJYEFABkSdutLN4xcF2HIg8z48WSUH9oLij65T/+nwOaDH3SoEl4zdv1OKf/ESQTAREQARGoOQEFAOU8AD5FtR/rUDlboFqLgAiIgAjkSkCLAHPFr8JFQAREQAREIB8CCgDy4a5SRUAEREAERCBXAgoAcsWvwkVABERABEQgHwIKAPLhrlJFQAREQAREIFcCCgByxa/CRUAEREAERCAfAgoA8uGuUkVABERABEQgVwIKAHLFr8JFQAREQAREIB8CCgDy4a5SRUAEREAERCBXAgoAcsWvwkVABERABEQgHwIKAPLhrlJFQAREQAREIFcCCgByxa/CRUAEREAERCAfAgoA8uGuUkVABERABEQgVwIKAHLFr8JFQAREQAREIB8CCgDy4a5SRUAEREAERCBXAgoAcsWvwkVABERABEQgHwIKAPLhrlJFQAREQAREIFcCvXItXYW7EmDg1h/qB80NzQzN0vG/D/5/CH0KfdKh9/F/AjQe+gqSiYAIiIAI1JyAAoDiHwAzoYrrQOtDS0FLQktAvSFb+wIZXoKeh8ZCD0CjIAYKMhEQAREQgRoRUABQvM6eBlVaC9oUGgKtCU0PhTD6WaZDkT+OCIyBhkP3QKOhbyCZCIiACIiACKROYH6U8F8HcZi7KtYXDTkKegFyYREqz2so/yxoRUgmAiJQLAL8jnD5rJ9brGaoNiLQSaCuAUBPINgF4lA8r7pdPthp5nkEdfohNB0kEwERyJ+AAoD8+6AyNdBdAPl0JU+oQ6GnoasgzvFz6L9otjoqdAn0InQINCMkEwEREAERqAABBQDZdiJ5/xjiCfUyiIv6ymD9UMkzoZehgyGtHQEEmQiIgAiUmYACgOx6b2UU9U/oLxBPqGW0BVBprg/gyMWGZWyA6iwCIiACIvAdAQUA6R8Jc6AInjS50p6r+6tgvBWRdwxcDs1bhQapDSIgAiJQNwIKANLt8Q3gnlfLHDbngr8qGdcs7Ak9A21epYapLSIgAiJQBwIKANLpZZ4cuWiOV8kLpVNEYbzOjZrcBnGUQ3cLFKZbVBEREAERiCegACCej8ve+ZDpboiL5upyQmTAw1GOERCfZyATAREQAREoOAEFAGE7aCDc8Z7+jcK6LY23dVBTPjtgpdLUWBUVAREQgZoSUAAQruNXhauHoMXCuSylJz7UaTS0cSlrr0qLgAiIQE0I6H7uMB3NW+L+Ds0axp2xl3eRko8OfhPiY5Gpj6HGXwfkCXlxiP+zMv4y4c3QrtA/sipU5YiACIiACJgTUABgzqpdyk2wgye73u0SBNrOE/soiPPsD0JjoQ8gU5sdCZeA1oYGQ7xDgbcopmUzwPH1EIOA69IqRH5FQAREQATKTYBXp/91EK9487Q1UDhPzC51N8nzEXxfDPGEHTpY422JnLM/H3ofMqmPS5qp8D0EkomACPgT0G8B+DOUh4IRKGMAwMf4cgje5aSYlOcp+OVvBcwEZWEcvdgJGgMl1c1l/2T4XQWSiYAI+BFQAODHT7kLSKBsAcCCYDgBcjkZxuXhCvqtId5Wl5dtioK5iC+uni773oLPRfNqlMoVgYoQUABQkY5UMzoJlCkA4FA85+JdToLt8kyCv0OgIt2VsSXqEzrIeRI+9YuCgCATAUcCCgAcwSlbcQmUKQD4AzC2O5Hbbv8Gvi6A+hS0a3hXwx+hryHbtrVLf25B26pqiUAZCCgAKEMvqY5WBMoSAHAx21dQu5ObzXbOi3PevQzGdr8B2bQvLu1uZWi06igCBSSgAKCAnaIq+REoQwDAOr4NxZ3YTPdxrr8/VCbjuoeRkGkb49J9CD8DIJkIiIAdAQUAdryUOoZAkeacY6pZiF2noRbzBqjJvfDBK+rxAXxl6YIjAJtAVwcolM8k0FRAAJByIQIiIAJlJ1D0EYD1AJjz9XFXtSb7roCPsv9AEO9QYDBk0t6kNLzjQSYCImBOQCMA5qyUsiQEihwATA+Gz0BJJ7Ok/ZfAB0+eVTEuDkxqc9L+8fDBxxbLREAEzAgoADDjpFQGBDQFkAzpUCRZJjlZbIpbsPfHEE+IVbGfoyFXejamH/If4+lD2UVABERABBwIhH68rEMVCp2Ft8Ex4vaxB5F5Z4h3D1TJGMzsA80D8eFBrsbnH5wB8amKWRtHd5aHuMCRv10gC0tgCty9DvHJllU7/sOSkjcRqDGBok4BHIk+SRrGjtv/DvIvVPF+nQvtm+DJ6Q8ZM5oP5XERIm/FjOs/7QvDh781cTo0JyTzI8ALEpfjUotu/bgrd4oEihgA8Il1b0IuHzbm4cNzNoPqYGujkV9Arqx4Is7qYUiroyyffnVto/L16DEO7JeFZO4EFAC4s1POJgJaA9AEpOHtvnjNwMTVOKx9p2vmkuXjNMfxHnWeDXl/5pHfNGs/JLwN8ulX07KUrjuB/th0BzRv913aIgIiUFcCRRsB4Gr9FyHXqzYOiddtdTvn033uluBDltK+RfJ6jz51PRaUr/vn6C/oB5kbAY0AuHFTrhYENALQAgo2cUh7sda7jLbyzoFPjVJWJxGnAH4C8YTnYrwq9FlMmFTmgkiwXVIi7c+EAH/qmqM+MhEQgRwJKABoDX/P1puNtt6NVH83Slm8REuhSjyJD4MYxAyBekKmNgoJrzNN3CKdD/cW7rps2gDvOLIjy59Ab1RhnfyroRqIgAgUgUCRpgB4OxhXLbsO3a5bBKCWdeBzDviI4lZtnojtu1r4Ww5pXZ+aOAV557AoyyYpn1vQqn3alg+XH9l0ntL+j4CmAP6HQi98CWgEoDvBH2CT64r0+5H3ge4uC73l+6jdv6AN29SyL7b/DTq1zf7mzU9jw03NGw3fM/jawTCtbbJPbDMofaoEPk7Vu5yLgAgkElAA0B3R5t03GW85yThlMRLyZMvpilkMqnME0vBphiZ2okmiNml8+Ldx+e3mJ+N2al/mBNQfmSNXgSJQTAJFmgIYB0Quw8IcKi9TQMX5dj6dzaat7yE9n45oYvyCt/EdpZ2EfGlwpM9xjnWK6qb/bn3azO1x9IPMjYCmANy4KVcLAml80bYopjSbBqCm/R1reyXyce67DLYfKnkpZLPAj+3iU/+24QsDu8IgTaskc2LjSq12eG5j3/zK04ey+xNgMMCTmEwERCBnAgoAunbA4K5vrd65nvCsCgmQ+FD4OB9y7fvvGdbhr0j3tWHa5mRDmjcEen8V/JwZyJfcuBEYhmx3uWVVLhEQgZAEXE8CIetQJF8bOFaGDw16zjFvltmORmF8QuE0HoVyFMDE3kCiR00Stkjj2g8tXHXbdBi2HAx91G2PNqRJgFM7+0C/TbMQ+RYBETAn0Ms8aS1S8hY2Fxvukqkhz9J4vRo0B8RbEO+HXoNC2u/g7JgADrkOwNTIZQ3TxA3pXPuhwUXsy7Oxl6MBXAS5NsQ1KD5BEbLLWhDgtMub0GjoemgyJBMBERCBLgSKsAiQJwDemtS8YMnk/c5dWmP+Zn0kHdOiTH5x3gItCfka2/VHyKQdJmlsHtazsWO5nDqYEZKJgAh0JaBFgF156F0FCBQhAFgIHE1OgK3S8DGztnYAMiStwucw9Q9sHTek5xTPeVCrOrts4zDu7A3+k17OhAQ8mbuUtXySc+0XgRoSUABQw05Pq8laA9BJ1vVqm8OanO+2sc2Q+M9Q0ir8WZHmRmg3yNbo+2KIgUYo4yp6m2Hcz5B+gmPhrv3hWJyyiYAIiEC9CCgA6OzvxTtfWr163ip1jx5cd8E5aFP20yEt7zDgrXumxjx/g/YyzWCQ7hykucAgXXMSWz5Rftf+iPLrvwiIgAiIQAwB05NQjIvK7Orj2BLbE9yGKGcxy7LYT7x17xcG+XojzQ3QTgZpTZOchYRcOe9itnyiMlz7I8qv/yIgAiIgAjEEFAB0wpml86XVqzetUvfo4fpjQVzMdwp0Qkx5nHO/GdoyJo3trhORgc8O4Dy+i9nyicrg9IdMBERABEQgJQIKADrBup5weOeAjc1tk7hF2l9j258gBgSNxvrfAW3SuNHz9bHIz3l/H7PlE5Xl2h9Rfv0XAREQARGIIaAAoBPObJ0vrV7ZnuA+sPLeOvFB2Mx1AVxPQOPzA+6CeFthCOPV/s8hPjvA12z5ROW5jshE+fVfBERABEQghkB0AolJUptdMzu29FPLfP+2TN8u+e7YMQN0CHQLtDIUwvgMggMhrjkIYQoAQlCUDxEQAREITEAjAJ1AP+98afWKi+5s7E4kfscmQ0za7bHvJSjUyZ/37O8DhTr5w1UPWz7MQ/viu3/6KwIiIAIikAYBBQCdVF2vVG3nqnlv/NGdxXq/4ihACPsSTvi8gctCOGvwkdXUSkOReikCIiACIpBEQAFAJyHXAMBlrpoP6OFCvqIYRz/4XPxrU6iQbYAUVcG1P6L8+i8CIiACIhBDQAFAJ5xPOl9avZrTKnVnYt5ad3rn29xecURiK4i3D6ZhrnwUAKTRG/IpAiIgAh0EFAB0Hgofdb60euX6xDqutD8C+o1VaWET8yS7BXR3WLddvLnyce2PLoXrjQiIgAiIQGsCCgA6uUzsfGn1akmr1N0T88E+XHXP1fdZ2ocobFPo/pQLXcrR/wTHfMomAiIgAiJgQEABQCek5ztfWr1aGKldbyGMCjoXL34EcRV+FvYuChkCPZRyYTy+FnMs4wXHfMomAiIgAiJgQEABQCck3k73Vedb41d8It9qxqnbJ7wEu7aHXG9HbO+565638Za/R/CfrptTebccvPLxxC421iWT8oiACIiACJgR0IOAOjnxvvPxkMsV62DkCzGUfhP8bAtdD7meOJG1rU3Eno2gF9umCLuDXFzsfWR6zyWjZZ7ZkX51aAFoRsu8Si4CzQQ4rcbP2Bgoq9G85jrovQiUjsD8qDEXxdnK9il8SWBucagD6zwqybHl/vWRfjJkyyMuPUc4+lnWwzc5A5q4OrXb90/fghPyD8D+qyCOtrSrg7aLjesxwOD111AaQeVRjscspxllItCFgKYAuuDo8XDXt8bv1kRKXk2GMgYUHKYPdRXM4fQNoAlQVtYbBbFMF0tzbcIgVOhRaBdoekgmAqEJzAWHXNw7EpoHkolAIQkoAOjaLcO7vjV+xxPJjsapzRL+G8l4An3DLHnbVE90+Hm9bYp0dvwAbl2DItd+SGrJEkjwD6hPUkLtF4EABNaAjxugngF8yYUIBCegAKArUp50eW+8iw11yZSQ51nsXw8al5Cu3W7ORQ6B3mmXIMXtezr65iOJRzvmTcr2RyRwDUqSfGu/CLQiwM/v3q12aJsI5E1AAUDXHvA5+awLVwO7ugvy7hV44ZcIgwEbewCJueCPC+qyNg57bu5YqE8QFlfkItjJhx7JRCBrAgdkXaDKEwETAgoAulO6r/smoy3TINVhRintE3H4ntMBnLs2MbZhMyivp+kdhLI5LeJi97pkMsizPtKwj2QikDWBVVDgbIEK/W8gP3IjAj0UAHQ/CK7Fpm+6bzbasi9S8Y6GNOw9OB0E/TXGOet9NsQr3dB3SMQU22UXv+gYALja1a4ZE/Kl1S8JxWq3CHwbeM4XiIPriN6kQOXLTYUIKADo3pmvYdPw7puNtvC2n8ONUrol4g8W7QGtBZ0HPQa9AnGu/wxoRehgiM80yMsORMFzOBbOEQ7bqQ7ToiabJlQ6EUiBQKjj7xnHuj3tmE/ZRCB1Arw649CWrdK6yh3qUJeo7p8h7wCojsarHD4MJWJh+/+QFKGt7lEv23YovfsxUEV2r+LYCzX9xIu2iZbHMhc2a/ErIMiKSaBoAcAswMQPjeuX0S3FxJx6rS73YMYFmPOmWEN+AfP3Hlz7VPnEzvUYOCXwcb2X5XF8TODy5U4EghIoWgDAxl0AuX7gmW8bOqmRbYC2cg2CK7PrMmC1tWcdXdumfO7HRdnZvY1jbq4Ujm3T76dbUbaeQ5BCB8hlOAJFDAAWRfN4Ver6BfQW8rJddTDO+XMtgisrBg4rZwTqOI96urZP+dyPjTKz410466R0XHNE61cQpxxbMeJ31x+h6SCZCBSaQBEDAAK7Amr14TLdxtvxqh5984voRk9OvErJ0riQkgGaaT8qnVjZHgMP4/haLoODeiGUcSR0E/QviJ+l46DFIZkIxBIItTAlthCDnQwA3jRI15yE0e/MzRsDvl8Gvp6CfO6W+C3y8wNZVTsUDTvDs3FrI3+az/9vVT2u8/g+xCs0Ll4symcBVZGVlADvvpkA3QWNhhg0yERABBIIFHUEgNXmcwFso//G9Bze3puOKmjboU1fQY3ttX19dwW5qEkiIAIiIAKGBIocACyCNnwC2Z7YGtPzJMmTZZVsAzRmCtTYTtvXnKdcvkpQ1BYREAEREAE7AkUOANiSoyHbk1tzek5XuD4fn3Uokq2Lyvjc7x+xOblIjVJdREAEREAEsidQ9ACAz7V/FopOXK7/ecW7T/Z4g5a4JbwxmHFlEOWbCB+ch5eJgAiIgAjUmEDRAwB2zRCI8/nRCcz1P30cCZVx0dlPUG/fOf+I27bwJRMBERABEag5gTIEAOyi06DoBOb7n7ftzEmnJTBeqV8J+bY5yn9hCdqsKoqACIiACGRAoCwBAB+qwdvVohOZ7//x8MX59CLbqqjcWMi3rVF+3lY5Y5EbrLqJgAiIgAhkR6AsAQCJ9IXeg6ITmu9/TglcDs0LFcn44yFnQaGG/MmJd1Pw2QoyERABERABEfiWQJkCAFaYC+G+hnxP/o35J8Eff8o376tjLnjcDwr9pDwGOrtDMhEQAREQARH4H4GyBQCs+AFQ4wk81Ot34HcYxOfrZ2m9URhP/FydH6otjX743HKZCIiACIhAQQgUZSU6A4AiPgo4qZuOR4LfJCVy3M8fErkB4vTAKIhX0GkYH8O7J7Qz1CeNAuDzbIijGzIRqAMBPp6cn6uBUNaBfB58p6JQXrg8Ar2cRwVUZrkJlHEEICJ+Hl40Xumm8XoCyjgf2gnyXSvAOw/4VMJzoJegNOrb6PNqlDEtJBOBqhOYCQ08EZoMNX4G6vT6frR9NUhWAgIaAfDvJP7aH3+be19/V0Ye+GXCE/dz0PPQCxCjby6w4xcP//O2vdk6/s+D/0t0aOmO/1mdkK9HeZz3/wKSiUCVCfBunkugxarcSMO2cX3UKRBHSD83zKNkNSZQ5hEAdhsDqWFQnSL9pLZeBB69IJkIVJnADGjcSVDIu2WSPltl2f80uPA2YpkIxBIoewAQNe5neMHotywf0LTqyS9EmQhUncCKaODjUFqfoyr45ePP+X3Au4tkItCSQFUCADaO8/QfQ1X48Nq2gb8OuA8kE4EqE+DJ7ASIJzfbz0hd048Bq2UgmQh0I1ClAICNWxJ6AqrTh53rEXhFJBOBKhNYA43TVb/bdxsvEI6GNBpQ5U+IQ9uqFgAQAecGz4LqEARwsV8dbndCM2U1JcDjm59nzfX7f6dx4fImNT2O1OwWBKoYAETN3B4vXoeqGAjw7oOhUUP1XwQqSIALfPeC3oaq+BnOq018rsmVEL/7ZTUnUOUAgF3LB4MMg3hLTF4fuJDl8sN7OTQ3JBOBqhLgVN49UMjPjnx15fkh+B4C8XZqWU0JVD0AiLp1BbwYDZX5S4CLeTgPKhOBqhKYFQ07DeLzK8r8WS1T3R8F67UgWQ0J1CUAiLqWDw25BSrTB/Q/qO+OUFEeHoWqyEQgKAH+3Pd+0FtQmT6bVaorR1yWh2Q1IlC3ACDqWgYCd0BF/gCPRP02gmQiUFUCfDLmntA4qMifxbrUjbdXXgAtBMlqQKCuAUDUtYvgxVHQi1ARPuSvoR5c8bwyJBOBKhNgcMvRrSJ87lSHrv3wKfqFDxHqA8lSIFCU4VwGAGX8NcDQXcL+WAfaA+JtMgOgrIwn/buhv0IjIS70k4lAVQmsjYbx5LJeBg3kQjfeKlu1z9SyaBO/r9K291HAydDZEJ8lIKsYgbqPALTrTgYA/JGhK6GJUMgrBN6aeA20P7Q4JBOBqhNggL0FNAIK+VmK83UryqrqUDZ5/hTK6smnvO34WGguSBaAADuwCKYRALNe4OrkJSDenrQUNBCaHeJthvz1P76eHvoS4lUHfxmQ+gh6BeLT+sZCfBDHZEgmAnUgwM/ErtAR0HIZNfgDlHMoxNtlq2790cD/gzbMqKGcGrgYOgMal1GZKiZFAhoBSBGuXItATQnMgnYfAoUePYu74ue+26CFoToZLyb3g3hhkcQn1H7+8BrvploTkpWYgAKAEneeqi4CBSPQD/Xh/D5HwUKdbEz8vIfydofqbGTPtUQmvEKmuRdlfh+aFpKVjIACgJJ1mKorAgUj0Av12Qa6HeKVYciTS5IvLu67BJoXkn33rJA9AYILu5PYhd4/AWVyncCCkKwkBBQAlKSjVE0RKBgBzunzap+LWkOfTEz8PYZyeUeBrDsBrkviPD3XJJmwDJmGZd4E7QDNAMkKTEABQIE7R1UTgYIRWAj1+Tn0OBTypGHji7emcQW8nmEPCAnGIG0kZMM3ZFouyLwQ2gDSFAEgFM0UABStR1QfESgWgf6oDhf0PQBlPcTfeDLicD9X9mu4HxAsbUukz3pBZmPf8TXXabD/WBfeHSIrAAEFAAXoBFVBBApEYDrUZRB0IvQE1PxFnsf7+1EPrTgHBA/jrczsU97Kl0cfNpbJUZy/QUMhnoNqZ3oOQO26XA0WgUIS4FD68tC60EbQEIgniyIYA5BfQVxg6GNs46bQYIjTGFy4WCbjLX5kcQPEBX4+xkV6XKy3L8RgL29jYMC23QWNgh6EeBeJLAMCGgHIALKKEIECEZgHddkE+jV0B8STS+PVWRFev4Q67QZNC/kaT/wvQEVol28dvkA7ToNmgXyNTyG9GuLUim+9QubnNNOT0J+hPSA+9ljrPQAhDVMAkAZV+RSB/AnMgSqsDvFEegJ0M/QqFPLLOrQvXt1ygV+IK1M+tvaygrfXld84tItBXAhbBU7uhFzrkkU+Tls8DJ0LHQhtDPWHQgSIcJO9aQoge+YqUQSqRIC3enHofgC0IMSh7ej/YnjNK/2y2FuoKG9b41Ufv+x9bRc4OAuq+oJBBjiHQ5xT97VBcHAMxGmgstjnqOjL0HiIx9BrEINI/n8O4j5ZDAGNAMTA0S4RKCCBJVCn6yF++WVx9ZVmGS+gDftBvaEQtjCccKQjzToXzTdPfDuFgNfhY1X854+VfQUVra229RmLNnCtQ1EuuFGVYpkCgGL1h2ojAnEEtsfOKZDtF2HR0j+CNvBBMaGGcHvB18FQEdczZMX+JrR/IBTKFoWj86AqHG9kM2MoMFXyowCgSr2ptlSZwDpo3BdQVieUNMrhSu8hgTuJ/p4qOZdQrHmy5noP/kppKJsPjn4PcZohVD3z8PPXUECq5EcBQJV6U22pKgFeKT8D5fHF6VvmJNT7TIiruUNaPzi7DvKtXxXzTwSXnaGQQ9+88+BH0L+gsjILtXASCKphCgCq0Y9qRbUJbITmlelLl7eWjYB2h2aAQhqHco+DPoPKxCSPut4PRitCoW0FODwb4qN+82iXa5m3hAZRdn8KAMreg6p/HQhwCNb1Sy/LfFyQdjLEhYqhbTo4PAB6HcqyTWUvi/fVXwFxTj+0MRjbExoFlYHTJ6hnyFERuCu3KQBw7z8eSH2gRaCloVWhZaB+ELf3hGQiEILAJXBS1C9YXonzroTtIJ6kQxunP/hAGN7SVVQGZagX14+cB/FW0TRsKThloFr0fpozjcaX1acCgPie4+pintj5BfQ76FqIv4TGSNLkQ88vx6cgfkH+AdoLWgNK44sSbmUVJfBXtMvkeMsqDReb8XY7DvGn9dhgBtjbQPz8ZNWuOpTD76RTobmgtGx1OD4NmgAVjSnPebIOAgoAuh4KvNpYCTocugWaDKVxADOAuAM6EuKHRaMFgCBrS6AIAcB7qN1l0PbQLG1r6r+Dn8EdoX9DaXz25PM7rvxuOwlaAErTVobz46BHoSI8dlgBQENvKwD4DgZP+n+E+BSpPL4g3kW5Z0McHZCJQDOBPAKAL1GJf0LDoHWhtIPUGVDG/tCLUB6fwbqWORW8L4SWhNK2hVHAvtBV0DtQHswLEQBweKsIRhg86dkah5Fmts1UsPRzoz4/hIZCfKRqUWwsKnIldBH0VlEqpXrkSoABwG4p14BzxLxK40mfi7ruhz6C0rY5UMBPoEOg+dIurMM/TzyXQg93vC/iP46yHAGlfYUetZ1X5zdBXMT5r2hjiv95DuSF1yCIAebaUBYnZ/LU9yog0AjcJQr79Nvc5fzDA+A06GPIpe1Z5eE86zlQP0hWbwIMAEIed1/DHwNNXon9AloP4hV4lsah4fMgBhkh25bk6zmUtwFUBmNwREbsr6R2hdzPIJAXRjNCWdpiKIzlngUxCE3j2MgiyEDVy2F1CgD6oUvOhXhiDflhSdsXr8wuhvjhkNWTgGsA8BVwvQTdBp0O8bn760BpzuHDfVvjqCGHgHmFmfbnptn/VJQ5DOoNlc3YZ89AzW1K+z2f/seTMe9uysO4HmRxaEfo1xBHRsdAkyHXtisAALzI6hAA8APPg4fTFq4HTRHyfY76806CmSBZvQi4BgAHFATTqqjHnyGfL26fzyCvJpcuCAvXakyPjMdCeV3AjEbZe0J5BY8ouot9incux4QCgAaMVQ8ABqGteUTOLgemaZ7X0CYOk8nqQ6CMAcCy6J5h0FjI9NgOne51lM1RD15JVsX6oiGXQ6FZmfpjAHILxO+gPIMBBQDoAF+ragAwO8C4fmmafhDyTvcPtJELGWXVJ+B6LGc9ArAkuuI3UN5BN09Sv4fyPEGh+FRtI3h/Gsrze4jrqHhsbgVlPbWiAADQfa2KAcAqgFKXW4leRVvX8z0IlL/wBIoaAHA6iieik6B/Q3mejKKyeXU6EKqD9UIjOcKR1y11EXP+5wn5HugoiFM+aZsCgACEqxYAHAQmU6HGA7Pqr79Ee4+GqjTMiebIGggUJQDoiTqtDPFL/j6I61KK8vl6BHUZDNXR5kKjz4SK9N33MurDRdfbQLybIbQpAAhAtCoBABfIuH5JFuULzLceN4OBFggG+FAU0IXrse07BbAgWPALnFf4IyAO+foep6HzP4M6bQsV5dkqqEputghKvgjiRUFozj7+vkF9noMuhX4KcYRgOsjHFAD40OvIW4UAgPN8d0M+B2hV8v4THObs6Fv9qw6BrAIAfpZ+DF0DTYSK/Ll4BfUbCnFUQtaVANdisA954i1qH/KurAegP0AuP1msAADgfK3sAcA8AMChvzwPct4ry7l4DnlNgPg+zw8eFwYtDMmqQyCLAGBn4HoPyvOzZFI2P2O8iuSonyyeANdD3QTl+X1k0qes398gm6kCBQAA5mtlDgD4RL+xkMkB5puGc52jIQ6F7g3xsZWcd4uzPti5JjQU+j00HJoC+dbFJD+/JBeFZNUgkHYAcCAwFf0k8SzquBc0XTW6NNNWLIfSroCKNjXQ/F32GOrIO7hMTAGACaWENGUNABgpPgE1H0Ah378N/2dBm0J8glkImxFOhkCnQq9DIevb7ItPgJsPkpWfQJoBwOrAU+QTA0f4toW0yNX/OO4PF3y8eJEfisZAxcQUAJhQSkhTxgCAJ9FRUPMJL8T7r+H3BugHUNpXGj1RxiYQh774uN8Q9W/2wYh6NkhWbgJpBgB3AE3zcZP3+69Qp5ugDcvdbYWtPS8Mfgu9CeXd183lcySKIxZJpgAgiZDB/rIFADxp8gTdfND4vucJ+HJoKSgP64dCOdqQRmQ+An5nyKNRKjMYgbQCgD6oIU+2vp+fUPk/QF34ORgAydInwHUUO0L3QEWaAhqG+iSZAoAkQgb7yxYAnIY2hfqyifz8Az6L8oWzEOri+mUftafV/wsNjgUlKS4B12PigIQmrYv9rY6XrLc9jHrsCWX9NLkEPLXavQJaewH0CZR1/zeX93cD8goADCAlJSlTAMBh+ZBR6ivwR59FtCGo1HNQ8wfD5/3uRWyo6mREIK0A4PuBjzGb4/M1lH0KZDLcawRJiYIQmBVefggNhzglatOnodKORLlJpgAgiZDB/rIEAAujLe9CoQ4wDvfPYsAnzyS8GuJwaKighw9xWTrPBqlsZwJpBQAMgEN9pkz8TEF510JbQnyMrazYBDgieQj0H8ikf0OlGYnykkwBQBIhg/1lCAD4RcEHRoQ4uDi8tZcBlyIl2R6V+RAK0f7H4UfrAYrUu2Z1KXMA8BGayJP+blDRg26z3qhnKj6970SIt2OG+C6K8zESZSSZAoAkQgb7yxAAHIF2xB0spvu44nUlAyZFTLIkKjUOMm1rG6qrvwAAMdBJREFUXLrfFbGBqlMsgbIFAPyscT55c6h3bMu0s4wElkClj4T+CaUxTTASfpNMAUASIYP9RQ8AOPTPoeu4E5rJvpfgY6ABjyInWRCVexIyaW9cmqnwwYBCVh4CRQ8AeEyNgH4DrQVNC8nqQYC3FP4Q4rTqa1Dcd4/pvpHwk2QKAJIIGewvegBwHdpgetC0S8chKx6kVbA50Ag+GKVdW02331MFGDVqQ9ECgC/B/iHo99BGEJ/NIRMBEuDoAO8+uQZ6BzL9TmpMNxL5kkwBQBIhg/1FDgA2Qf0bDwqX14xI+xlwKFOSuVHZEHcI7FymRte8rkULAO6veX+o+WYEuNjT5Xt7pIH7UgcAGiKL7+FpsPv0+CSJeychxcbQhMSU5UrwHqq7GfS6Z7VPQv7pPH0ouwiIgAiIgCUBBQDxwLbG7uXik8Tu5a1zu0C8Uq6iMajZDuITDF2tPzLm8WwAjuxwePBViEPJLlcIZcwzBW19ETofWh6SiYAI1JSAAoD4jv9V/O7Evb9HinsTU5U7AdcC/NKzCUcjPx+vnIXNikL4hK+7oJ0gLvDsBdXFePvlYtD+EG/HPBHS9wAgyESgbgT0wW/f47xCXL397sQ9o5Di+MRU1UhwJppxs0dTuGBnB4/8plmnR8LboW1MM1Q8HT//DN74oCeZCIhAzQgoAGjf4by/1NU+R8YfQbw3tQ7GofCfQHzYiqsd5ZrRIh9HdNa1SF+XpD9DQ7eoS2PVThEQge8IKABofST0w+bBrXcZbT0ZqTjPWid7A40d5tHglZF3RY/8SVlnRILDkxLVeP+xNW67mi4CtSSgAKB1t++Bza5sXkFermwvqy2Aiq8EDYBs58bPRp6nIFfb0zWjQT4GdJz/l7UmsCY2z9t6l7aKgAhUkYDrSa6KLBrbNLTxjeVrLvzjSusyGefGD4Keh3glzx/dYCDzNnQuxKf/mdhXSHScScI2aXbD9rQWAy7apkxt/o7ANPjHxYEyERCBmhBQANC9o9fCpiW6bzbaMhGprjBKWZxEPLnfD/0Jam73nNjGuf1noI0gE7sJiZjexTj6sLFLRoM8OtaTITEIkImACNSEgL4Uu3f0tt03GW85FSl5T3lZrD8qOgpi0BNnc2DnLdAqcYk69vHZB38wSNcuiQ//dj65nSMasvYEuJBTjNrz0R4RqBwBBQDdu5RzxS7GR0Je5pIxpzyLo1ye/E2Hxnn/+MWQyVUifzvhXcjFhrhkMsgzAmk+M0hX1ySPoeFv1rXxarcI1JGAAoCuvc4rXZOr3K65vnvHh8vwFwPLYMuikvdDfS0ry1X6JlMBHAW52tJ3lJzz0ItEbwL+/wS+uEhR1pqAz6hNa4/aKgIiUGgCCgC6ds/6eOu6CK0sc/+83W4kxPl2FzMJAOjXh4frKExSe36LBI8mJarh/kvR5htr2G41WQRqTUABQNfudz3xTIKb+7q6KuQ7zvUPh/hLfq5mOmowBgWMcyxkiGO+pGycAtgUujcpYU32c97/z9B+NWmvmikCItBAQAFAAwy8dB3+53D6111dWb/jPer9oJmtc5pl2ADJ7oY4zeFjn1tkZrDhYq79YFIWg7VNoB2hO6GyTNugqsGM6zM4RbMOxKcAlmnhKqorEwERCEGgVwgnFfKxhGNbXE90PNkfBu0JRWV/g9e8D/986DIoxJczT3hcozAT5Gs2t/iRy74OBXIdAINTskjDeOV7fYfofxZoOr6ogfEZFVNr0E41UQREIIGAAoBOQLwynr/zrdWrkVapv0u8LP7dBvGqv9F44lsVuhDaG+KV6huQq22FjNdCvV0dNOTjKAcDCVMbYZqwKR3vOCCXcU3b03rLBYIyERABEagVAU0BdHZ3dAXeucXs1RdIxifo2dgiSMyTI09ycbY2dj4ADYxLFLNvZ+zjlW6Ikz+LuQR6mS8MjbeVcbjZxZZ0yaQ8IiACIiACZgQUAHRycj3hvAQXfASujV2AxPMYZhiAdKMhjhjY2F5I/Fco1ND24/DF6Qpbsw2OIv+u/RHl138REAEREIEYAgoAOuHM1/nS6tULVql79FgB6TezzLMg0o+EVjPMdwDSXQz1NEyflIwnf64jcBkqt+UT1cW1P6L8+i8CIpA/AU4z7wBxSpN333Dh7Z+gQZAsZwJaA9DZAVwI5mLjLDNtapk+Sj43XtwHbQmNija2+H84tp0GTdNin8umfyHT5tAHLpmRx5ZPVAzvipCJgAiUl8DqqPqVUPP0Kr8DD4JGQkOhVyFZDgQ0AtAJ3fWE81GnC6NXnP93tdmQ8Q6IJ+RW9mtsPB0KdfJnoLEx5HryR9YetnyYh+baH9/l1l8REIE8CWyDwjl12Xzyb6zTILzhBcbAxo16nR0BBQCdrF1POLbD4rbrBTpr+N0r3sr3D4h3BzTaH/DmhMYNnq/vQX4GGr73ySsA8OwIZReBkhHYFfW9DuptUO8FkIZ3KelcZAArdBJB7yTqGgDYniBdF8V11rRHj+nx5iqItwnyav9M6GgolN0CR1tCIX48x5ZP1AbX/ojy678IiED2BPZBkVdANtPLqyJ98wVN9jWvYYkKALLv9JtRpO8oAGvdE7oIuh86BApljMa3hz4P5VB+REAEakHgQLTy/yB+N9maAgBbYgHSKwDohJjVleobKPKCzmK9XvHqfz0vD10zX463u0Ehnj4Yeea6BRdz7Q+XspRHBETAj8AvkP1siN9JLraiSybl8SOgAKCTn+sJx+XugaNQ7KOdRRfiFR89vDf0deDauA7lu/ZH4OrLnQiIQAKB47D/FMj15E/3M/OPLFsCCgA6ebuecFyucD9FsXwWQFGCgDNQl59C30ChzYUP6+DaH6HrL38iIALtCZyMXcPa7zbe86pxSiUMRkABQCdK29X8Uc4B0QvL/+8h/SBouGW+0Mn5AT4c+m9oxx3+Bjr6db17wLE4ZRMBEbAgwKt9XjgcaZEnLum9cTu1Lx0CCgA6ub7d+dLq1ZJWqbsmZtCxJcSnY+Vhx6DQX6ZccNx9wHFFvxO3U/tEQARyI8BFfnyy36GBasAFx/Qny5iAAoBO4M93vrR6tShS29zy0uyct9ptDd3QvCPF97za53P9+eyAtM01QHLtj7TbI/8iUGcC/K67HNo3IIRj4Wt8QH9yZUhAAUAnKNcTDu/Jdz3JRaV/gRc7Q5dGG1L8z3l+/lYAnx2QtvE3DPgIYxdz7Q+XspRHBEQgmQC/63ibMO8UCmV/hqNTQzmTHzsCPleudiUVP/VkVPEtaH6Hqg5Gnmcc8jVm4er7fSAufjuocUfA1yxjb+iKgD7jXA2K2xmzbyr2TYjZH3rXrHBYl88C2U4JDVD+Kk9gRrSQo5SbB2wpf7Mk1BqCgNWqj6u6fOmZ9iivOl0CgCHId45pITHpODR/MMRg5Ncx6Vx28d5+Ru7Xu2R2zEMuLvYiMqVxR0JUFy5g4ogLA661obrdgjQJbebi0z9BD0AyEYgjwM8HH2Dm+nlu5fu32MjbB2U5Epg2x7KLWPR/HCu1AfJxYUwo45wYI2MGBCGMV33bQVme/FnvDfnHwR5zyGOahVMSPPldBfGHjup28keTe8wF7QiNhs6HpoNkItCKwOzYeBcU8uT/S/jTyb8V7Yy3KQDoCnxE17fG7+ZEyo2MU5sl5LwY5+p9r4S5yHAr6FYoS1sDhfV3LJAn6DSMw5i3Q4PScF5Sn/uj3heVtO6qdroE+sA9T/7rBCqGFzRcfHxyIH9y40lAAUBXgPfjLefJXWxPl0wJef6C/btDHL53sU+QaUvoHpfMnnl8eIz0LLtd9t9ix+rtdtZ4O/tqhxq3X03vTmBebBoJrdl9l9MWXsj8GMpi8bFTBeuYSQFA117n3PujXTcZv9sWKWc1Tm2e8Gok5Zczh/Ft7AMk5hB8WlfTcXXhkPIucQli9r2IfRNj9rvumgUZD3TNXIN8R9egjb5NnAEOGEBuBq0DzQRV0RZCo0ZBKwRqHH/8bCh0USB/chOIgAKA7iBdpwH4ZfDD7u6CbOECnO9DvKI3MT5EZzD0iEniFNLsBJ9zO/pNK2AZgvpwCkDWmsAq2Lxg61213zofCJwL8XPFz9QdEBdPvg9dCvWDqmL90RCe/H1vbY54fIEXvBj4a7RB/4tDQAFA9764sfsm4y2/QEreK5uG8cTIk9irCc6fw/71oScS0qW1m8fUrzyc+/CPK3ZA3E7t+5aAGHU/EFbFpsehn0DNI3y9sW0viIuHOSpQdlsCDeDJf2CghnDUkiOjNwTyJzeBCfDLWtaVACP8sV03Gb/ri5Qc6krLxsDxStAfoNebCnkF73ni5RAlb2fMy/iBX8ax8DeQ7z7HvEnZvklKoP3eC06rhpCfZ17tz5/QsD7Yz1G6nRPSFXn3cqgc10CxzSHsUzj5AcRFt7KCElAA0Lpjrmi92WjrMUiV5lAzhx1ZxsIQP6wrQxy6XRQ6EeIHLy/jcyWO9yj8b8j7tUf+uKwvxe3Uvm9vOX1ZHLoQ+CPezdNlS/s3XPfCYe4ftU9S2D2c/uHUZ1KgY9qAyUjIEZH7TDMoXT4EFAC05s4PsusVY3/k9RkCb12j1ltfw2YOT77ZenfmWw9Bict6lOoTeCUVOxIJ9BPD7Sk9jF2c45Z9R4AL4bazhNET6f8CHWaZL8/k30PhPFG7rtlprjsvUDaGuEZCVnACCgBad9AEbB7eepfR1l8gFefT6mT8wjzOo8GPIe+THvmTsk5BgtOTEtV4/wk1bnurpg/CRpfvx2mQjyMHw6Ci2yBU8G5ojkAVZQA5GOJUpawEBFwO8BI0K0gVT/HwwsVB/wf18vBRpqz80jsfal4kZdOGLB4OwimSUTaVqknaP6GdnOuWdRLwHQ5nMHwGxM9GEW1TVIrz87w9NoS9DicbQGkG8SHqKR8NBBQANMBoenkP3j/StM3m7XpIfLxNhhKnPRx154IfV+OixetdM1vk+wJpeTtlFmVZVCu3pF+j5N9BZRqyzgqW6S23cfU5FDsvhDg1UCTbGpW5CQq1Vmk8fK0PjYVkImBNgNH2fx2U9oK3rRzq1NgOfsFuAlXZ1kLjeGJtbLft671yALQhyuSiwwmQb/1t25tn+s/QXgZcvK/ddr0G18a41P0A5IszBo8ufu+Pc+q5b23HOrVqxzXwNb1nfUJl3wWOQh7vL8Bf31CVS8nPlvDbql+Sto00qA/PQUl+Wu3nOU/WQaCoAQCH756AWnWg6bZJyG/7RduBpfD/BqCGb0CmLFqlewX56zJVUvgOTahgnQIAjo6Og1odsy7bboOvUFfcCd3Udvfe2MOn8rnUv1Wep+FrgbalFWeHAoA2faEpgDZgOjbzoD8iPkni3jmR4k5okcSU5UowT0e7fL8AjoIffinJRKBIBL5BZX4ZsEJbwBfXWcwW0KeNq58i8UVQqOkIPvxoEFSUO5BQFZktAQUAycS4FuDa5GSxKRbGXgYBHOmogvVBI7iAaAnPxtyN/Nd5+lB2EUiLAIfuuaI/lG0AR/dC/DnmLO3nKOwciCOaIYy3jA6B3gvhTD7yI6AAwIw972+fbJa0baqlsedBaPG2Kcqxg1f8I6DVPKvLeciDPX0ouwikTYAjgKcHLGR1+BoN8bbZLIwjbKdBoU7+rDvvIPgQkpWcgAIAsw58C8l+a5Y0NhXnzPkBWiU2VXF3LoWqPQStGKCKJ8MHF6PJRKDIBKJpwOMDVpIXA/dD/QP6bOXqJGykQhlH7DaDPgrlUH5EgAQ4NM4Pmq24AjMr40I1nrxt69gqPeu9T1YVD1TOTvDDUZBW7bHdxvnDGQLVS26yI1CnRYCtqB6GjVwbYHu8t0v/Knwt1aogz23TIP9ZULtyXbbfBH+9PeuVV3YtAsyLvGG5ZQgA2BTO5b8LuXyAWuW5Ar5mgYps/NCH/DLh43jT+NIrMsOq1K3uAQD7cU/oS6jV59llG+8SWgMKZTz5c77fpS7t8nAtxHShKpiDHwUAOUC3KbIsAQDbtDnE+/vbfVhst78GX0OhItogVOoZyLZNcen3KGJDVScjAgoAvsO0Df5NheKOc5t9nE9f5zvXXn97IvelkE3ZSWnZ52W/TVcBADqxyFamAIAcOX+d9MGx3X8LfC5G5wUwPtiDUb9tG5LSn1+AtqkK7gQUAHSy4219n0FJx7zp/k/ga5NO99avpkeO6yHT8kzSnQt/VVgnpgDA+nDKNkPZAgBG2rx9zeRDZJOGIwu85XAZKA/rj0I53D8Fsqm3Sdrh8FnWOURUXQYCCgC6Hgbr4+1kyOT4N0nzOXzt0LUIo3f8XP0DMinDNA2nETidUAVTAFDwXixbAECcXMQ2EjL9QNmkYyDwd4iPImZkn6YxmOG0xtVQyLnNxvb+G75nhWTlJqAAoHv/8ba+96DG493nNT+DNlOCMyM9ny3gU2Zz3hPgr0qmAKDgvVnGAIBIZ4ceh5o/QCHfc9Eho3EOOYZaMDgTfG0M8SEnb0Ih69vs60X4nxeSlZ+AAoDWfbgcNr8BNR/7ru95AXBg66K6bJ0N70ZDruW0ynd0lxKq8UYBQJt+LPvijjbNymwzh/949czh7bRWts8N3/wyoL6CHoH+CfEe+kgMEtoZH0W8JMT6LQGtDa0JZTEcPxHlbAq9A8lEoB0BnohcrChD1E+j8pwOuAfqD/ka590Z9PMEf2IbZ9EjxjkCEcLYB4dBnAKsmqV5nLj6dj3mq9Y337anrCMAUWfwJP0vqFVEndU2riR+FXoZ4on3fSirsluV8xTKXwiSVYfAJWhKq75O2nZIAgIGiUk+Wu3n1FKRjLcJPwe1qqvrtpPgr/kkwxG1JwKWwxGHH0NVtV3QMBf+DOiSjBdlLr77JDnOYn8VVnhmwSmpDM4BDoHuSEqY4n5OR/ALaCDUF8rzAGMwNBh6HZJVh8BUx6bMkJCPj4V2saKtK+EtvetAHKULZUfBUeNqfF4s3QetEKgAnvz3gS4M5K+IbjiS4mJJxzvXZ3ENlYtNcckUOo8CgHBE+XS/baArw7kspSeuRubJn0GRrFoEkr4Q27W2LgEA28+RN45ocJoulB0AR5dBvE34AYhrDkIYA69dIPqusrkGikmBadJx3Y4pRwx4x0fupgAgbBfwgNkT4ny965dl2Bpl541DYbxa2Q4qRHSbXdNrU5LrMZ30RTnZkaDrF7tjccbZOB3HIMBkCNnU6R5IyIdyLWqaISEd+3J76PqEdFXY7XqcJP3mwYyOcHjyZxCQuykASKcLOGS3NvRiOu4L53UiarQBdApUiAO7cISqUSHXq5aZEpo/KWF/u90zY0dRv8M4IrglxNt5Q1moW4Kjut0aqmIF9+MaACQdlzz+XMw1kHYpKzZPUT88sZUuyc7/oJ6rQleUpL6u1bwRGVeBHnR1oHylIZB0RdSuIfO129GxncPmLjYNMi3gkjGjPAyYdoKK9B3APtwMuheqiy3o2NCkAICLMV3M9XPkUlZsHgUAsXi8d34MD3yox4bQWG9vxXIwDtXhFQ6HEZM+KMWquWrjSuBtx4zzJ+TjidI1COCtrUU2To39EPpzASpJxhtBXEdQJ1vSsbFvJuRLOq7bZXf9HLXz57xdAYAzOquMfE7ACtCh0CdWOYuX+EtU6U8Q21OXIcTi9UI+NXrLsViTL8qJjr6LHgCwWd9AP4N+yTc5GZ/FMQQak1P5eRXLUaLFHQufkJDPdWQhKbBIKDbcbgUA4VgmeeKJ8yxoGegcaCpUJuMCx4ugpSDe1132QAZNkFkSSDMAGG9Zlyi569VdlD/L/yejsDyCgDdQ7iDoCahuxpP0LI6NTgoAkqa22hXLYEzWQIBXCFw8ZisuZimrsc2nQpwmsG13luk/Q/3OhvpCsnoTmBvNdz32ZktAd7qj7zKOQv0EbeX9964sbfKNRzmLQnU1jnrY8IrS8oJnugRovCCK0tv8PyHBb+121zEAiDp5Lrw4HHocsjmI0k77LOpzNMS+kYkACXA4lfP1Lsfe6nQQY/tin4vfpKu0mCJz3cXb+jgq6NJm0zy8C2mRXFuZf+EHOzJ+xqDqfNaDaV80pjvQwHetktQ5AGjsaM6rc1TgdajxgMnqNRencJpiNUgmAq0IMDB0OR73bOWsYdtajn5Zl34Nfsr0cmtUdirkwjMpD09gC5QJRkp1vc6RL/MlGRc/J/VDq/2bJDmu234FAF17nFdaDAa4aPBmiA8WaXUg+W7j9MPt0BHQKpDWhACCLJYA72t3Oe5+H+v1u5+L5op5F9+806asxlX5n0Au7W6Xh7cgz1NWIAHrze9RXtS04xS3/TcJ9ZjX0S/L7JfgO7PdvTIrSQXZEOBB8mSHzsT/ntCKEBfgLQ1x5TO1GGSywOUzpHsZeh56oeP/c/jPaQcOQ8pEwJQAjyEX47EbZwxGecyvHJeozb71sf3yNvuKvpn34/OK8DZojgCV/Rd8bA59EMBX2V3wmOOJ2sU4vB9nScdzu7z8Ln613c6stysAyJq4W3lcMPRYh1p56IONDAQoPnWNj+LlVQW/VCdD30AyEQhBwDUAMDmxP4AKmqRrbscGzRtK9v5B1HcwdBfkesJik0dBP4D4uZd993RSFw68KHo4IaPLcUqXXJeh7+MmuJoCaAKityJQUALroF4coXJR0m1TOzn6ZV36QmU33tI4EXJhezfyMfiXdRK4Gi9dWHIUJcmuQgIX36yTrImAAoAmIHorAgUlMCvq5TpXv3VCmxbAfpcvVeY5JMF3WXYvgopyms6Gw61IP0NZGphRPcmDo582HKO0pxnUcZyj76MNfNcuiQKA2nW5GlxiAk+j7tGXpc3/Ew3azLUqNj6jtJw+qIrx+5DrIaK2xf2/Bummq0rDA7ZjW0N+rdhuk1APjmS1ymeybcME37XcrQCglt2uRpeUwMWot8mXXXOakQbtvdTRN+dVFzbwX5Yks6GiPLk3M4zef459x0G6cwcQWpjrED2Po6Q7KBggRP1g859ruWZvUdfab1IAUPtDQABKRGB/1NXmiy9Ky5MWF6rG2Q7YGaW3/X9YnOOS7lsL9T4Hegh6HhoJ/RbqD8laE5gRm7kQ0vb4YXouyEwy9oeLb955JWtBQAFACyjaJAIFJcAV0C5fgMyzZUKbZsb+Tx398yQpE4HtgcD1+Py5Ab6XHP1fZuC7lkkUANSy29XokhLg7cOuC6x49ZRk1yOB6xc4H6AlqzeBu9B8l+OHw/8DEtAt5uib9eHImawFAQUALaBokwgUmMBNqJvLlyxXuCfZrkjg4pt5/pLkXPsrTWBxtI4ncpfjZ4wBmYMcfbM+Aw381zKJAoBadrsaXWICP0PdXb5kmWephHbzVkM+zMrFP6cP5kzwr93VJXA2muZy3DDP0QZY7nT0zwcAydoQUADQBow2i0BBCSyJerl+0f7GoE2uIwys0xEG/pWkegQYOLpOTfG44TEdZ3NjJ58S6HLc/znOcd33KQCo+xGg9peRwHhU2uXL8GmDxu7g6Jv1eQXi72fI6kXgYDTX5XhknocNUP3Yw3/SswUMiq9uEgUA1e1btay6BDjf7vqFu1wCFj7c5nUP/3sk+NfuahHojeZMgFyPx6EGOO519P858un+/xjACgBi4GiXCBSUwKaol+sX7gkGbRrm4Z+LDXm3gqweBA5EM12PxXeRN+lRynz631eOZdyOfLIYAgoAYuBolwgUlACv0idBLl+8/EnUpGH6BZDmC0f/rNPekKz6BHjy5vHkchwyz4kGiI708K/jMAGwAoAEQNotAgUlcDHq5frF+32DNl3n4X888k5vUIaSlJvAYai+6zHIx/Mm3fs/DdI871gGA1jdlQIIcaYAII6O9olAcQlsgaq5fvlypX+SDUYCV//Md0BSAdpfagIzo/ZvQa7HyK0GrR/i4f8uA/+1T6IAoPaHgACUlACvsN+HXL6AeUvVQgnt5tXXfxz9s048OWgBFiBU1LiWxOXYi/JsaMDlKo8yfmTgv/ZJFADU/hAQgBIT4D3O0Req7X/+sE2Suf76WlSXM5MK0P5SEuBjeadCUT/b/h9l0OoFkYar+G19Mz0fSqXgExCSTAFAEiHtF4HiEuDz912+IJmHiwiTfiGQowBjPMrg6u0VIVm1CHD43vW4Yz4O7SfZSUjgWsalSc61/zsCCgB0JIhAuQk8huq7flHyscJJ5jsKMBoFMJCQVYPA1miG6/HGfA8YYOCTBT/wKGc9gzKUBAQUAOgwEIFyE/gpqu/6hWzy5D6evB/1KIN108OBAKECNiPawGPG9XhjPpOrf5+7C8aiDAWcgGBiCgBMKCmNCBSXwByo2meQ65fyrgZN28rDP+v1LsTvGlm5CZyB6rseZ8x3v0Hzubh1gkc5vzAoQ0k6CCgA0KEgAuUncD6a4PrF/Bzy9kxAwCuqBz3KYN1uTihDu4tNYBCqx3v3XY+zb5B3XSjJfEa0uPhP9/4nEW7YrwCgAYZeikBJCSyBevt8OQ81aPcqSOP6SNbopLG3QTlKUjwCvOf/JSjqR5f/Vxg0awakedWjnHMMylCSBgIKABpg6KUIlJjALai7yxcz84yDOPSaZBcggWsZzMefjO2XVIj2F47AhaiRT79/hPy8rS/JjkAC13I4wrBUUgHa35WAAoCuPPROBMpKYDAq7vrlyXz7GTR8bqRx/Q2CqG7D4WNag7KUpBgEfoBq8OQa9Z/Lf5N5ea78f8ejHE0xAZ6tKQCwJab0IlBcAj6r9d9Es/glnGQ+c7TRyWNYUiHaXwgCi6AW70FRv7n8H4v8JqNL/GEgF/9RnkHIXxrjopoiGAMAfvBtjU9oYmQoEwERCEOA8+uc/3zZw922yHujR/6TkfeXCfm5YJCBhs8DfnhFuSl0LyQrJgH+4iSf2LeWZ/U2Q/67EnwMwP5nIa4BcLHRyLS+S8a652EAEEVQ+i8WOgbyPwZexGdyf6iXw5cTLyx8Hgw0FfkHGpS7JtLw9wR8jpe3kd9kXtigOkqSAgHfW/54bFxlWK/rkc7nWOL0l8yBgAIAvwPP56BVXrGPOwZ41TSbw2d6a+SJ85u0z3QE4fee5bAeD0K9IVmxCOyO6vjO+78BH3MZNGsDpEk6JuP2jzAoQ0naEFAA4HfwxR2Y2ie2vscAV/bbThcy/b8hn7I3b/N90biZ87qPe5bDOl4KyYpDYA1UZQrkc/wwr8kUMY+hpz3L0mN/AdDVFAD4H+i+HxTlVx/EHQM7O3y4+eUb5zNp3zjk573fScZ1AFwPlOQvaT9v/5LlT2AhVOF1KKm/kvZfZNiUX3uWdbdhOUrWhoACAP+DPenDoP1i7HMMmPx4SquP93Bs9Cn3tFZOW2z7lWc5rCMXQG7Zwrc2ZUeAAd8YyOeYYd4JkMnU1RJI5zPSwAdfrQTJPAgoAPA/4H0/MMqvPog7BvhFN5PDZ3xl5GHeON9x+7jIj0//SzIuVnwYivNlso+PcV0rqTDtT4UA+/A2yKSf4tJw3cCGBjXkNNUIz/JMRxkMqlPfJPN5dkLcwaB9/h8oMRRDHgOLOn5FXez5+eYcv8kivQFI975nWWznuxCvDGXZEeDJmCfTEN81fzCs9k88y/sY+RcwLEvJYghwEYbvas8QB458hPkAimM1Oc4b8xmO28Xb7Phl6XNcnBRXQMM+3n0Q4rvkFfjRl3sD2JRfngD/PsdHlHcE/PQ0qOviSPOJZ5nHGpSjJIYEnvPsjOgA0P8wHyRxFMfGY+ANfD55leZqxyBjoz/b15yfX9ew8FM9y4rqxpXhcxuWqWTuBLj4MmLu8/9N+OF0cpIxQHgQ8ilrAvK7TIkl1a22+4eh5T4dorzip2MgvWPgLM9vJo7y8SlrPn30MvKbPCZ4OqTjokWfsqK8j8HPHJAsHQIHwm2IERsGiIMMq+gbjPLY0GJRQ9imyfghewuKPnj6LxY6BopxDHyAz6XJlVXSZ30DJPD9sr88qZCO/azvq1CIY4iLC00Cj46i9c+QwN5I53s8RP17iGGZXOD5BRTlc/l/g2FZSmZJYB2k952XcelQ5fH7QIhfdflNxWdyU8vPcVzyS7DT93jZN66Ahn28e4Cr+n3LY/6HII0EAEIg+xH8fA2F6JsLDes0J9Jx6N6nzI+Qf2HD8pTMgcBKyPME5NNJyit+Ogb8j4Gx+Bx+z+EzHJeFc+pcZe/TP58h//JxhTTs2xGvQ11lPgpfWhPQANfx5c8C9sn98MXppSSbBgn4REuf4455TUcakupTiP2EUkSbFpXaAuKjQPtDJh2MZDIREAFPAl8iP4fO74T4hcm51dC2Oxxe6emUwcnqEEcMk+w4JBiWlMhw/9NItxHEHxGS2RM4EllOts/WMsc4bF0TYkCZZL9AglOSEiXs5yjQehBHLmQiIAIiIAKOBK5FPt+rMf5gkMlFDNP8X4Dyovq+Al9LQDJzAuyDYVDE0Pf/e/C1FGRiGyIRA1ufMjmVpD43oa00IiACIpBAgEPpvG3L50uZeX+dUE60uyde/B3yLS/KzxNQ6OmRqK5V+98LDQoZgPFkvLYhpP5I9w4U9Zvr/4MMy1MyERABERABAwJbI43rF3KUj8OxWxmUxSQzQVzRH+X1/c+HG20CydoTmAW7OJ3kyzrKzxX8W7QvrsuemfEuxHqy4fDDaWmZCIiACIhAQAKXwFf05e76fzJ8LGNYJ448hHzoGE9IBxiWXbdki6DBj0Ou/dqcj4s5hxpC5JTDdQHK/hA++hmWqWQiIAIiIAIWBHiVFuKEPA5+5jcsd75AZTaeoC6ATz6ASPYdgbXwL8QUT8SYJ/+fWsA9CWmjvD7/d7MoU0lFQAREQAQsCayI9FMgny9q5h0DMaAwsb5I9ArkW2Zjfg519zEpvOJp9kD7QvRnI1ub2+84ItOY1/X1eRXvJzVPBERABApBgFd3rl/Ujflugx8uOjOxRZBoHNSY3/f1BPhb3aTwCqYh91BX3o39cLQFK9467rvin2U/Cc1oUa6SioAIiIAIeBC4Fnkbv/hdX9tcuS2KMscHKjeqLx9U9EOoTrYQGvsgFDEI9f+XFhAZePn+6iTrTR+65c8CvJKKgAiIgC+B2eDgOSjEyeMPFpXhSMDzgcptrDtvfZvJoh5lTco7IfhgpMa2+77mnD+fGGhqyyDhu1CIcncyLVTpREAEREAEwhHgldcHkO8XOfMfZVGt+ZA25Ir1qP4MaFa2qEeZknLR4zCIt2JG7Q3x/yv42wcyNa7n4NRLiLJPNC1U6URABERABMIT2BIuQ5xUeBW5n0X1+GMxj0AhTiSNPqbC52EQb02rii2FhvCnkhvbGeL15/C5gwWk+ZH2xUD1uAN++MAomQiIgAiIQI4EjkXZIU4oDAL2t2gH7yLgbyCEKLvZx2j4XdyiLkVMyiCGQdUnUHP7fN9z7n0zyNTmRcKnIN9ymf8VaC5IJgIiIAIikDMBnmiug0J8uXM04YeQqXE1+4VQiLKbffAk9xOojKMBnJ55ICUur8HvCpCpccrmGaiZr8t7PkhqWdOClU4EREAERCB9ArwN6yHI5Uu9OY9tEMDWcRSCIwjNvkK8Hw6/S0JlMM71/wLi3Q0h2t7sg1fxfSFTC3ny55McNzYtWOlEQAREQASyIzAPinoJaj5puLxnELCvZdXTeKhNVHeuDfgtNINlnbJMvi4KCzXMHrW78f+d8D+HRYN4u+GzUKMPn9e2x4NFVZVUBERABETAlwCvlCdBPl/0UV5e0XNBno2tgcSvQ5GP0P+5iG0LmwplkJbz6xdBaY2AkOHpUE/I1AYi4StQKP6/My1Y6URABERABPIjsB6KngKF+vI/3rIpCyL9wwHLb9UOXg3nPRfdG3U4EuK8eKs6htjGfhwK2Ri5hAzCroS/Mq7DsGGmtCIgAiJQGQL82d8voRAnIfo4C7L5mVcO1V8SsPxW7WD7zoN4e1uWxpPhTlDIK+xW7XsVZaxp2TCmfw9q5c9l223wxXUNMhEQAREQgRIR2B115Vy+yxd/qzy3w9eslu3n1Wsat8E11u9TlMEAZT7Lurkk3wiZ/g01lp/G6/tQhm17tkMesghVnwfha2ZIJgIiIAIiUEICfERsqBMC/YyBFrDksDzSj4VC1qOVLw7FD4NC36POK/7NobSnNdgmPtnv15DNaAuSfzsVETLY44OLZqdjmQiIgAiIQHkJ8ITS6oTpum0i/Nnch05yHDn4K+Rapk0+Pj/gDKgv5GO9kHlXKI3HHrdqD+ftB1tWmMPzF0Kt/LluY7DGhY0yERABERCBChAYhja4nhBa5fsI/lxW4++GfKF+v6BVvRq38b71yyHbefQ+yHM4lPYcf2Ndr0N5tiMXvCXwHqjRj+9rnvy5iFMmAiIgAiJQIQLD0BbfE0Rjfg5XH+jAh1fmwwPXpbFerV5z3n5vaCaona2CHf8HhZxHb1WXxm2ctuA6CVsbgAzPQo2+fF/z5G87vWNbb6UXAREQARHIicAwlOt7omjOzwV4HC63Mc5x8yo7y5Mt680T7sXQBhDn9ueHWI8noOZ2pf2eQVB/yNa+hwyhf1L4OfjUyd+2J5ReBERABEpG4Deob+iT20j4dBk6Xgz5eCIMXR8Tf5xz562EJmlDpuEUyI8hBiA2xvSHQJ9DIevzDPzp5A8IMhEQARGoAwEO3YdcNc4T0jvQpg7weGIbCk2CQp7YiujrVrTRZXHibMh3TQp8ODUyDyQTAREQARGoEYG90VbO44c8UTKoGAbZPLYWyb81jiD8DQpZn6L4moB2bf9tK+3/rIosL0Gh2zISPhlYyERABERABGpIYCu0eQoU+uQyAj5dh5XXR94nU6hT6Daa+OOdCFwjMQvkYhwZ+QwyKcsmDUci+AuSMhEQAREQgRoT2Aht5+I4mxOISdo34HMQ5GJcVHgolNUtgybtsU1zM+q/qEvjkYdX5ldDtmWapL8Mfvn8AJkIiIAIiIAIfPtgHz573uQEYpOGUwzHQa4nHN4bfzo0FbIpN8+0j6CugyBXWwMZX4DSaMPx8DuNa8WUTwREQAREoJoEOAf/GJTGiYe32a3igY0L5y6AQq9ZCNlWzvPvB/EWRxdjkHQUxGmDkPWiL97tsD8kEwEREAEREIGWBDj0fDcU+gREf7x97TeQ62gAsn47UsGn5oW+g8Gnva+gPjzxTw+5Gq/6eTueTz3a5eX0zsauFVM+ERABERCB+hDg/PtJULsTiu92LvDjynYfWxaZL4fyHBEYh/J5X35vyNX4s8lknVY7XoJvspKJgAiIgAiIgDEBXtXyqt33hN8qP4e5j4N8RgOQvcdSEKcG0lgp36re3DYG2hVioORj/I2CZ6F25fhuvxe+5/SpoPKKgAiIgAjUl8B6aDof8ON7MmqX/z/wvXoAvHPDxzHQG1C7sny2c8rhBog8fI23BJ4CpXXVz3aeDfkGKHAhEwEREAERqDOBfmg8r3p9TqBxeXlyvRjic/l9jfPwu0D8lTz6jSvXZN9r8PE7aADka1x9vwdEnyZlu6ThMx32hWQiIAIiIAIiEIQA57nPg1xOSqZ5uFjtF5DPYjpk/58NxCuevG1vb+T0xE3QllBPKIRxlONByJSFSzrO968corLyIQIiIAIiIALNBHbHhk8glxOUaZ4X4X/H5oI93vO2vHWhs6B2UwQcLXgA4qK+eaFQxqkJlpvmcD+58qFDfSCZCIiACIiACKRGgKvKn4FMT+iu6e5AGVzkF9J4RT8EOhbi4sEzob2h+aCQxlGMI6HJkGv7TfJxtOIIiNMLMhEQAREQARFInQCfI5/2lABPgDzBXQiFmIOHm9SNdzXsA/HZACYncJ80HCnh1IJMBERABERABDInsDVKfA/yOZGZ5GUgcDm0GFRE44l/KPQCZNIe3zRk4foDQ8gqEwEREAEREAF/AgvBxX2Q70nNJH/RRgSyvOInnw8gPoNAJgIiIAIiIAKFIMA56AOhtBcIRkFC3oFA1id+tvt2iMGWTAREQAREQAQKR4Bz9cOh6ESd9n+u3r8H4i17WSyE47MKjoImQGm3LfLPhYT7QVm0D8XIREAEREAERMCNwLTIdiiU1WhAdKJ8DmUeBM0Ohbb14fAaiCMPUXlZ/L8T5S0CyURABERABESgNAQ4XM3H52ZxomwsYwrK5CK5FSEf4w/1cGHf41Cj/yxeT0KZuuoHBJkIiIAIiEB5CeyMqr8JZXHibC7jnyiXaxP4QB4T4+jFEOgiKO17+JvryvffQBdD+hEfQJCJgAiIgAiUn8AcaMKfobSfiNfqpMptHLq/BeIVffPJlSf9taHToDSf09+ubtH2p1D+IEgmAiIgAiIgApUjsAJaNBKKTnp5/P8S5fO2xZ9DfBpgXqMTUdvfRx24dqEXJBMBERABERCBShPYCa2bCEUnwTr+52jI+ZDp9ASSykRABERABESg/AT4vPxDID7cpm4BAG9dXAmSiYAIiIAIiEBtCXBO/iSIq/erHgiMQRsHQzIREAEREAEREIEOAgPw/1KIc/RVCwT464mc9tDDfABBJgIiIAIiIAKtCPTHRi7Oq0Ig8CzawTsP+DPEMhEQAREQAREQAQMCSyDNZVDWT98LMfrAW/p2g3iLoUwEREAEREAERMCBAJ+/Pwwqw2LBB1DPLSEN9QOCTAREQAREQARCEOgDJ8dAr0MhrtJD+eDtfHzk8fcgmQiIgAiIgAiIQEoEOJ/Oq2zeSsdH54Y6kdv6eRtl8+6FfpBMBERABERABEQgQwLLo6xzoEmQ7QncJT0DjhHQ7lBvSCYCIiACIiACIpAjAZ6MOSpwLZTG3QOvwi+v9heFZCIgAiIgAiIgAgUksCDqdBA0GvoacrnSZx7+RsDZ0PqQVvMDgkwEREAEREAEykJgIVSUjxu+F/ocSgoGXkEanvQHQTrpA4LsOwK6rUNHggiIgAiUl8CsqPrG0BbQKlBf6CPoRYgBwm3Qc5BMBERABERABERABERABERABERABERABERABERABERABERABERABERABERABERABERABERABERABERABERABERABERABERABERABERABERABERABERABERABERABERABESgwAT+H/MNhdI6OnquAAAAAElFTkSuQmCC;textShadow=1;fontSize=15;fontFamily=Verdana;fontStyle=0;shadow=1;" parent="rilTDgwJUt0uwkPP9IXT-69" vertex="1">
          <mxGeometry x="-21" width="60.14676450967312" height="60.14676450967312" as="geometry" />
        </mxCell>
        <mxCell id="rilTDgwJUt0uwkPP9IXT-72" value="User Record Database" style="shape=image;verticalLabelPosition=bottom;labelBackgroundColor=none;verticalAlign=top;aspect=fixed;imageAspect=0;image=data:image/png,iVBORw0KGgoAAAANSUhEUgAAAgAAAAIACAYAAAD0eNT6AAAAAXNSR0IArs4c6QAAAERlWElmTU0AKgAAAAgAAYdpAAQAAAABAAAAGgAAAAAAA6ABAAMAAAABAAEAAKACAAQAAAABAAACAKADAAQAAAABAAACAAAAAAAL+LWFAABAAElEQVR4Ae29B7wlRZn+PwJDznmGMEMYco4iICCKkQVxQWUR9Wfa1VVMa/qvggHXVQyArmtAMa+gSBIUUEkqQ1ZyzkPOeQj+n4c5B86cOffeE7q73ur+vp/Pc0+fvt1Vb30rdHV1VZ9JkzAIQAACEIAABCAAAQhAAAIQgAAEIAABCEAAAhCAAAQgAAEIQAACEIAABCAAAQhAAAIQgAAEIAABCEAAAhCAAAQgAAEIQAACEIAABCAAAQhAAAIQgAAEIAABCEAAAhCAAAQgAAEIQAACEIAABCAAAQhAAAIQgAAEIAABCEAAAhCAAAQgAAEIQAACEIAABCAAAQhAAAIQgAAEIAABCEAAAhCAAAQgAAEIQAACEIAABCAAAQhAAAIQgAAEIAABCEAAAhCAAAQgAAEIQAACEIAABCAAAQhAAAIQgAAEIAABCEAAAhCAAAQgAAEIQAACEIAABCAAAQhAAAIQgAAEIAABCEAAAhCAAAQgAAEIQAACEIAABCAAAQhAAAIQgAAEIAABCEAAAhCAAAQgAAEIQAACEIAABCAAAQhAAAIQgAAEIAABCEAAAhCAAAQgAAEIQAACEIAABCAAAQhAAAIQgMDEBF408SEckSmBVeX3OtKMDq2i7UWlRaSlpMWl+aUHpdnSo9Kd0i0t3ajPv0sXSw9JWD4ElpSrm0sbS9Ol1aTVpRWlxaQFJZeBZ6WHpUekx6W7pes7dIW2nf9PSRgEIFAjAnQA6pOZGygpL5V2amlKgUn7h8K6VpopndKSOwpYHAIry5XdWtpWn2tJRdVvdwwukM6R/tjSk/rEIAABCEAgEYFtFO83pFmSL9JVyXeNviB8UlpdwtIQmKZoPyVdKDlPqsp/jxj9n7SP5BElDAIQgAAEKiDgof0Dpaukqhr88eJ5Rn78SdpPmixh5RLw0P3+0umS2Y+XN1X87375cKi0voRBAAIQgEAJBNZVmEdIHnqtomEfJg7PHfio5OfPWLEE/Lz+Y9Jt0jB5U/Y5HoH4g7SLhEEAAhCAQAEENlEYv5Yi3O31exHxXeF/SAtL2GgEzPDj0gNSv/xTH/dH+bqDhEEAAhCAwBAEltY5h0mefZ26QR82/hvl+5uloiajKajGmJn5scpN0rD8U593rHxfXcIgAAEIQKAPAm74/Yz3Dil1A15U/L9XWrgQCEKfNk3HebVFUfxThuOlpQdJnruAQQACEIDAGAS8Rvt3UsoGu6y4PXP8XWOkm90vEHiPNv3OhbLyIVW4XjXieSwYBCAAAQh0EdhF36NO8CryovEbpZNJgl2Zr69+KZOX1hXJOlpYjyl9dAIFAYMABCBgAvNJn5NymuQ36oXlUqWXu0FBaJmX0F0ujco1l/N/oLQu1Eo7HxCAAAQaScDPRX8u5dJwF+mnVwrs2MhcnzvRO+lrTjP8iyoDf1G6V5gbBd8gAAEINIOA38d+slRUg5pjOE8o/W9oRnb3TOU/aa+HxXPMuyJ8vkZpn9GTDDshAAEI1JTA8krXuVIRjWjuYXiZ4741zefxkvUW/fNpKff8G9X/28VgvfFA8T8IQAACdSHgd6d7+HPUhrNO5/tC2KSRgD2U3pzf71B02fOSVzoBgoBBAAL1JTBZSavrMr9RLwp+xfEr65v1z6fsZdryr+uNyqtu5/s10ms+T4kNCEAAAjUi4Nn+TZ3w1+/Fyu8KqPOd4IZKXx3X+PebvxMdd5X4LCNhEIAABGpFwEv9JmoA+f+kSVeK01K1yvk5ifGrna+WyOPxGfitkQvMQcZfCEAAAvkT8LBvk9b5j3qRO168PGJSF3NaTpRG5dKU8/3zwhgEIACB7An49b6zpKY03kWl8wPZ5/wLCfgg+T9w+d/nBXxsQQACEMiPgH/Yh0l/w3V+/CMy6+SX5fN47DkNTV7rP2yH8F5xW2UemuyAAAQgkAmBt8nPYRtAzpuzXHL+TPK6l5t+lj2TMjB0HfAvIroTjUEAAhDIioAnfd0pcSEfjcG7s8r1uZ19L/k/cvl/z9xI+QYBCEAgPoHD5CIX/9EZ3CWOOa4KcAfwbsrAyHXAjwKWkzAIQKBgAjkPrxaMotDgNlFo35PqNJO9UEADBObfTHA5PXWAcyIcerCc2DWCI5n7sIj8X1jyXBoMAhCAQHgCv5KH3P0Xx+AJ8ZwSPtdfcNCT1/xmQ8pAMQxmi2WdXxD1QslhCwIVEuAOtXjY6yrI1xcfbKNDXEip91K6XOzDcnTBXJzNwE+/QvtTGfiJixCAQMMJHKH0c+dXPAO/QtfP1aPbsnLQvlIGimXgH4xaO3rm4x8EciLACECxubWqgtuv2CAJrUVgCX3mMCP8X+WnfcWKJeB5IB5ZwSAAAQiEJHCgvOLOrzwG/rGYyOvC7ds1lIHS6oB/RZEfCxIEDAJFEGAEoAiKL4Sx7wubbJVAwG8GfEkJ4RYV5A4KiGHqomjOG45XA7xp3t3sgQAEhiFAB2AYar3P2Ua76/Dq2t6pi7P37XFcmceTt86zhx1FE4Bx0UQJr7EEIg+n5pYp35DDBwR2+nz5dop0nnS1dLvkyWq2JaWp0gzJHZndpC0lrD4E6pT/GyhbrqhP1oRMyeLyamNpU8k3Nl7aaq0s+cVcnpPhSbmenPmI9KDkRzT+3YvbJLcxfhxmedv7MAjUkoA7UrOkaM///YM6X5eGGZb2Of5ZVn7IJl6+9lvO6pr/n1K5xIol4LctvkH6H8mdq6J/vtwdgJ9Lnsi7voRBoDYEXKD7bZSrOu4Y+eRVCaPa6grgWKkqv4mnGNZ1zv8zRi3UnP8cgRX01xfkP0q+k6+y7rlD4JuTrSQMAlkT8NKvKivPeHG5Iv97CTQPUJhVNxLjpZP/9S5zTcj/2SqLfmyFDUdgF532a+kpKUI9ulJ+fEbyIwYMAtkR+IU8jlCR3PjvXSK9fRQ2nYAYed2rvDUp//+lxHJex6D9zP4t0iVSr7ITYZ9f+f09yXMOMAhkQyDK8/8y7vy7M8EjAREaC3yYNx+alP/Pqhx66Nod3skS1puAV3rtK/kuO5c64/kHR0sbSRgEQhNYVd5FqFh+5luVHaeIIqQZH17Ihybnvzvgn5NcF7EXCHglzzlSrvXEjyg8T2ApCYNASAJ+npa6gnm2d5WN3zTFx+qA9PneLnfk/5y88COQ30i7SV6Z01Tzq6i/KZlHu4zk/Okly/tLTc5TJR+LSMCzaFNXrq8lAHNYgHSn5h4lfvJ/3jp4rcrnx6XlE9SNlFG+WJF73X2UslmkH6cpXSunhEvcEOgmcIh2FFnIBw3Lz0LX6naqgu+eqDOorxxfPDPyf3ymfjnNkdK2Up3Nz/o/L9Xlrn+stsLLB3eWMAiEIHC8vBirsFax32/2S2UXKuIq0kgcY3Mm/8dm011uLlB5fae0WKoKU1K8fiPfSVJ3euv63Z2cz0g8EhCEUcy9Rmw0AiuNdvrIZ58ycgjDB3Dq8KdyZkEEyP/+QW6hQ73MzHeRfstlHd5IN0PpmCm9WmqKeUnjZ6UfS5Obkugy0kkHYHSqi48exEghnDvS2aOd7BnGWFoC5P/g/D2r/APSZdIfpVyXEm4u38+W/DiuibafEu0R2LqN6DQxL7NN803yPOVQm38YJZV5nW7KtBP3pEnkfzFl0EsJ/Qx9tVSVacB4X6rjH5CoA3NGQPxbBhgEKidwr2JMWQn9/C+VLaOIU6aduOf8Ihv5X1w59PPl9lLCqCOk28nHh6l7c7U9fgzCSIAgDGJMohiEVu9jZ2t3yudQCyp+vzAjhTnuJ1NETJzPEyD/n0dR+MZ1CtFzBo6Q7ik89OEC3FinnS4tO9zptT7rD0rdayXapFpnc6zEubClvBNN3flImXbiTt/5bEIeRFlKOE1tzR2J25vo+f0T8eHGVhCwagg0+RGA70KiNwh19y/lI6Am5r+XEr5Lqnq42ZONL6a+9dXeeIkg1geBqM+4+nA9zCGPJPZklYTxp4w7YbJDRZ0yD1LGnSoTtlDE35Vukw6TqlhK6Dta39luKmETE3AHYKeJD+MIOgCjl4HUHYAZoydh6BBSxj200zU7MWUepIw7dTZ6KeH7pfZSQv9U9uSSnDpA4e5ZUth1DNbvCfiZ1LTXQA+cl3QABkY2zwmpOwDbzONRdTvq/nrV6kgOHxP5Pzy7Is703fku0i+lm6SilxJupjC/JGGDEfDo1I8k5w8GgdIIpP5p3PNLS9nEAV+kQ+r+jD16+sj/eGWwvZTwlaofo9xkLaTzL6eOjdTG+GVBGARKI3CIQk59kVi7tNSNHfA6AdKdmnuU+Mn/9HVwrLJwjerJR6VhXlTzWerYyG3rLDFcUsJ6EBild9ojuEbuujpAqv0ssmrzq1SxGATI/xj50MsLd86+It0qeUjaP9fbj3ly4Sf6OZBjxiUwRf89aNwj+CcERiCwi84dq/df1f7H5MPqI6Rh0FOn6wSvja4qfcQzPmvyf3w+0cqPf0XzXdJ4SwlPo34V1r48JZYbShgECifgySYRGphjC09Z7wA9qeaEIGmOwD2KD+R/jHo4SHl4QPWo11LCV1G/Cm9TPUkTg0ApBG5TqINU/LKO9XKhsu1DiqAs/wl3NLbk/2j8UpW/Z1Wn/iTtI3ni38VSKl/qGq8nZs6QMAgUTuDnCjFCxXEhdyNSlr1JAT8jRUgrPsybD+T/vExyKyceFcjN51z89QucMAgUTuA9CjFKJfBFoOg7QQ/7+86fi3+cfB6rvJH/8fNorLxjf7l594TasKkSBoFCCayn0KJVXr+fYFoBqZyuMHjmHy9/Jypv5H9+eTZRnvL/0fP00wW0iQQBgbkI+A45yjyAzkbCs8MPl7xmf1DzOd+UmO0/eqPTmSdVbpP/+eZdleWkSXFdMWhDWOfjfeHCiiHwNQXjYfKo5rf2nSqdI/nlJH5BxkOSzS/K8NCYL/p+ve9u0mYSVh8C5H998pKUjEZgS53upZiNNzoAxRWBrRTUecUFR0hjEDhe+/cY43+pd39fDrwjtRPED4ESCPiV06dIbuOulm6Xum8gPMt+G8k3EL7IRrWvyjG/nRGDQKEErlRoTRpOS5FWT7iMajvIsRRMiBPuZZSBR1Wevy4N86ppn3Oo5MdQZfg2Spg3yycMAoUT8O9Qj1IwOXd8fneK7yKF51pxAXpEzY9XyEcY5F4GjlE5XrWAquE3lB4bsE74cWfjjd8CKLYIHKHgniw2SELrIPAdbXtSYlRzo/+DqM7hFwT6IOClvv5tib0k/37BqOa77T2lD0oOO4rtFMWRlH7QASiWvlcC/KTYIAmtg8BfOrajbv6vHHs4qnOZ+/Vg5v5Hd98X6DdLXv1TtPlxwL5SlE4AHYCic5jwniPgoSW/jCX3IcCI/p8prn5VanT7ihyMyC9nn7yKwXm/j/Qnya/PzTk9EX3/dzEt2w5QBBHSXsToRtmsCD9TAkcFKeQRKlrRPhyZQZnwD0T5rWNFp73J4b2yK9/9c7mHSQ/AuZBy5mf+VdlxiihCWfbSZwwChRPYSCE+JUUo5HX04ROF51jxATIKUFz5P3Wc7FlM/3uX5HXddSzrVaTJs/2LmPCnYPqyaToqwuqAnfryloMgMASBb+icKipvE+Pw8O8bh8iTKk9ZQpHdLjUxf4pMs0dSfLffj3ntuSeK+oJWpA91D+tr/cAt+BiP3qTm+s6C00RwEHiewFLa4gJQXiV/RHy3eJ52zI33yK3UjVzu8R84RNYup3P8oheWZE5c/tyZXmsIxqOe4rlSqcvml0dNBOdDYDwC++ufqQt5neP3RB4/b49q88sxr1yocx6UmbZLxW6hETLXq5xeKf1GYmJu73LoN/ulstSPbY5NlXDibQYBvxjmJKnMRrLpYfsVpYsGLk6+02FIevA64Pc9bFJgvq6msD4vzZKaXmc6039wgYwHDeq/E+eFfxcFg0CpBFZQ6H4/QGelY7tYHr8W38jvtPgA+T9w+S9rSdpk5YWXEv5R8vB30+viHmKQyl6viFPy9wgTBoHSCeysGBiCLLeyf7H0XBw+AndOjpdSNnY5xe1ltFX8UBlLCSdN2mD4Yj3ymV4tlbJc3jhyCggAAn0S+IyOS1nYmxC351xENU8KvVJqQj6MksYLxKjqRzrtpYSOexTfczx3aaU5lS2jiFMyuzdVwom3eQR8R+PXBKcs8HWP20vGdghctNaTbw9SBsasA34+72f1KW1bRX6k5DkIda8vTp8fiaSyBRVxSsb8bkuqnG9ovK5sTAost9LfI8ZrBy5fu8i3plxcBmnc7xeXzQPlm0ds3i1dJg2SjtyObXIHwC9rwyBQKQEPN86UcmsocvLXjbYb8Kj2T3LMjU9OTMv01aMiWwfNLM/f2E36jVTHeTwpHwEsK6ZllquJwn5I8WMQqJyAX1RCJ6Dcyv87MV6g8pztP8J/0aF0AiZNuk8cXtI/tqRH1nEp4YYJiW6suCe6SJf5/zsTpp2oG07AIwEnS2UW8KaHfXjwMuaRgAjvRE9VTvzM3xeB3MzD5ntLdVhKuGdC+Hsp7lRlz/FekzDtRA2B5ybgMDGw3EbgfcHL2Y7yz8+/UzaEKeK+XGleM3je9OOelxIeKj0gpeA4apxf7CeRJR3z34mZnVlSuggWAn0T8OoALxGs4/PFURunIs73MLtfBxvZ1pVzfilJEenNIYxjldYlI2fIEL55RM8/LpPbUkK/STOVXaSIU5bXX6RKOPFCoJvATtrhd9unrBB1jdt3ZylfeNKd172++wLyc6mueeB0uTP2n1IVL/lRNMkst6WEKVbNrKPcSV3Wv5yshBAxBHoQWF77fiulrhh1jP86cTXf6Oa7yFyHk8crN37e+uLo8Av2z5N9PyI57eOxSf0/P8Ko2r6pCFOn+21VJ5r4IDARAd8d7Sd5glTqClK3+P3MbyEpunm2eV3eF+FHW4dJi0eHXqJ/rtO7SVGXEnoi6uolpr876OnaEeFdGFt1O8Z3CEQh4GekX5M8bFq3C3HK9BwpnrnYG+Xo9VJKXqPEfbZ83ywX2BX5uari+ZwUrYPveRlVmDtDJ0ijlKsiznW7WvUrp6vgSxw1I7Ch0vNLyXdSRRR8wpg06RMZlRGPWHgY+b6M8v9S+frPUt2f9SuJQ1vEpYQHDJ2a/k/8kA6N0Aad17/LHAmB9ARmyIXvSn7ffYQK1MuHs+SbH19cG9hH+/2M5DXIOdkScvbD0s1SL/YR9nlW95ul+SSsfwKp18O3y45vMvbp3+2Bj3yTznDda8eX8vOrA3vPCRAIQGCqfPi0dIWUsgK143aH5EhpC6ltXht9v9Q+JuLno/Jvy7bDGX36znFf6Q9ShMbUP6jyf9IOEjYcAXeYbpAi1BN3AooeCfBIkO/8I5TXNuM95A8GgawJ+KLrnuwtUrtgV/H5rOI7R/LQ9EpSL9tVO2dLVfgzbBxedrlKL+cz2bea/PTjDK/lrrJx9UXiFOkd0rISNjqBgxTEsOW4jPOOkz/TRk/WpOkKI8Iz/05GnvToZbcYBGpDwOtq3yX9VPKFrbPAF7F9m8L0XAQ3+r7w9GP2p4i4ywzDF886TAZaQenwyMCPJI8OFdkh8AX/EukwyXdOS0tYsQS2VnBllvNhwvaF8nDJbcug5nO81O9xaZi4yzzHnRtMBJikU99iMFVJcyWc0SHvc8/XFzw34l6aNVl6WHIj/5B0l3S3dKN0nXSldJF0uzSMHaKTPjLMiRWec4zi2lvyyEZdzHMGNpU2kaZL7rRZU6RFpIWlJSW3AQ9KsyWXgzskjyi5w+f16857T+pzQ46VR2B+Be26F3VExeXgVMkjfy4XsyS3FzaXo3Z7s622d5Mir/54q/z7sYRBAAIlE/Dzzd9IZfboiwj74JI5EDwEJiJwtA4ooiwTxtgc3cl15xiDAAQqIuA7zplS9IbpnRXxIBoI9CLwbu2MXkdy9+97vcCzDwIQKJfAKgq+jLkJRTZIXtGwQ7kYCB0CYxLwI5pnpCLLNGHNzdOPKDAIQCABgc0V5yNS5EbpHvm3dgI2RAkBEzhZilw/cvbtDIoYBCCQlsAeij76Xc5l8nGptJiIvaEE/lXpzvkiG9n33Rtapkg2BEIR+Ki8idxQ2LffSQuEooYzdSfwn0pg9HqRq39excCqt7rXINKXDYHvytPojcnh2dDE0dwJeCndzVL0OpGrf6/OvYDgPwTqRMDvHzhNit6gvK9O0ElLSAJ+B8CJUvS6kKt/PPsPWexxqukEfNdziRS5YfELkl7b9Iwi/aUS+IpCj1wHcvbtKbGN/FKiUgsWgUMgOoE15OCdUuRGxm/K2yg6SPzLksD+8jpy2c/dN/9WCgYBCAQm4LX3XoMfubG5Tv4tH5ghruVHYHu5HL3cR66TE/l2o/jy1r/86gUeN5DAG5Vmv4t/okqd8v9ny7+FGpg3JLl4AtMUpH93IWV5rnPcXmq8S/HZRogQgEBZBD6ngKM3SkeWlXjCbQwB/wjXxVL0sp6zfwz9N6Y6kdC6EPA63Z9K0RueT9QFOOmonIDL+C+l6GU8Z//8i4WM1FVetIkQAqMTWFhB/EWK3AD5UYUfWWAQGJTAF3VC5LKdu29+lff0QTOF4yEAgTgEVpQrN0iRG6NH5d+WcZDhSQYE9pWP0ee5RK5zE/n2pPjunEE5wEUIQGACAuvr//dLE1X6lP+fJf9WnSAd/BsCJuDOojuNKctr3eP2zyljEIBATQi8UunwizwiN1zny79Fa8KbZJRDwJ1EdxYjl+PcfftsOVlHqBCAQEoC71Tk0RunX8vH+VJCIu6wBBaRZ+dK0ctwzv4dGjb3cQwCEBiZgCt49AbKk7swCHQS8Iz/o6ToZTdn/74tvuaMQQACNSXgu+vjpOgNlUcrMAi0CRykjehlNmf/viW+jLy1SxufEKgxAb/S829S5AbLr3X1a40xCOwtBMz4L6++fp4iBgEINIvAVCX3VilyJ8DrkNduVraQ2i4Cm+v7I1Lkcpqrb17q9/Yu3nyFAAQaQsDLqaI3rlfIx6Ubkh8kc24CK+vrzVKuF9jIft8trjvNjZtvEIBA0wjspQT7xz4iN1a/l38LNC1jGp5ev8Xyr1Lkcpmrb378N13CIAABCEzy+/ijN2aHk0+NIeCZ6D/LoExeKx9vycDPzrp9ifxdTMIgAAEIPE/gh9rqbCgibr/veW/ZqDOBT2VQFu+Sj2tIkyW/ljiX0Yqn5eu2EgYBCEDgeQILaut0KeKFv+2T32ToNxpi9SXweiUt+iMpr1DZvkcWrKV9/yldJEVetXCZ/PMjFgwCEIDA8wSW1dZVUvuCG/HzAfm3wfMes1EnApsqMQ9LEctd2ydf2PfrA/pyOmZP6UvST6TTJd99t8NJ/Wm/MAhAAAJzEVhT3zy8mbqBGi/+G+Sff+UQqw+B5ZWU66Tx8j3C/0ZZM++LboQ02AePsvQaxdBuDAIQaDKBHZV4D3NGaax6+XG2/FuoyZlUo7T7OfrpUq98jrRv1N+pcHm9NFA6vcSWRwGCgEEAAnMTeJu+Rmp8e/nyo7ld5lumBL6XQVm7QD4WMXt+C4UzO1B6eRSgzCjCvHQF601gVe1eR5rRoVW0vajkX/haSlpc8ruoH5J89/m4dK90U4eu1LZ/Mta/bY+VT+C/FMUnyo9mpBg8Y9x+YnkS+A+5/eXgrvuNmZ45P6sgP33R/XhBYY0aTPtRwMxRA+J8CLQJeJLWv0q/kFxpet29jbLvGoX5c+k9kjsXWDkE3CH7lTRKXpV9rhswv8wIy4/A6+Sy86/sMjJK+H5Tpl9HXKR52N0z8Ufxq8hzWRVQZO42NKxtlO5vSGVc8Ccq7F528wVpPQkrloBHac6VJsqDlP9/VP5tWWyyCa1kAhsq/AellOVmorjdOfFM/jLMIwqsCiiDLGFWRsB33wdKkZaOeXLY26UintcpGEwEpkjR38nuYVo/VsLiE/CM/+uliS7Aqf9f9jC9HwWkTmM7fndG3CnBIDAhAb/w4lDpcaldgKJ9+u7CFcxr27HRCfiOzWvwo+Vzpz8Xyj86fqPndZkheMb/H6XOfIu4fWSZEFphL6RPVgVUAJooiiGwiYLxUpjoz+06GxR3BPx4YEkJG43Aa3V6pGHLznxub4+6VGs0Qpw9EYEcZvyfoUQsOFFCCvo/jwIKAkkw5RFYWkH7jv8pqd3Q5vZ5u3x/t+SJbdjwBA7QqdHz/uDhk8eZJRL4YAZlx48mViiRQa+gIz0K8M3d9r2cZF/zCHhp49ukO6XojX6//nmOgFcpYMMT+JZO7Zd3quP2Hz55nFkCgVcqzOijR15evH4JaZ8oyIV1gGfip6or3fHaF/uENZiAe8EnSd2Fow7fPXfBd7Lu4GCDE5hfp5wgRS4LftnKzhKWnsC6csEX18jlxZ2T1yRExQuCEsIn6rkJvExfUyznq7qBOF7p9IxkbHACS+mUSBOYepWdu+XjmoMnjTMKJOBJuFdLvfIn0r5/KzDNwwYV6VEAqwKGzcWMz/Pz8c9JOU3yG7UR8TM/z3DHBicwXadEfzzk4Ux3VrDqCSygKE+TRq2jZZ/v+U0RjEcBEXKhoT541uvPpbIrW8TwH1K6d29ovo+a7K0UwKNSxHxt+/R7+eeLEVYtgW8punYeRP38nXyMVDZ4FFBtGSU2EfB7+E+RolbSKvzykNfbJGxwAm/SKc9KVeTTsHF8c/BkccYIBN4bvDy4HPkRVsTlwTwKGKHgcepgBJbX4dFf9Tpsoz/oeX708Y7B8HF0i8Cn9Tko76qPfx+5VQmBXRVL9CXDfnS1RiU0Bo+ERwGDM+OMIQj4zv88qeqGOHJ87gS8awiWTT/FKyp+IkXOW1+UvBwNK4+Af/HTv+IZuRw8If+ir3XnBUHllVFCFgG/ktPPvyJX1FS+uROwl4QNRsDzSP4kpcq3fuL1fI+NBksWR/dJwMPpHlbvJx9SHeNHVW/pMz2pD4v0KMBtYvROU+r8yiZ+3639SEpVCXOI9zHx2S6bHI3j6HJy5Ropch7fIP9WjIOsFp7Mr1ScKEXOd/v2+YxoLyRfI3WorpA/fjyBZU7AS/2iV9QI/kV+Thi5CK4v56K/+OUs+egGFiuGwDcUTIQ6O54PR8tH3/zkZNEeBfxQ8F4i+fExliGBl8lnD+eMV1H43wt8PEHSQ9vYYARersP9Nr7IZcmjYNjoBN6pICLns33zXKdFR09qkhAiPQpo57OvIVdKv5Cc/6tIWHACHvacJbUzkc/+WHw1eL5Gdc+TKaOXsU9GhZeJXy+Vn08Gz+db5N/UTHj2cjPaqoCx6vTFcv5gad1eiWBfWgIe+mLS33AXJE8cem3a7Ms29kPk+VgNRoT9vpNhwudwxWsNnXZ38Px9RP5tPlzyQp21Y3DO3XX5TPm7v7RIKIoNdubtSnt3JvG9fya3i59/FhkbjMB8Ovw3UuSy5gmf2wyWrMYfvYQI/F2KnK/u3O1Zg5xaVmn4Y3DWY5WDe+T3QVLEFy7JrWaYL1ye0DZWJrG/PzbfbEZxKTyViynEC4OXv1vlH88x+8t6d+qi/xqk27SP9Zec0Ed5Qu21Uu5t9F1Kw0clRgQEoWo7TBHmXoAi+O87CpYGDld6p+i0m4OXQ3dS3FnBxifwZf07Qn0cz4cjx09CFv99hbyMvppmvDzo9b/rlKZXZkG/Jk5uonQ8JfXKDPYNzuU8sfR8CmxwAlvoFD+TjVzufi3/fIeL9SbwVu2OnH/27Qwp95U771Ma6txu/1Tp86R0rGQCv1L40Stsbv69oeQ8q3PweyhxHkmJnOdfrHMGjJA2r//2a3Qj552Hy/0yqlzNNxc5jLAUUQbuUFp3yTWjcvDbyzGiN7ZFFKSqw/D61wVyKABBffSzwKrzbND4vIQRe4HANG26wR6UY5XHPyj/NnrB5ey2fPE/VKqSWeq4/CusB0mMuglC0XaEAkydwXWN30tcsOEJfFenRi4bvtPdYfjk1erMxZUar/GOnF8eLvcz81zNF8AfSpEZl+nb8Up7ri9qClnmPKM5+gs6yixQZYd9ifi6x44NR2CyTjtVKjufRgnfS5jWHi55tTnLZfyX0igcqzj3vRkTN+P/yYBx2fk4UwxyfnwTqggeSIEqvdHaJVSO5+fMMnLZPzBSdsMySviXyb+l8kNbmMcHB88f562HzXO2r8j5Ucponc79u1jk/NbGMOXwKgpV6ZXKL7jBRiOwlk6/W4rciPkNmk2c87Gv0u23YEbOm5Pk3/xSrvYhOR6ZbwrffO1aIdcMjeD31hSqSiqVJ7CsFiHDM/fBz9qjzy5v2kugtlGePC6luAD0G+el8i/nN8x5NRGTtHuXsXPFxnNPsrFIz4O/IWoHBCZ3vnw7RfKa+qslv2b3IcnmCu0hoBmSG6HdpC2lqPYxOeYhPGw0Avvp9B9LkerRoCnynJuHJZfl+1vb9+rTjxF8sfLnNZInrEW2VeWcG+ApgZ28S769WLohsI/jubaF/nm2xJvxxqbka8Tu0uyxD+E/3QTcgEb8xb9H5dfXpWEmVfkcP+d7TOr37qCq4y6QT1gxBD6nYKrKt1TxuJPgMvNf0o5StEcLi8ond9BT8eknXo8WbS/lap7odoPUT1qbfkzTRt5GLtPrByxYx8gn31WMaqsrgGOlaJVivVETxvnPEXDn9f+kaPlbpj/3Kb2eZf9maSEppZn/UVKZ6R01bM9J8GhRrublfr+XRuXQpPP3yTWzU/j9r4EK19Py5d9LgODHGw47SiXwzNXPSNtKOU9IkvvJbWF58FcpSt5W6YeHtT0yME1KYQcq0irTO0xcX0gBpsA4/yMDxsPkS5nnPChmfiSM9UHgFzqmzMzoN2xfoPfuw99hD3GvMFInoM3Fz3x9R/f/pFUkbHACK+mUG6Q206Z9ulx7pKvKYW7X1egz/o+WjznPEdlM/vsRUNPKcxHpPVfcuLkShIksyvP/Mu78u9PukYAiCleZYVwiHw+RXiH57hbrj8CGOsw9/zLzJoew/fhsnf6QDX2UJ6R5jk5kHp4w7PkJudqCctxtQWTG0X37QK6ZX5XfqwYpYG60qrLjFFH0gtv2z5MYT5Y+KHmuBjY+gVfq354x3+bX1E/Pgj5cWkEq2qYowFukyGztn1cG5WyflPORGefgm1fX+BqHjUFgF+1PnZG+k6gyk6YpvoirA/rJh5vk+3elf5aWlrB5CbxXu/ph2YRjvLRw33kRDb3HI1LnSJHZPSL/Nh86hTFOXFNuRB9hiVwGOn37VYwsjenFe+RWJ6wU219LgOawAOkelbWf+54vfUl6uTRZwuYQOFQfo/Kt0/lHiceyIxYOP0v/aXCufknOniOmM8LpHhGtU/lLnZZtImRqRB/8rDll5ngS0VoJwPgZacp0lxE3kwlfKEie/HNiDfN4lHLj0aOdpWHtUzpxlPirOPdjwyYu0HnbyZfokyuryMsi4zgpUP6GcuV4eVMk6EHD8kSdVHahIh7U35yOb/pkwiWUv3+reR4PWh59hzzMRdJ31dFfQfsD+VgHO0uJGDRfOX5iZu5YYV0EZup7ysJzcJc/VX7978Rpr5L7Y0prEycTrq50R1nlUmV+TxTXt8Wl3zcKbqpjH5YmCjPl/8+Qf541n7vtogSk5FjnuE/IvXCU4f9liQvcHmUkqs8wX5847Skrm4eDvyc1YTLh1konE6rmvbD8VlwWl8azFfXPG6WUZXWiuK+Vf8tJdTD/iuRE6eX/wzHynCnfEGAdBHwhSFmgNujwperNjRKnPSX3zrhdMf4sfUbaVvLz87qZOzrRh7A786SqbT8G80W+ly2knWdLVfkyTDxe5bBeL+cz3LeJfH5WGoYD5/TH7fMZlotSXfbEsZSFJ+VStmUSpz0l9/HirutkQtZV967rF6ke9KqHPwxeP/y+B78sqy72TSVkvHrJ/0bn48eB/T76qku5GjcdTyYudCmXrvmZIZVqYgbtyYS7iZfXgeds0S9qqcqjR4AW68jYj2o7lS/9xvtvHf7mvrmIEuDRjH7TznHDs/LLwrAWAToAwxekJlbCnCcTvkhl/idSE/OtnzSfKjYe9n+t5MdC/ZyT6hi/56FO5pc1pWLZT7xerXWw5NUgfmzr0VM/KrS8vaHk/31R8rtJ+gkz1THfkn9Yi0CTHwH4xSipCmFd4s1pMmGTVn0MW77cCXgweL04Sf75wlMn+7USM2yelXWeJ85+XVp7CNA+x5003zCU5d+w4d4sn3wzgIlA6kmA7jmmso0V8bCFiPPmZRd5MuG7yetalPVLlY9LpmowSorXw/+PSJHalGPkz6oFpNez7o8NljZz3qKAtNUiiMsSZ46HjVLZXoo4UqWrmy9RJhO6kxnxTqRu+V12eu5UPq6RqrEoMd7XKeyy2fUbvjvx/15CWg9QmJEeK32shDRmGeRMed1v4SjjOD8zSmUMCVeb9ykmE3rS4t+kMsouYVbH9Qnl4fapGoqS4z0kSPn0BXrvEtO6j8KO0gnwIxdMBI6TUjZknjCSyrz8KWXamxy378ireDOhO5hN5lyHtHtt/H5SXe1cJSxCPpVx59+dZx4JiJDWW7oda+r3CL3PYSaZjJpf6wQpiBEqQwQfyphMuJny2GvFI6QPH4bPhy+MWtkDn79YkDLqZ/5VWeqbznZdXKWqBEeOJ8LkKM8Wrdp46cbwDXK7ApX16WFCr0sf5c2EC+h8jy6V5SPhVsP2aOVhnWdsbx2gjHq2/6pSVTZNEUWYk/O6qhIcOZ6XybnUjZkLgwtFVeaJRI9LqdNN/P3lwcPKqxMkd1Y9q7gf+5gOgm/eDC5QHvoOuc72/5S41OX0awkAHxYg3VU88kiAdrAoPQySugA6fi8VqcJ8N+GLSYQ048Nw+TDRZEI/Uopwh0H+Dpe/5uZntFOlulvqR7CeX7FWAsgRHsF+NUG6Q0Z5m7yK0Fh5gkjZ9iFFECGt+FBMPvhC3zmZ0B28P5LHWZdxr4nfXGqC/VKJTNkWnJcQ8oWJ085KgFbm/zxxRrQrgJ/97tPyqYyPNylQfhEubYPTzuuyPu9SHpcVNuGWz9b1M+W7Qcpod8YL86zE5dWv901lqZdhp+z8PMd8vlTku+I9o+t7qq/zK2J3RooeCfBdoe/8fyZFYS5XsBIIrFBCmARZHQH/YmNVjwOrS9XYMU0Z+1+V/MdLEFPZOakibsW7ZOL4w0Tv39OOdndznHyaVgCh6QqDZ/7x8jdaecOf9GXkBwXU99yCSD1itUFCYBsp7pT17taEaQ8Vte+Qo8wD6CwQfr57uOQJI4Oaz/FSP2b7p61knfnJNnkxVhnwKOSCg1byGhz/kNIwFpMq9i+dkOEyidN+f8K0Pxe1L7xRzEtBPEwe1S6SY6dKHja6RpolufLYPJTjGcO+6G8r7SZtJmEQgEB8AtfJRdfbe+O7WriHTylEv7MilbnTZR9SmOP2z9GnMqfbPiSzSB2ArUQh+aSIZDlBxBAol8D5Cv4UyXXsaul2qbsDO0P7tpHcgd1SaoI9oERuJ13ZhMT2SKMvgCkvQo67qR2A2Ur7Qj3ypLG7XAmrGHYiDjg3oQz4DWtfl/xegkHN5xwq+TFYXVn5wvMKqcnmUY+U+ZvyEcCyidOefMQp2oz0nze5JpJ2CBRI4DcKa13Jj9WuHSJcn3OA5Am6xw1xfg6nfEBOnpqDoyX66HcepLRVEkaeMm4n++GEaX8u6mgdgCPkVcpnMqnzo8z4fSe3t/QN6YoyIyLspAS8jv390l5SEbOMb1Y4e0oflBx2XewwJeTbdUnMCOlI3QHwY6dUljJupzk1+1Tcx433e/pvyiGpusbtSZad5nfav1M6Wrpfqmu6m5Quv8jKnbyybB8F7DhyZ3qS0uB3fmCTJs0UhJT5+cWEmZD6RUCp30OQEP3YUa+jf9WhkUlZqbrj9t3/ymMjf64xfIn+/1nJhRL+aRvF7vzr93sVPy7ixwL9+hPxuEvlv1ftYHMI+PFOynzy5NRUdpEiTpn236RKePR4j0qcMSkLRRlxf3XADPfkGN/t+ZGMh5HL8Ikwi+V6jPKpKkt90Ri27NwpQGtUBSmTeA6Rn8PyLOo8Tzit2nyjWZT/w4bz5aoTnUt8G8nRpwJk0LAZG+k8v+lr1Jm2zo+PSL+XHpcipQ9fJk3ybP9VpapsmiLyqFJO7J+Qv9tXBSijeN4dIB8PTcDrmwHS7Uew2BgEPFktpwYmqq+u4EXaIgrs5dKXJA/f+ec8o6a9KX51z+9QlpRunkSXC1+X0beUTiTPCF4WIB/dmZxWIT6PAkW4kdmpwjRnF9VS8tgvK8mlkYnopy/QZU92YjJh2jLqi9taUtUWYQi13zr3harhZBSfl8L1y7HM446tiJlffndCkDRPqSjN2Uazf5CMKrPglxW2hzw3rjjn3dlgMmG1DWrKt2demEH99CoXN/rY2ARu07/KaocGCdcTTMu2DymCQXwq69hbyk5oHcJ3xT0pSIaVVRDKCvdTAQoAkwnLb2wOTpjPqZdRTVR33DlaNCGfXKL+uRydiGUV//fqI08+LsvepID9Losq0jJRHD8pK5F1C3cFJShKD3WiTI3y/z+L2QIBCwKTCYtvfPZImM+vV9xRyny3H77DmpqQTU5RvydQProTUPRIgG8kfecf5eLvssoEQEHo13bWgaxN76+x9VKnKmeE95uH3cd5MuGrpK9Ll0vdDTjf+2OygdilMnfoIuaT37C2eSooGca7XsB8PE4+TSuA5XSFEeWZf2ddmVFA2hoVxGeU2k6AbM/Lw52kXTMtFUwmnDc/+ynjoy7xHKW4LBOwTvoub89REtXAc32HHHGU1asDDpc84XRQ8zle6hdhtn93Pb5p0MRw/JyJPH5u0g2T7y8wKXroLFW5m18RM5nwhXwdr4xPTpVJindBaTzfUvzvYwl55By1l5KmyK9+4/SEU885eb3kkSfPL/JjTsvb3reX5GMukvoNN8VxX5F/2BAE3NidJKXItOhxuuDX1RZXwnaXviO59xw9L6r0jw7AC+XhSJUNbDgCW+m0Ksttk+PabLgs4iwTWEyaKTW5AHWn3SMjHsZrirm3z5sJ59SBlI8AfOfVXRZTfT9DvnhEAhuewJU6NVX+NSVez3fCRiSwnM6nEzCnsv5YLDxk3lRbRAlv8mTCDRNmvN8zEaHhvlZ+uE3ARiPAPKvyy/N/jpZFnN0m4JGAk6UIDVAqH45Q+udrA+HzOQJNm0yYcsKbn7mmKvvteO+XD57Fjo1OwG8F9AvE2mz5LJaF2fL2v9HL6fMh+PlnUycGflFpb9Kw//OZPsBGEyYTuhykMs87SXmReFbxvyJV4msa7/cS52nK8lR23P9b0zKTNFm+CHroykvgys7ACOE/qXS+VcIGJ+Bn1vtIHjm5VYqQn6P6cL7SkcpSz7a+PlXCaxzvOkpbU9rSUeveIOeb6Vo1LjfJk7aTPKhLoz5WwbpJafTyOKwYAnWZTLh2MTgGCsUXirHKaVX7jx3IYw7ul8BRAfK2qjJUVTy/6Bc+xw1PYHmd+lupqkytMp5jlC6/eAUrh0DOkwkPLQfJuKH6JStVlv9ecX12XA/557AE3DF+SurFnH2Dc5ktlusPmxmcNxgBPxLYT5ol1aGw3qN0vF3CqiXQOZnwPkUduSw9Jv/sb1U2XRFFeMOaJyFi5RD4uoKNXOZz8o0X/5RTRscNdUn992tSrj3ZZ+X7kZJHNbC0BHKYTFjVcLg72CdIERrgVdMWi1rHvpRSd3uQfI5Q1ob14TYxXKLWJSV44rxO+pdSThNbTpG/Wwfn2mT3ok4mPKCCTPmQ4hi2MSzyvEsrSGvTo9g/SF4XWW6qDmvfpheiKOmfIUe+K0Vd5+o7/tOkXSQsLwJ+RFN1w9IrPndyvcqhLHuTAo7yk6pfLSuRhPs8AY/2nCT1Kmvsm5iLR8rMEAtEYKp8+bR0hRShED8iP9wx8cQbLE8Cftw0W4pQntwJKHokwI2Y7/yjXPzNmfX/glCBraA4PIwdoWzn5MMtYsbbKSsooKNEsYVO9p2EM6vKwuW1/O4d7iv5jYZY/gTOVBKqLEMTxXWc/JlWANbpCiPKM/92mh+UTwsXkDaC6I/Azjosp0eo7XKS6tPzznbsDy1HRSHgdc3vkn4qFf0+AReIiyXPrH2ttLiE1YvA/6fkpGpwxorXqwMOl1y2BzWf46V+EWb7d6fPI2ZYtQQ+o+i684HvvZl8qtqsGT42nk+MzW6q/uVG0HMH2vI+37EvKi0t+ULuGeK+I5ktPSzdId0sedjsGukiyROWPPcAqy8Bv4/ej5WimsvhqdI5ksvlLOkhyeZHGO3yvq22d5M2k6Lai+XYzKjO1dQvXyv8w2P71TR9RSXrRwro7ZI7RxgEINAgAn9VWrkrKpcBs//TVajJippJgWOX7xPFZ4F02TN4zPyS3ODMOAMCYxH4wVj/YH9hBL5XWEgENCiBp3TC3tK5g57YgOM9svZGyXMlMAhAoIEEPJT+iMQoQDkM7hJbJs2mr1jLyQU/gqGcz2HgkT+/GwSDAAQaTsCrSmgYy2Hw8YaXrUjJd0eMxwFz5tXwpr9IJRNfIJCQwMqK27Pv6QQUy8C/iUFDm7Bg94jaz7uPkJpa1j0p0vMiMAhAAALPE/iWtpraKJaV7v94ni4bkQh4dYCXCDbpPQGeC/EpyWnHIAABCMxFYBV985LQsi6GTQv3MrFccC7CfIlGYCc5VPT7UyKWc780jpf8RCt9+AOBYAQ+Jn8iNmC5+eTfyNglWN7iTm8Cy2u3l8LlVsb69fd4pc0TIDEIQAAC4xLw89G/S/02LhzXm9UPx6XMPyMS2F1O+WVodSnTfmnW/hJD/oKAQQAC/RHYSYdF+gGd3BpkX0RYXtVfWYt2lJfEfk3y8/Lcyl3bX7/d9SsSk08FAYMABAYn8F86pd2g8Nk/C184th8cN2cEI7Ch/PmllNMkQfv6C2l9CYMABCAwNAE/CviLxMV/MAafHJo4J0YksIacOlSKvETWv9LqpX3rShgEIACBQgispVDuk+gE9MfAE8nmK4Q8gUQj4B+d+rTkH86KUh8uly//KU2RMAhAAAKFE9hZIfoOI0qjF9UPv2een8sWhAbYFkrjVyUvrau6PN6kOP18f3MJgwAEIFA6gTcpBi9rq7qxyyW+68RmpdJzgQgiElhTTnmm/XekG6Siy+ztCvMo6QBpS4kZ/UAQAQwC1RL4pKL7YrVRZhGbG2i/YMWdAAwCflSwjjSjQ97n3yBYVFpaao8U+Qe4HpA8v+BRycv2rmnpan1aLl8YBCAAgeQEPioPir7DyTk8D8e6occgAAEIQAACtSfwb0ohjwMmTbpSHFarfW6TQAhAAAIQgEAHgbdq+wkp57v3UXw/T2lfsYMHmxCAAAQgAIHGENhOKfXzyVEupDme6/XWfpaLQQACEIAABBpLwEPgM6UcL+SD+uwRj3c3NqdJOAQgAAEIQKCLgN8YeKCU87vTJ+oM+MeRvPYbgwAEIAABCECgi8DW+u43k010Mc3p/34B0kHSghIGAQhAAAIQgMAYBCZr/4clr23O6ULfy9czlYaNJQwCEIAABCAAgT4JeIa834w2W+p1cY28z8P9r5MwCEAAAhCAAASGJDBN5x0u+U1nkS/69u0yya905cd8BAGDAAQgAAEIFEHAIwIHSjdIkToCz8if46VXSLxjXRAwCEAAAhCAQBkEfHe9q/QT6SEpVWfgYsX9ack/d4xBAAIQgAAEIFAhAc+sd2fgEMnD72V2Bh5W+H+QPi6tLWEQgEDGBBiuyzjzcB0CPQgsq31btbSFPteVVpeWlAaxO3XwddK10gXSXyTf8T8tYRCAQA0I0AGoQSaSBAj0QWAZHbOqtJK0kOTX8C4hecTAP6f6oORJhv68QfI+DAIQgAAEIAABCEAAAhCoEwFGAOqUm4OlxXeEy0seMl6uJd8VLi35c+HW9iKtbR/fua2vz5knpC3V2m5/+Ln0Yu0vHZ++w/Rb4TrNk9g8i9x3nH4NbvsYvzPe+/x/35X6+bO/+9Pf/ZKcu6V7W/J5GASqIuDy3a43K2jbdcB1Z/GWPLrifX704n2uT+2RF7/oyfvml7ofzfg417Nue1Q7/D6ITnM98E9Kt+1+bbjePC51bruueL/riLf92a4392n7HsnHYw0jQAegPhnuvPTw7iotrdb6nKLPzou8Gy1/d+NTJ3Oj127U3DHwL+zdIc2S/Dz7ttbnrfp0Y4pBoJuAL8p+TLKi5Hrk+jRVWllyPfKF3vXHHWdfqOtk7oS7M9CuQ/70d9cf6xbJdahdj/zoCMucAB2AfDLQdw3TpRmSZ2BPk9w4ucGyvO07b2xiAm7YbpJu7Pj0tuWJbx5pwOpHYAklaS3JdWd6h9rfPcqFTUzAIxHuFLgzbXnb9eka6VrpRsmjeVhwAi8K7l/T3PNduWds+yLf1jra9gV/uuROAFY+gdsUxdUduqq1fYM+n5awuAQWkGtrSOu25PrjuuTv7iRj5RPwxf9GyZ0B1yN3DNq6WdsebcACEKADkC4T/HxwU2mzjs+NtL2ghMUk4Oeol0l/ky6R/t7a9nApVj0BD8e7/mwsbSK5Pm0g1W14XkmqjXn04FLp4pZcl6wHJaxiAnQAqgHu5/FuqDrluxT4V8O/7Fg8YnChdG6HHig70oaFv4zSu01LW+tzC2kVCcufwD+UBI+utTsF7U/PO8BKJMAFqHi4nhXvu5Adpe2ll0ruAGDNIeAGzUOf7Q7BWdr2iEHnjG19xcYg4Drku/kdpPZF38P4tFeC0CBzB+BM6c+S69DlEnVIEIoyKtToJP3Msd1Y+YK/i+RZwhgEOgk8rC8zpdMkN2jefkrC5vxy4PoC4frzcullkof3MQh0EmjXIdefs1vyYzlsSAJ0AIYDt6ZOe11LvktZZLhgOKvBBO5X2s+QTpJOlm6VmmQeFXuN9GppJ2lpCYPAIAS89NcjAydKv5Wul7ABCNAB6A/W/DpsM2l3yRf+LSUMAkUScOPlhuwEyR2Duo0OdNchP8On/REErDACda9DhYFqB0QFbJOY93Mp7fIdii/6r5T88hwMAlUQ8HsKjpWOkv4gPS3laJPl9K7SG6U9JE/kwyBQBQHXod9L7lB7lI1VBoLQbXQA5ibi5UOvkPaW9pJ6vc5WuzEIVEbAjwo8MnC09Dsp+siAJ/C9RHId8oV/JQmDQEoCTyryUyXXoV9Lj0qYCNABmFMM/Bz/HdIbpCXm7OIvBMIR8KuNfyx9X7ommHd+4c47pf0lLvrBMgd3nifwsLbcCXAd8mTCRluTOwArKOffKvnCv16jSwGJz42AlxmeIX1POkZKNRPaI2b/LPnC/1Kpye2Jko9lRuAK+XuE5E61fz8EawCBTZRGZ/rjkhtSBIOcy8C9KsOHSJ5VX5Wtroi+Jvk5a87s8J38cxnwtcAjAr42YDUl4OVGnlBFpYdBHcuAX7F6pLShVJZtrIB9t+S46siQNJGvp6lsv0rCakDAQ5Jetuc3slG5YdCEMvCsyrpnPu8gFWU7KiBPRHTYTWBIGsnnmSrrvnbwWEsQcjTP5r9AojLDoKllwBftUUYEfMfvJVRN5Ue6yXtfQ3wtwTIhsL789PppKi8MKANzfnrV9WG61K+togO/Iz0twRAGlIE5ywg37bcCcVz1BPwq0W9LNFo0WDRY85YBr33+nOSZ+2PZIvrHF6THJBjCgDIwdxnwteV/JL8kDgtEYHf5cotEgYUBZWD8MnCt6skuPequX97jZVHwgwFlYPwycLvqyf496lB2u3Kf4OC1/N+X/ik78jgMgXQEPJnPdzKfbLnwJX3+mzRf6zsfEIDAxASO0yF+B8Y9Ex8a84icOwCemPEjaUpMtHgFgfAEbmp5OC28pzgIgZgEZsmtt0qnxXRvfK/mH//fIf/ru5SDJU9SWiKkhzgFgTwIeN6MhUEAAsMRiRczMQAAIOxJREFU8DVoP2kh6XTJj0+ysdxGABYX2Z9Ie2ZDGEchAAEIQKAJBE5WIt8sZfPLgzl1AFYXWK9r3ljCIAABCEAAAtEIXCKH/AKhm6M51sufXDoA0+W8X+O7Zq9EsA8CEIAABCAQhIAv/rtKXnET2vw8PbqtKwfPkrj4R88p/IMABCAAAY9W+5o1yls4K6EYfQRgqiicI1X5S2eVgCcSCEAAAhCoNQGvEHixdEvUVEYeAfDsyt9KXPyjlh78ggAEIACBsQj4Bta/pRH2zYFROwD26/+kzSQMAhCAAAQgkCOBjeT0z6SQo+3zByX6Yfn1vqC+4RYEIAABCECgXwLr6EAvDfTj7FAWsVeyuQj9VfKLFbByCTyg4O+T7m/J373d+fmkvj8sPS49IT0kPS35GL/0wp/d9oh2PNW1c7K++z0O3ba0drgc+tPH+NGPf5Rm4da2y8Eykv/f63M57Q87xCbfsPoScNmn/tQ3f4tMmdtRzwe4uMhARw0rWgfAQ/8XSJuNmrCGn3+P0u+JJze3dLc+PSHlLunO1rb3uVDWwdxJWFHyMzd/riRNkfxbEX7NreeReGauOwsYBCYiQP2h/kxURob5/0U6aSvJv8URwqJ1AN4hKt8PQSa2E74T9xrTq6VrpOuk9sX+Jm0/JmHzElhUu6ZL7Q7B2tqeIXmIztuMOglCA4z6M1wmU3+G49Z5ln886IjOHSm3I3UAPDzsi9nKKYEEi9vPjS5tyW+YukoyI9/dh+lFypc6mEefPErgDsG6kt84uVFLS+oTy48A9ae6PKP+9Mf6Dh3mNsaPSZNbpA7AAaLxjeRE0jngO/jzpPOlv0uXSb6bx9IT8GMEdwY2kTyEZ7mzgMUhQP2JkxfdnlB/5ibia91hc+9K8y1KB8C9R9/dehi2CeY7kz9LMyVf8C0/n8fyIeC5Bu4IbC1tK71EYjKiIFRg1J8KIJccRZPrj0dx15OSj+JG6QC8VjBOLLnApQz+VkV+puSL/tnSpVLyzJcPWHEE3In1KMGO0vbSTpInJWKjE6D+jM4weghNqz+vUYb41wMxEThS+keN9IjScqr0cWlLKUpHS65gFRJYU3G9WzpKul+qUxkvMy3UHxUW7Lnff6lr/QkzETB1OXPPz0vTymxQqgjbM/IPkXaSFpAwCHQSmKwvO0tflTwEWEWZzCkO6o8KBTYmgbrVH08G9LWv8ebnpzk1VJ2++p0FH5M8axyDwCAE1tfBn5AukjrLVJO2qT+DlBiO7SRQh/qzTWeCmrr9PiU8p0bvCvn7GclrxzEIFEHAHcgDpSulnOrCML5Sf4ooMYTRSSDX+vPezkQ0dfs7SvgwDUmV5zwuH/0c9+USz/MFASuNgOeMuE48LFVZxsuMi/pTWnEh4C4COdWfb3f53sivZynVZTY+o4R9nXz7gLREI3OGRKck4JcPfVC6XhqlDKc8l/qTsgQ1O+4c6s+Zzc6iOamPOCHKzyb3kpikQQlNTWB+OfAG6UIp5cV8kLipP6lLDfG3CUSuP5742niLtALAb9/zhZ9h/sYXy3AAXCbdEbhcGuRiXOWx1J9wxQaHWgQi1h9f+xpv/mGOKhupXnE9Kh8OkhaUMAhEJuAlpn6VqN+G16ssp9hH/YlcYvCtk0Ck+uNrX1KLMMS9UFICRA4BCEAAAhCongDXPjFPcccyVpwewtxT4hFA9ZWBGMcn4DLpx1PRHwFQf8bPR/6bhkDU+pOGRqBYx7oYp9w/U3xeJ9ERCFRQGuqKR+l2l86VUtaJQeKm/jS0sAZMdvT6ExBZtS4N0rBUfazvtt4pLVwtEmKDwKRFxMDvQfeLc6ou90XFR/2hIKcikEv9ScUnTLxFNTZlhvOAaPnlLJuEoYYjdSXgt5p9SbpbKrNMVxk29aeupTVeunKrP/EIVuxRlQ1REXGdLT5+heMKFXMiuvoSWFFJ8yux/yIVUUYjh0H9qW85TpWynOtPKmZh4o3cWI3n21Mi+FvprdJyYWjiSC4Elpejb5dOllyWxitrdfwf9UeZjg1NoC71Z2gARZwYYZKbG7fc7RklwK80Pk46XvLrWzEIdBNYSzv2aGl7ffotZdikSdQfSkE/BOpYf5Jeg5NG3srxOnQAuguvOwCntXSqPv0MFGsegcWU5O2kl7fkHyrBJiZA/ZmYUROOaEL9SXoNThp5qwTXsQPQWTmf1hcv4fIIgfVniQ6BINTQllaadpB2bGlrfS4gYcMToP4Mzy63M5tYf5Jeg5NG3iqdde8AdFfCZ7XjEsmToc6Tzpf8O/AeBsXyIeDh+/WlrSRf6H3h30iK8HZNuVFbo/7UI2upP3PyMek1OGnkrXLctA5Ar+r7iHb6197cGbhIulTyGurZEpaegF/ZuYHkC/zmki/6/lxcwtIToP6kz4PxPKD+jE0n6TU4aeQtJnQAehcOD3365yLdGfi75FGCa1p6XJ9Y8QT88pAZLfnufuOWvI+hfEHIyKg/1WcW9Wdw5kmvwUkjb7GiAzBYoTGvW6R2Z8CfN0k3t/bfoU9sbAIr61+rS6tJ06X2Bd+fq0oR6oTcwEoiQP0ZDSz1ZzR+3WcnbW+SRt4iQQegu0iM9v0Jnd7uDLijMEu6qyVv393avkefdbLllRi/EMSa0rE9Vdu+2Fu+8PNaZ0HAxiRA/aH+jFk4SvhH0mtw0shbMOkAlFCq+gjyKR1zr+QVCfe3Pju3ve8hyQ2iHzn4OavP8TEeXvX/bA9L/t5pj+nLk507tO3ngIt27fOw+hKtfUvq0989E3iy5OfrPt7n+X/LSP5f96f3+UVMPgeDQFUEqD9Vka53PEmvwUkjb+UrHYB6F3BSBwEIQAACvQkkvQazZKl3prAXAhCAAAQgUGsCdABqnb0kDgIQgAAEINCbAB2A3lzYCwEIQAACEKg1AToAtc5eEgcBCEAAAhDoTYAOQG8u7IUABCAAAQjUmgAdgFpnL4mDAAQgAAEI9CZAB6A3F/ZCAAIQgAAEak2ADkCts5fEQQACEIAABHoToAPQmwt7IQABCEAAArUmQAeg1tlL4iAAAQhAAAK9CdAB6M2FvRCAAAQgAIFaE6ADUOvsJXEQgAAEIACB3gToAPTmwl4IQAACEIBArQnQAah19pI4CEAAAhCAQG8CdAB6c2EvBCAAAQhAoNYE6ADUOntJHAQgAAEIQKA3AToAvbmwFwIQgAAEIFBrAnQAap29JA4CEIAABCDQmwAdgEmT3iE0Z0n/6I2IvRAIR8Bl1WXWZTe1UX9S5wDxD0ogUv0Z1PdCj39RoaENF1jqC2+bwVpyf/+Wpg+XFM6CQKkEblDoP27p+lZM1J9SkRN4jQhErj9JMLcvfkkib0UapQHrZLChvuwtvVlap/MfbEOgYgI3Kb7jpKOlP0vd9aX7uw6p1Hq1IdSfSrOAyMYhkGP9GSc5xf6rV+UtNoaJQ4vYgHV6vYW+vEF6jbSpFIGZ3MBqSsD14WLpJOkY6UJpPKP+jEeH/zWNQN3qT6n5F+FiFr0B68yAqfry6pZeoc8lO//JNgSGJPCgzjtVOrml2wcIh/ozACwOrSWBptSfwjOPDsDwd/TzKzc2k3aQtpfcIVhawiAwEYFHdcBfJQ/pny2dKc2WhrGcOgCd6aP+dNJgexAC1J9BaI1zLB2A4TsA3VgX0I6tpO2kF7c+V9MnBoGbhcAX/Jmtz/P1+bRUhOXaAehOO/Wnmwjf2wSoP20SBX/SASiuA9Ara/zIwJ2BraXNW1pRn1h9CdyppF3U0nn69EV/llSW1aUD0IsP9acXlXrvo/5UmL90AMrtAPTKylW0052BTaT1pfUkrzRgPoEgZGQPyderWrpCn3+TfOEv82Kv4OexOncA5kmsdlB/elHJbx/1Z06eJb0GJ428VWab1oCNVVWX0T+8fGoDac2W/H1dyc9LsTQEPCHvMsnr7i/v2L5B26nLrlxI7kOENsQcqD+mEM+oP+PnSdL6kzTyFpfUjWgEBuMVkUX0zxnS6pLnFPgOyJ+d2z4GG5zA4zrlFum21mfntp87XiP5mMhG/Rk/d6g/4/MZ5b/Un1HozTk36fUnaeQtdqkbMD+jnzl6PiYNYXnF3u4YrKrtKdKy0nItrdDxfXFt19keUeLubemejm3vu0O6VfLF3Rd978vZtpXz5yROAPUncQYUHD31p2CgEwSX9BqcNPIWmNQdAPdi3yX9bIKMqsu/F1JC2h2DdifByxe93/MQFm1te0jV+/zd+xeW3HmwJktt8+OJ7vkL7fPax/jzMenJzh3a9nPAZzr2eSmcl/g8LPlY/7993v2tff7u/f7/A5Iv4ve1Pr3dHYd21dLeolR9V3K+pDTqz5zlv9SflKVw8Lij1J8I1+DB6RV4hjsAEXSC/PBdNAaByARWknO/kiLUmU4fqD+RSw2+tQlEqz9tvxr72dmIpN72neeXpCUamxskPCoBj8R8XPKoR+p6Mlb81J+opQe/otafxufMWI1Jyv1+Pvx+yYUGg0BKAosp8g9IXl6Ysk4MEjf1J2WJIe5OAtHrT6evjdwepGGp+ti7lSMHSZ5Eh0GgSgIrKrLPSp7IWHW5Lyo+6k+VJYa4OgnkUn86fW7kdlGNTZnheGLZUdLLpcZP2mhkKa0m0S5b/m2J70ie7Fhmma4ybOqPMhMrnUCO9ad0KNEjqLIhKiKuqwX0M9KM6GDxLxsC68rTA6VrpSLKaOQwqD/ZFMtsHM25/mQDuSxHIzdWE/l2nqB8WPJLejAIDEJgmg7+iHSBNFE5q+v/qT+DlBiO7SRQl/rTmabKtyMMZ7txq4NdrkR4KdSJ0l+kZyUMAm0C82ljc2l36XXSFlKE+ic3Qhj1J0Q2hHWirvUnaRuQNPJWUatLB6Cz5typL6dIf2jJb5/DmkdgNSV515Z206cnJmETE6D+TMyoCUc0of4kvQYnjbxVguvYAeiunFdphzsDZ0geHaBDIAg1NL+G+SXSzpIv/OtI2OgEqD+jM8whhCbWn6TX4KSRt0pkEzoA3ZXPPzrz1w75Z2Rndx/E99AE/OpXD+n7Xfi+6G8nuQHDyidA/SmfcdkxUH/mEE56DU4aeauENbED0F25ntaOqyVPCPNPz/p5qEcK7pWw9ASWkAubShtIG0pbtpT6PfxyAxMB6k/sYkD9GTt/kl6Dk0beYkIHoHfhMJfrpSta8jCoOwZXSv5hHKx4AssqyPWk9bs+19T3CHVFbmB9EqD+9AmqwMOoP4PDTNquJI28xYoOwOCFxpOkPGJwQ4dubG37NazPSNi8BObXLv/g0xotTdenL+7+7uf1TNIThAYY9We4TKb+DMdtvLOSXoOTRt6iQgdgvOIx+P88l8DPSG+XZrU+72httz/dAPondOvSUXDDtJzkC7gv8P7Fr6nSFGnl1ra/e1bxZAmDwFgEqD/Un7HKRhn7k16Dk0beokkHoIxi1V+YD+owdwQ818CfnXpE3y03iP4Fuiekx6WHJO/zp8355/93mv//aOcObS8mLdi1b2l9b5fBJVv/96d/hMmThPx/n7N4Sx5i7JQv+v6+lIRBoGoC1J+qidcvvnb7lyRlSSNvpZgOQJKsJ1IIQAACEEhMIOk12G9XwiAAAQhAAAIQaBgBOgANy3CSCwEIQAACEDABOgCUAwhAAAIQgEADCdABaGCmk2QIQAACEIAAHQDKAAQgAAEIQKCBBOgANDDTSTIEIAABCECADgBlAAIQgAAEINBAAnQAGpjpJBkCEIAABCBAB4AyAAEIQAACEGggAToADcx0kgwBCEAAAhCgA0AZgAAEIAABCDSQAB2ABmY6SYYABCAAAQjQAaAMQAACEIAABBpIgA5AAzOdJEMAAhCAAAToAFAGIAABCEAAAg0kQAeggZlOkiEAAQhAAAJ0ACgDEIAABCAAgQYSoAPQwEwnyRCAAAQgAAE6AJMmvUPF4CzpHxQHCGRCwGXVZdZlN7VRf1LnAPEPSiBS/RnU90KPf1GhoQ0XWOoLb5vBWnJ//5amD5cUzoJAqQRuUOg/bun6VkzUn1KRE3iNCESuP0kwty9+SSJvRRqlAetksKG+7C29WVqn8x9sQ6BiAjcpvuOko6U/S931pfu7DqnUerUh1J9Ks4DIxiGQY/0ZJznF/qtX5S02holDi9iAdXq9hb68QXqNtKkUgZncwGpKwPXhYukk6RjpQmk8o/6MR4f/NY1A3epPqfkX4WIWvQHrzICp+vLqll6hzyU7/8k2BIYk8KDOO1U6uaXbBwiH+jMALA6tJYGm1J/CM48OwPB39PMrNzaTdpC2l9whWFrCIDARgUd1wF8lD+mfLZ0pzZaGsZw6AJ3po/500mB7EALUn0FojXMsHYDhOwDdWBfQjq2k7aQXtz5X0ycGgZuFwBf8ma3P8/X5tFSE5doB6E479aebCN/bBKg/bRIFf9IBKK4D0Ctr/MjAnYGtpc1bWlGfWH0J3KmkXdTSefr0RX+WVJbVpQPQiw/1pxeVeu+j/lSYv3QAyu0A9MrKVbTTnYFNpPWl9SSvNGA+gSBkZA/J16taukKff5N84S/zYq/g57E6dwDmSax2UH96UclvH/VnTp4lvQYnjbxVZpvWgI1VVZfRP7x8agNpzZb8fV3Jz0uxNAQ8Ie8yyevuL+/YvkHbqcuuXEjuQ4Q2xByoP6YQz6g/4+dJ0vqTNPIWl9SNaAQG4xWRRfTPGdLqkucU+A7In53bPgYbnMDjOuUW6bbWZ+e2nzteI/mYyEb9GT93qD/j8xnlv9SfUejNOTfp9Sdp5C12qRswP6OfOXo+Jg1hecXe7hisqu0p0rLSci2t0PF9cW3X2R5R4u5t6Z6Obe+7Q7pV8sXdF33vy9m2lfPnJE4A9SdxBhQcPfWnYKATBJf0Gpw08haY1B0A92LfJf1sgoyqy78XUkLaHYN2J8HLF73f8xAWbW17SNX7/N37F5bcebAmS23z44nu+Qvt89rH+PMx6cnOHdr2c8BnOvZ5KZyX+Dws+Vj/v33e/a19/u79/v8Dki/i97U+vd0dh3bV0t6iVH1Xcr6kNOrPnOW/1J+UpXDwuKPUnwjX4MHpFXjGEwrLnYDUOkE++C4ag0BkAivJuV9JqetLd/zUn8ilBt/aBCLVH1/7Gm93iUB3Y5Lqu+88vyQt0fhcAUA0Ah6J+bjkUY9U9WOieKk/0UoN/rQJRKw/d7ada/KnJ1pN1LBU/X8/H36/5EKDQSAlgcUU+QckLy+suh4MGx/1J2WJIe5OApHrz9WdjjZ1+ywlfNiGpuzz7pZvB0meRIdBoEoCKyqyz0qeyFh2OS8rfOpPlSWGuDoJ5FB/zux0uKnb31bCy2qAigrXE8uOkl4uNX7Shhhg5RBw2fJvS3xH8mTHospv6nCoP8pMrHQCudWfb5VOJIMI3icfUzdQg8TvYZvPSDMyYIuLeRBYV24eKF0rDVIWczyW+pNHmczJy1zrz3tzglyWr9so4BwbMvt8nvRhyS/pwSAwCIFpOvgj0gVSruV/VL+pP4OUGI7tJFCH+rN1Z4JSbEcYzp5PCfekoZVTACgwzssVlpdCnSj9RXpWwiDQJuByvrm0u/Q6aQspQv2TGyGM+hMiG8I6Ubf64xUAUyWuE4LwA2nUu4lI59+h9PxYeqvkN/NhzSTg1zW/TfqJ5AofqYxG9oX6o8KCPfe687eJQx3rz/cj5G+UO5BXC8ZJEYCU5MNVCvcP0hmSRwf8OlqsfgTc2XuJtLO0q7SOhI1OgPozOsMcQmhS/XmVMuT3qTMlSgfAwztXSk2ZWHeL0vrXDvlnZGdLWD4E/OpXD+m/WPJFfzuJ0R5BqMCoPxVALjmKJtefq8V2PcmjcEktSgfAEPzincOS0kgX+dOK2oXCE8Iuk/w81CMF90pYegJLyIVNpQ2kDaUtW1pYn1h6AtSf9HkwngfUn7npvF9fvzn3rjTfInUA/CMzvghOSYMiXKzuHV4vXdGSh0HdMfBIiX8YByuewLIK0j3z9bs+19T3SHVF7mATEKD+TACohH9TfyaGersO8aNB/+picovWqL1dRDwhEBufgCeUubN0Q4dubG17RcUzEjYvgfm1yz/4tEZL0/Xpi7u/u1KuKGH1J0D9GS6PqT/Dces8y9e4Izt3pNx+UcrIe8TtuQDnSh5ixYYjMFun+Rmpe5qzWp93tLbbn24A/RO6dekouGFaTvIF3Bd4/+LXVMmjSV5e6m3Ls/InSxgExiJA/aH+jFU2Rt1/gQLYRgqz9C9aB8CAN5FmSjxfNY1y7UEF747Ava1Pb7flISrLDaJ/ge4J6XHpIcn7/GnzUKv/32n+/6OdO7S9mLRg176l9b1dBpds/d+fi0qeJOT/+xw/HrI8xNgpX/T9fSkJg0DVBKg/VRPPNz63n774XxIpCe3GN5JP9uWD0tejOYU/EIAABCAAgSEIHKBzDhvivFJPidoBsF/HSbuXmnoChwAEIAABCJRL4HgFv6fk0dJQFrUDYEgeBv6T5GETDAIQgAAEIJAbgQvl8E5SiFn/3fAidwDsqydx/VWa5i8YBCAAAQhAIBMCXpH1Yinsm1896z6yeSb7LtINkZ3ENwhAAAIQgEAHgZu1vbMU9uJvX6OPANhH2+rSH6W1/AWDAAQgAAEIBCVwk/x6mXR9UP+edyv6CEDb0XZv6m/tHXxCAAIQgAAEghHwNWoHKfzF39xy6QDYVw+lbC/9xl8wCEAAAhCAQCACv5UvL5VCD/t38vIb1HKyp+Ts0ZI7LjtKuTzCkKsYBCAAAQjUkMCzStPnpPdIT+aUvpwvoLsI9I8lfoI1pxKHr5EI+FmljVU2czjwFwKDEvDd/luk0wc9McLxOT0C6Ob1J+3YVPp19z/4DgEIjEvAdyyHSxu19E19eh8GAQj0T+BXOtTXoNP7P4UjyyDgNwb6buYfCAaUgXHLwDXis7PUbS/Rjssl6hAMKAPjl4FZqid7d1egHL/nNgdgLMZX6x8/kPyDMVtKOY9syH0MAoUT8I8z/Zf0L9K1PUK/RfuOkNz4by3xq4mCgEGgg8DT2vZo2V7SRR372QxEYF35cpRELxYGlIE5P/nsuTJTB6ijPvY7kifdwhAGlIFJk05VXdhYwjIh8DL5ea5E4YVBU8uAf4RkgxHq64Y690TqEG1Ig8uAryG+lmCZEni1/P6L1NSLAOluVt4/o7LuX9L0M/2ibHsF5M6EJwpSnmDQhDLwZ5V1XzuwmhB4udLxe4lGjAasjg2Y1x/7Gf76Ulnm0YQfSo6rjgxJU7Pz1deG30m7SlhNCbgR8/NNT4qiwsMg9zJwl8rxf0uDPOPX4SOZ373xZeluKXd++E8e+lrwv1KZnWcFj0UisKycOUC6RKIRgEFOZcB3KqdJb5QWklKZ436T9AeJkTXqUE51yL667fc1wNeCRlrObwIsMsO2VWDvkPaWli4yYMKCQIEEbldYP5K+L11XYLhFBLW2AnmntL80pYgACQMCJRB4QGH6dfJ+XDazhPCzCpIOwNzZ5Tua3SR3BPaSFpMwCKQkcK8iP0lyo3Wy5LXIkc3v4PAERNehfaSVJQwCKQk8ocg9YuY65Lf3PSZhIkAHYOxisKT+9WrpddKrpOUlDAJVELhbkRwjHSWdIT0j5Wh+0dgukjsCr5eoQ4KAVULgHsXyO8nLWN1xfkjCugjQAegCMsZX39VsLvmVw+4QbCHBThCwwghcrpBOkHyncroU/U5fLg5k7Trk1TiuRx4loA4NhJCDJyBwvf7vC77r0RmSX2SFjUOACjgOnHH+tbr+91rJnYGXSotLGAQGIeA7lNMl352cJN0hNck8T+A1kkfZdpaWkzAIDELgER3sC/1vW7p5kJM5lh54EWXAw5zrSX5Zyg7SztJqEgaBTgIe1veko7Ml3+X7XeLPStgcAmvqw6MDrkMvk1aRMAh0EvCS13Ml1yG/qMfbsyVsSAKMAAwJboLT3CFwQ7Zj69ONG9YcAr6wXyn5gt++6HuI30uPsIkJuF3aUHL92aYl16n5JKw5BK5XUn2xP6v16TqFFUiADkCBMMcJysOdm3VpbX2nQRsHWkb/ukW+Xij5juQc6XyJSUeCUKB5Uu7WkpfsulPgeTiMtAlCDcwd5muli7vkZa9YiQToAJQId4KgPW9gE2lTyZ0DTzL0Xc+iEhaTgJ85Xib9vSW/SMTb90tY9QSWUZSuQ5Z/qc11yXVoMQmLSeAxuXWp1L7Y/03brkOuW1jFBOgAVAx8guicH76rmdGldfR9DWlBCSuXgIfpb5aubukqfVr+7v08txeEwOZRtWmS68y6LXnbdWp1iTZPEEo2P5e/QXKduaZLHi3jUZggRDAqQ4Rc6M8HTzacLvnRQbsxm6ptN2r+9KSphSVsYgJ36pAbpZs65O/W9dLjElY/AosoSWtKa0juJExvfXrbWknCJibgF+vcJs2S3Cluf/pi76H8G6VnJCw4gRcF9w/3BiOwgg53Z8CjCO4QeNvyEqtuTda+OtmjSozfmmf5Am+5Ybqj9Xl7x6cbMAwC3QTcgXZ98Zwdy9srS65L7hysKLXrUd0eMzyltLXrT+en65DlC77v3r19t4TVgAAdgBpk4pBJ8KQqN2bLtz697UZtKcl3Sp6L4G03it7v472/ve0RibYtoY0F2l9a297XbQ9qR+cQuocCH2gd5E9/f0jy3YOfCfqi/rDk8yzv83er3Ujd19rmoi4QWGUEXC9cZ6xlW58u8225vrj++LvrjOf8uM54v9vdpSWbPzvbYT/C8Hnd5jL/dMdOb3tf21xnXHdcZzyC1d52vXDd8bN37/d2Z2fZ76OwOsPSVwwCEIAABCAAAQhAAAIQgAAEIAABCEAAAhCAAAQgAAEIQAACEIAABCAAAQhAAAIQgAAEIAABCEAAAhCAAAQgAAEIQAACEIAABCAAAQhAAAIQgAAEIAABCEAAAhCAAAQgAAEIQAACEIAABCAAAQhAAAIQgAAEIAABCEAAAhCAAAQgAAEIQAACEIAABCAAAQhAAAIQgAAEIAABCEAAAhCAAAQgAAEIQAACEIAABCAAAQhAAAIQgAAEIAABCEAAAhCAAAQgAAEIQAACEIAABCAAAQhAAAIQgAAEIAABCEAAAhCAAAQgAAEIQAACEIAABCAAAQhAAAIQgAAEIAABCEAAAhCAAAQgAAEIQAACEIAABCAAAQhAAAIQgAAEIAABCEAAAhCAAAQgAAEIQAACEIAABCAAAQhAAAIQgAAEIAABCEAAAhCAAAQgAAEIQAACEIAABCAAAQhAAAIQgAAEIAABCMwh8P8DU9RYsU9Ti0wAAAAASUVORK5CYII=;textShadow=1;fontFamily=Verdana;fontSize=16;fontStyle=1;labelPosition=center;align=center;shadow=1;" parent="1" vertex="1">
          <mxGeometry x="2260" y="-142.75" width="246.61" height="246.61" as="geometry" />
        </mxCell>
        <mxCell id="rilTDgwJUt0uwkPP9IXT-73" style="rounded=0;orthogonalLoop=1;jettySize=auto;html=1;exitX=0.999;exitY=0.583;exitDx=0;exitDy=0;entryX=0;entryY=0.5;entryDx=0;entryDy=0;strokeWidth=2;shadow=1;startArrow=classic;startFill=1;fontFamily=Verdana;exitPerimeter=0;" parent="1" source="rilTDgwJUt0uwkPP9IXT-68" target="rilTDgwJUt0uwkPP9IXT-72" edge="1">
          <mxGeometry relative="1" as="geometry" />
        </mxCell>
      </root>
    </mxGraphModel>
  </diagram>
</mxfile>
